solid Inlet 
 facet normal 0.015707045132266818 0.9998766367573616 0
  outer loop
   vertex 0 -15 0
   vertex -0.47116139531135559 -14.992598533630371 0
   vertex 0 -15 1
  endloop
 endfacet
 facet normal 0.015707045132266818 0.9998766367573616 -0
  outer loop
   vertex 0 -15 1
   vertex -0.47116139531135559 -14.992598533630371 0
   vertex -0.47116139531135559 -14.992598533630371 1
  endloop
 endfacet
 facet normal 0.047106966788746971 0.99888985062416358 0
  outer loop
   vertex -0.47116139531135559 -14.992598533630371 0
   vertex -0.94185781478881836 -14.970400810241699 0
   vertex -0.47116139531135559 -14.992598533630371 1
  endloop
 endfacet
 facet normal 0.047106966788746971 0.99888985062416358 -0
  outer loop
   vertex -0.47116139531135559 -14.992598533630371 1
   vertex -0.94185781478881836 -14.970400810241699 0
   vertex -0.94185781478881836 -14.970400810241699 1
  endloop
 endfacet
 facet normal 0.078458334150446965 0.99691739367027632 0
  outer loop
   vertex -0.94185781478881836 -14.970400810241699 0
   vertex -1.4116246700286865 -14.933429718017578 0
   vertex -0.94185781478881836 -14.970400810241699 1
  endloop
 endfacet
 facet normal 0.078458334150446965 0.99691739367027632 -0
  outer loop
   vertex -0.94185781478881836 -14.970400810241699 1
   vertex -1.4116246700286865 -14.933429718017578 0
   vertex -1.4116246700286865 -14.933429718017578 1
  endloop
 endfacet
 facet normal 0.10973479099134492 0.99396090247357605 0
  outer loop
   vertex -1.4116246700286865 -14.933429718017578 0
   vertex -1.8799984455108643 -14.881720542907715 0
   vertex -1.4116246700286865 -14.933429718017578 1
  endloop
 endfacet
 facet normal 0.10973479099134492 0.99396090247357605 -0
  outer loop
   vertex -1.4116246700286865 -14.933429718017578 1
   vertex -1.8799984455108643 -14.881720542907715 0
   vertex -1.8799984455108643 -14.881720542907715 1
  endloop
 endfacet
 facet normal 0.14090190758757348 0.99002356155708893 0
  outer loop
   vertex -1.8799984455108643 -14.881720542907715 0
   vertex -2.3465170860290527 -14.815324783325195 0
   vertex -1.8799984455108643 -14.881720542907715 1
  endloop
 endfacet
 facet normal 0.14090190758757348 0.99002356155708893 -0
  outer loop
   vertex -1.8799984455108643 -14.881720542907715 1
   vertex -2.3465170860290527 -14.815324783325195 0
   vertex -2.3465170860290527 -14.815324783325195 1
  endloop
 endfacet
 facet normal 0.17192756897072697 0.98510959340969562 0
  outer loop
   vertex -2.3465170860290527 -14.815324783325195 0
   vertex -2.8107197284698486 -14.734309196472168 0
   vertex -2.3465170860290527 -14.815324783325195 1
  endloop
 endfacet
 facet normal 0.17192756897072697 0.98510959340969562 -0
  outer loop
   vertex -2.3465170860290527 -14.815324783325195 1
   vertex -2.8107197284698486 -14.734309196472168 0
   vertex -2.8107197284698486 -14.734309196472168 1
  endloop
 endfacet
 facet normal 0.20278900282964879 0.97922245701952559 0
  outer loop
   vertex -2.8107197284698486 -14.734309196472168 0
   vertex -3.272148609161377 -14.638751029968262 0
   vertex -2.8107197284698486 -14.734309196472168 1
  endloop
 endfacet
 facet normal 0.20278900282964879 0.97922245701952559 -0
  outer loop
   vertex -2.8107197284698486 -14.734309196472168 1
   vertex -3.272148609161377 -14.638751029968262 0
   vertex -3.272148609161377 -14.638751029968262 1
  endloop
 endfacet
 facet normal 0.23344425328648247 0.97237018702113476 0
  outer loop
   vertex -3.272148609161377 -14.638751029968262 0
   vertex -3.7303483486175537 -14.52874755859375 0
   vertex -3.272148609161377 -14.638751029968262 1
  endloop
 endfacet
 facet normal 0.23344425328648247 0.97237018702113476 -0
  outer loop
   vertex -3.272148609161377 -14.638751029968262 1
   vertex -3.7303483486175537 -14.52874755859375 0
   vertex -3.7303483486175537 -14.52874755859375 1
  endloop
 endfacet
 facet normal 0.26387282997635775 0.96455747863995545 0
  outer loop
   vertex -3.7303483486175537 -14.52874755859375 0
   vertex -4.1848664283752441 -14.40440559387207 0
   vertex -3.7303483486175537 -14.52874755859375 1
  endloop
 endfacet
 facet normal 0.26387282997635775 0.96455747863995545 -0
  outer loop
   vertex -3.7303483486175537 -14.52874755859375 1
   vertex -4.1848664283752441 -14.40440559387207 0
   vertex -4.1848664283752441 -14.40440559387207 1
  endloop
 endfacet
 facet normal 0.2940400549570068 0.95579309794582656 0
  outer loop
   vertex -4.1848664283752441 -14.40440559387207 0
   vertex -4.6352548599243164 -14.265848159790039 0
   vertex -4.1848664283752441 -14.40440559387207 1
  endloop
 endfacet
 facet normal 0.2940400549570068 0.95579309794582656 -0
  outer loop
   vertex -4.1848664283752441 -14.40440559387207 1
   vertex -4.6352548599243164 -14.265848159790039 0
   vertex -4.6352548599243164 -14.265848159790039 1
  endloop
 endfacet
 facet normal 0.32391786295205144 0.94608520655413275 0
  outer loop
   vertex -4.6352548599243164 -14.265848159790039 0
   vertex -5.0810689926147461 -14.113211631774902 0
   vertex -4.6352548599243164 -14.265848159790039 1
  endloop
 endfacet
 facet normal 0.32391786295205144 0.94608520655413275 -0
  outer loop
   vertex -4.6352548599243164 -14.265848159790039 1
   vertex -5.0810689926147461 -14.113211631774902 0
   vertex -5.0810689926147461 -14.113211631774902 1
  endloop
 endfacet
 facet normal 0.35347453982540278 0.93544414568440148 0
  outer loop
   vertex -5.0810689926147461 -14.113211631774902 0
   vertex -5.5218682289123535 -13.946647644042969 0
   vertex -5.0810689926147461 -14.113211631774902 1
  endloop
 endfacet
 facet normal 0.35347453982540278 0.93544414568440148 -0
  outer loop
   vertex -5.0810689926147461 -14.113211631774902 1
   vertex -5.5218682289123535 -13.946647644042969 0
   vertex -5.5218682289123535 -13.946647644042969 1
  endloop
 endfacet
 facet normal 0.38268437263847205 0.9238791430367389 0
  outer loop
   vertex -5.5218682289123535 -13.946647644042969 0
   vertex -5.9572181701660156 -13.766319274902344 0
   vertex -5.5218682289123535 -13.946647644042969 1
  endloop
 endfacet
 facet normal 0.38268437263847205 0.9238791430367389 -0
  outer loop
   vertex -5.5218682289123535 -13.946647644042969 1
   vertex -5.9572181701660156 -13.766319274902344 0
   vertex -5.9572181701660156 -13.766319274902344 1
  endloop
 endfacet
 facet normal 0.41151411290239176 0.91140338757443595 0
  outer loop
   vertex -5.9572181701660156 -13.766319274902344 0
   vertex -6.3866891860961914 -13.572405815124512 0
   vertex -5.9572181701660156 -13.766319274902344 1
  endloop
 endfacet
 facet normal 0.41151411290239176 0.91140338757443595 -0
  outer loop
   vertex -5.9572181701660156 -13.766319274902344 1
   vertex -6.3866891860961914 -13.572405815124512 0
   vertex -6.3866891860961914 -13.572405815124512 1
  endloop
 endfacet
 facet normal 0.43993893387336852 0.89802769136723393 0
  outer loop
   vertex -6.3866891860961914 -13.572405815124512 0
   vertex -6.8098573684692383 -13.365097999572754 0
   vertex -6.3866891860961914 -13.572405815124512 1
  endloop
 endfacet
 facet normal 0.43993893387336852 0.89802769136723393 -0
  outer loop
   vertex -6.3866891860961914 -13.572405815124512 1
   vertex -6.8098573684692383 -13.365097999572754 0
   vertex -6.8098573684692383 -13.365097999572754 1
  endloop
 endfacet
 facet normal 0.46793049404602599 0.88376527016048889 0
  outer loop
   vertex -6.8098573684692383 -13.365097999572754 0
   vertex -7.2263050079345703 -13.144599914550781 0
   vertex -6.8098573684692383 -13.365097999572754 1
  endloop
 endfacet
 facet normal 0.46793049404602599 0.88376527016048889 -0
  outer loop
   vertex -6.8098573684692383 -13.365097999572754 1
   vertex -7.2263050079345703 -13.144599914550781 0
   vertex -7.2263050079345703 -13.144599914550781 1
  endloop
 endfacet
 facet normal 0.49545899303976504 0.86863132928534303 0
  outer loop
   vertex -7.2263050079345703 -13.144599914550781 0
   vertex -7.6356210708618164 -12.911129951477051 0
   vertex -7.2263050079345703 -13.144599914550781 1
  endloop
 endfacet
 facet normal 0.49545899303976504 0.86863132928534303 -0
  outer loop
   vertex -7.2263050079345703 -13.144599914550781 1
   vertex -7.6356210708618164 -12.911129951477051 0
   vertex -7.6356210708618164 -12.911129951477051 1
  endloop
 endfacet
 facet normal 0.52249746645784956 0.85264083736654817 0
  outer loop
   vertex -7.6356210708618164 -12.911129951477051 0
   vertex -8.0374021530151367 -12.664918899536133 0
   vertex -7.6356210708618164 -12.911129951477051 1
  endloop
 endfacet
 facet normal 0.52249746645784956 0.85264083736654817 -0
  outer loop
   vertex -7.6356210708618164 -12.911129951477051 1
   vertex -8.0374021530151367 -12.664918899536133 0
   vertex -8.0374021530151367 -12.664918899536133 1
  endloop
 endfacet
 facet normal 0.54902259842384393 0.83580750560157724 0
  outer loop
   vertex -8.0374021530151367 -12.664918899536133 0
   vertex -8.4312505722045898 -12.406208992004395 0
   vertex -8.0374021530151367 -12.664918899536133 1
  endloop
 endfacet
 facet normal 0.54902259842384393 0.83580750560157724 -0
  outer loop
   vertex -8.0374021530151367 -12.664918899536133 1
   vertex -8.4312505722045898 -12.406208992004395 0
   vertex -8.4312505722045898 -12.406208992004395 1
  endloop
 endfacet
 facet normal 0.57500542084576967 0.8181495987886197 0
  outer loop
   vertex -8.4312505722045898 -12.406208992004395 0
   vertex -8.8167791366577148 -12.135254859924316 0
   vertex -8.4312505722045898 -12.406208992004395 1
  endloop
 endfacet
 facet normal 0.57500542084576967 0.8181495987886197 -0
  outer loop
   vertex -8.4312505722045898 -12.406208992004395 1
   vertex -8.8167791366577148 -12.135254859924316 0
   vertex -8.8167791366577148 -12.135254859924316 1
  endloop
 endfacet
 facet normal 0.60042055327672872 0.79968441225452624 0
  outer loop
   vertex -8.8167791366577148 -12.135254859924316 0
   vertex -9.1936054229736328 -11.852325439453125 0
   vertex -8.8167791366577148 -12.135254859924316 1
  endloop
 endfacet
 facet normal 0.60042055327672872 0.79968441225452624 -0
  outer loop
   vertex -8.8167791366577148 -12.135254859924316 1
   vertex -9.1936054229736328 -11.852325439453125 0
   vertex -9.1936054229736328 -11.852325439453125 1
  endloop
 endfacet
 facet normal 0.62524355183302927 0.78042968990884631 0
  outer loop
   vertex -9.1936054229736328 -11.852325439453125 0
   vertex -9.5613594055175781 -11.557698249816895 0
   vertex -9.1936054229736328 -11.852325439453125 1
  endloop
 endfacet
 facet normal 0.62524355183302927 0.78042968990884631 -0
  outer loop
   vertex -9.1936054229736328 -11.852325439453125 1
   vertex -9.5613594055175781 -11.557698249816895 0
   vertex -9.5613594055175781 -11.557698249816895 1
  endloop
 endfacet
 facet normal 0.6494473327805077 0.76040657673660628 0
  outer loop
   vertex -9.5613594055175781 -11.557698249816895 0
   vertex -9.919677734375 -11.251666069030762 0
   vertex -9.5613594055175781 -11.557698249816895 1
  endloop
 endfacet
 facet normal 0.6494473327805077 0.76040657673660628 -0
  outer loop
   vertex -9.5613594055175781 -11.557698249816895 1
   vertex -9.919677734375 -11.251666069030762 0
   vertex -9.919677734375 -11.251666069030762 1
  endloop
 endfacet
 facet normal 0.67301239886488362 0.7396311992974165 0
  outer loop
   vertex -9.919677734375 -11.251666069030762 0
   vertex -10.268206596374512 -10.934529304504395 0
   vertex -9.919677734375 -11.251666069030762 1
  endloop
 endfacet
 facet normal 0.67301239886488362 0.7396311992974165 -0
  outer loop
   vertex -9.919677734375 -11.251666069030762 1
   vertex -10.268206596374512 -10.934529304504395 0
   vertex -10.268206596374512 -10.934529304504395 1
  endloop
 endfacet
 facet normal 0.69591269342696893 0.71812639773734921 0
  outer loop
   vertex -10.268206596374512 -10.934529304504395 0
   vertex -10.606601715087891 -10.606601715087891 0
   vertex -10.268206596374512 -10.934529304504395 1
  endloop
 endfacet
 facet normal 0.69591269342696893 0.71812639773734921 -0
  outer loop
   vertex -10.268206596374512 -10.934529304504395 1
   vertex -10.606601715087891 -10.606601715087891 0
   vertex -10.606601715087891 -10.606601715087891 1
  endloop
 endfacet
 facet normal 0.71812639773734921 0.69591269342696893 0
  outer loop
   vertex -10.606601715087891 -10.606601715087891 0
   vertex -10.934529304504395 -10.268206596374512 0
   vertex -10.606601715087891 -10.606601715087891 1
  endloop
 endfacet
 facet normal 0.71812639773734921 0.69591269342696893 -0
  outer loop
   vertex -10.606601715087891 -10.606601715087891 1
   vertex -10.934529304504395 -10.268206596374512 0
   vertex -10.934529304504395 -10.268206596374512 1
  endloop
 endfacet
 facet normal 0.7396311992974165 0.67301239886488362 0
  outer loop
   vertex -10.934529304504395 -10.268206596374512 0
   vertex -11.251666069030762 -9.919677734375 0
   vertex -10.934529304504395 -10.268206596374512 1
  endloop
 endfacet
 facet normal 0.7396311992974165 0.67301239886488362 -0
  outer loop
   vertex -10.934529304504395 -10.268206596374512 1
   vertex -11.251666069030762 -9.919677734375 0
   vertex -11.251666069030762 -9.919677734375 1
  endloop
 endfacet
 facet normal 0.76040657673660628 0.6494473327805077 0
  outer loop
   vertex -11.251666069030762 -9.919677734375 0
   vertex -11.557698249816895 -9.5613594055175781 0
   vertex -11.251666069030762 -9.919677734375 1
  endloop
 endfacet
 facet normal 0.76040657673660628 0.6494473327805077 -0
  outer loop
   vertex -11.251666069030762 -9.919677734375 1
   vertex -11.557698249816895 -9.5613594055175781 0
   vertex -11.557698249816895 -9.5613594055175781 1
  endloop
 endfacet
 facet normal 0.78042968990884631 0.62524355183302927 0
  outer loop
   vertex -11.557698249816895 -9.5613594055175781 0
   vertex -11.852325439453125 -9.1936054229736328 0
   vertex -11.557698249816895 -9.5613594055175781 1
  endloop
 endfacet
 facet normal 0.78042968990884631 0.62524355183302927 -0
  outer loop
   vertex -11.557698249816895 -9.5613594055175781 1
   vertex -11.852325439453125 -9.1936054229736328 0
   vertex -11.852325439453125 -9.1936054229736328 1
  endloop
 endfacet
 facet normal 0.79968441225452624 0.60042055327672872 0
  outer loop
   vertex -11.852325439453125 -9.1936054229736328 0
   vertex -12.135254859924316 -8.8167791366577148 0
   vertex -11.852325439453125 -9.1936054229736328 1
  endloop
 endfacet
 facet normal 0.79968441225452624 0.60042055327672872 -0
  outer loop
   vertex -11.852325439453125 -9.1936054229736328 1
   vertex -12.135254859924316 -8.8167791366577148 0
   vertex -12.135254859924316 -8.8167791366577148 1
  endloop
 endfacet
 facet normal 0.8181495987886197 0.57500542084576967 0
  outer loop
   vertex -12.135254859924316 -8.8167791366577148 0
   vertex -12.406208992004395 -8.4312505722045898 0
   vertex -12.135254859924316 -8.8167791366577148 1
  endloop
 endfacet
 facet normal 0.8181495987886197 0.57500542084576967 -0
  outer loop
   vertex -12.135254859924316 -8.8167791366577148 1
   vertex -12.406208992004395 -8.4312505722045898 0
   vertex -12.406208992004395 -8.4312505722045898 1
  endloop
 endfacet
 facet normal 0.83580750560157724 0.54902259842384393 0
  outer loop
   vertex -12.406208992004395 -8.4312505722045898 0
   vertex -12.664918899536133 -8.0374021530151367 0
   vertex -12.406208992004395 -8.4312505722045898 1
  endloop
 endfacet
 facet normal 0.83580750560157724 0.54902259842384393 -0
  outer loop
   vertex -12.406208992004395 -8.4312505722045898 1
   vertex -12.664918899536133 -8.0374021530151367 0
   vertex -12.664918899536133 -8.0374021530151367 1
  endloop
 endfacet
 facet normal 0.85264083736654817 0.52249746645784956 0
  outer loop
   vertex -12.664918899536133 -8.0374021530151367 0
   vertex -12.911129951477051 -7.6356210708618164 0
   vertex -12.664918899536133 -8.0374021530151367 1
  endloop
 endfacet
 facet normal 0.85264083736654817 0.52249746645784956 -0
  outer loop
   vertex -12.664918899536133 -8.0374021530151367 1
   vertex -12.911129951477051 -7.6356210708618164 0
   vertex -12.911129951477051 -7.6356210708618164 1
  endloop
 endfacet
 facet normal 0.86863132928534303 0.49545899303976504 0
  outer loop
   vertex -12.911129951477051 -7.6356210708618164 0
   vertex -13.144599914550781 -7.2263050079345703 0
   vertex -12.911129951477051 -7.6356210708618164 1
  endloop
 endfacet
 facet normal 0.86863132928534303 0.49545899303976504 -0
  outer loop
   vertex -12.911129951477051 -7.6356210708618164 1
   vertex -13.144599914550781 -7.2263050079345703 0
   vertex -13.144599914550781 -7.2263050079345703 1
  endloop
 endfacet
 facet normal 0.88376527016048889 0.46793049404602599 0
  outer loop
   vertex -13.144599914550781 -7.2263050079345703 0
   vertex -13.365097999572754 -6.8098573684692383 0
   vertex -13.144599914550781 -7.2263050079345703 1
  endloop
 endfacet
 facet normal 0.88376527016048889 0.46793049404602599 -0
  outer loop
   vertex -13.144599914550781 -7.2263050079345703 1
   vertex -13.365097999572754 -6.8098573684692383 0
   vertex -13.365097999572754 -6.8098573684692383 1
  endloop
 endfacet
 facet normal 0.89802769136723393 0.43993893387336852 0
  outer loop
   vertex -13.365097999572754 -6.8098573684692383 0
   vertex -13.572405815124512 -6.3866891860961914 0
   vertex -13.365097999572754 -6.8098573684692383 1
  endloop
 endfacet
 facet normal 0.89802769136723393 0.43993893387336852 -0
  outer loop
   vertex -13.365097999572754 -6.8098573684692383 1
   vertex -13.572405815124512 -6.3866891860961914 0
   vertex -13.572405815124512 -6.3866891860961914 1
  endloop
 endfacet
 facet normal 0.91140338757443595 0.41151411290239176 0
  outer loop
   vertex -13.572405815124512 -6.3866891860961914 0
   vertex -13.766319274902344 -5.9572181701660156 0
   vertex -13.572405815124512 -6.3866891860961914 1
  endloop
 endfacet
 facet normal 0.91140338757443595 0.41151411290239176 -0
  outer loop
   vertex -13.572405815124512 -6.3866891860961914 1
   vertex -13.766319274902344 -5.9572181701660156 0
   vertex -13.766319274902344 -5.9572181701660156 1
  endloop
 endfacet
 facet normal 0.9238791430367389 0.38268437263847205 0
  outer loop
   vertex -13.766319274902344 -5.9572181701660156 0
   vertex -13.946647644042969 -5.5218682289123535 0
   vertex -13.766319274902344 -5.9572181701660156 1
  endloop
 endfacet
 facet normal 0.9238791430367389 0.38268437263847205 -0
  outer loop
   vertex -13.766319274902344 -5.9572181701660156 1
   vertex -13.946647644042969 -5.5218682289123535 0
   vertex -13.946647644042969 -5.5218682289123535 1
  endloop
 endfacet
 facet normal 0.93544414568440148 0.35347453982540278 0
  outer loop
   vertex -13.946647644042969 -5.5218682289123535 0
   vertex -14.113211631774902 -5.0810689926147461 0
   vertex -13.946647644042969 -5.5218682289123535 1
  endloop
 endfacet
 facet normal 0.93544414568440148 0.35347453982540278 -0
  outer loop
   vertex -13.946647644042969 -5.5218682289123535 1
   vertex -14.113211631774902 -5.0810689926147461 0
   vertex -14.113211631774902 -5.0810689926147461 1
  endloop
 endfacet
 facet normal 0.94608520655413275 0.32391786295205144 0
  outer loop
   vertex -14.113211631774902 -5.0810689926147461 0
   vertex -14.265848159790039 -4.6352548599243164 0
   vertex -14.113211631774902 -5.0810689926147461 1
  endloop
 endfacet
 facet normal 0.94608520655413275 0.32391786295205144 -0
  outer loop
   vertex -14.113211631774902 -5.0810689926147461 1
   vertex -14.265848159790039 -4.6352548599243164 0
   vertex -14.265848159790039 -4.6352548599243164 1
  endloop
 endfacet
 facet normal 0.95579309794582656 0.2940400549570068 0
  outer loop
   vertex -14.265848159790039 -4.6352548599243164 0
   vertex -14.40440559387207 -4.1848664283752441 0
   vertex -14.265848159790039 -4.6352548599243164 1
  endloop
 endfacet
 facet normal 0.95579309794582656 0.2940400549570068 -0
  outer loop
   vertex -14.265848159790039 -4.6352548599243164 1
   vertex -14.40440559387207 -4.1848664283752441 0
   vertex -14.40440559387207 -4.1848664283752441 1
  endloop
 endfacet
 facet normal 0.96455747863995545 0.26387282997635775 0
  outer loop
   vertex -14.40440559387207 -4.1848664283752441 0
   vertex -14.52874755859375 -3.7303483486175537 0
   vertex -14.40440559387207 -4.1848664283752441 1
  endloop
 endfacet
 facet normal 0.96455747863995545 0.26387282997635775 -0
  outer loop
   vertex -14.40440559387207 -4.1848664283752441 1
   vertex -14.52874755859375 -3.7303483486175537 0
   vertex -14.52874755859375 -3.7303483486175537 1
  endloop
 endfacet
 facet normal 0.97237018702113476 0.23344425328648247 0
  outer loop
   vertex -14.52874755859375 -3.7303483486175537 0
   vertex -14.638751029968262 -3.272148609161377 0
   vertex -14.52874755859375 -3.7303483486175537 1
  endloop
 endfacet
 facet normal 0.97237018702113476 0.23344425328648247 -0
  outer loop
   vertex -14.52874755859375 -3.7303483486175537 1
   vertex -14.638751029968262 -3.272148609161377 0
   vertex -14.638751029968262 -3.272148609161377 1
  endloop
 endfacet
 facet normal 0.97922245701952559 0.20278900282964879 0
  outer loop
   vertex -14.638751029968262 -3.272148609161377 0
   vertex -14.734309196472168 -2.8107197284698486 0
   vertex -14.638751029968262 -3.272148609161377 1
  endloop
 endfacet
 facet normal 0.97922245701952559 0.20278900282964879 -0
  outer loop
   vertex -14.638751029968262 -3.272148609161377 1
   vertex -14.734309196472168 -2.8107197284698486 0
   vertex -14.734309196472168 -2.8107197284698486 1
  endloop
 endfacet
 facet normal 0.98510959340969562 0.17192756897072697 0
  outer loop
   vertex -14.734309196472168 -2.8107197284698486 0
   vertex -14.815324783325195 -2.3465170860290527 0
   vertex -14.734309196472168 -2.8107197284698486 1
  endloop
 endfacet
 facet normal 0.98510959340969562 0.17192756897072697 -0
  outer loop
   vertex -14.734309196472168 -2.8107197284698486 1
   vertex -14.815324783325195 -2.3465170860290527 0
   vertex -14.815324783325195 -2.3465170860290527 1
  endloop
 endfacet
 facet normal 0.99002356155708893 0.14090190758757348 0
  outer loop
   vertex -14.815324783325195 -2.3465170860290527 0
   vertex -14.881720542907715 -1.8799984455108643 0
   vertex -14.815324783325195 -2.3465170860290527 1
  endloop
 endfacet
 facet normal 0.99002356155708893 0.14090190758757348 -0
  outer loop
   vertex -14.815324783325195 -2.3465170860290527 1
   vertex -14.881720542907715 -1.8799984455108643 0
   vertex -14.881720542907715 -1.8799984455108643 1
  endloop
 endfacet
 facet normal 0.99396090247357605 0.10973479099134492 0
  outer loop
   vertex -14.881720542907715 -1.8799984455108643 0
   vertex -14.933429718017578 -1.4116246700286865 0
   vertex -14.881720542907715 -1.8799984455108643 1
  endloop
 endfacet
 facet normal 0.99396090247357605 0.10973479099134492 -0
  outer loop
   vertex -14.881720542907715 -1.8799984455108643 1
   vertex -14.933429718017578 -1.4116246700286865 0
   vertex -14.933429718017578 -1.4116246700286865 1
  endloop
 endfacet
 facet normal 0.99691739367027632 0.078458334150446965 0
  outer loop
   vertex -14.933429718017578 -1.4116246700286865 0
   vertex -14.970400810241699 -0.94185781478881836 0
   vertex -14.933429718017578 -1.4116246700286865 1
  endloop
 endfacet
 facet normal 0.99691739367027632 0.078458334150446965 -0
  outer loop
   vertex -14.933429718017578 -1.4116246700286865 1
   vertex -14.970400810241699 -0.94185781478881836 0
   vertex -14.970400810241699 -0.94185781478881836 1
  endloop
 endfacet
 facet normal 0.99888985062416358 0.047106966788746971 0
  outer loop
   vertex -14.970400810241699 -0.94185781478881836 0
   vertex -14.992598533630371 -0.47116139531135559 0
   vertex -14.970400810241699 -0.94185781478881836 1
  endloop
 endfacet
 facet normal 0.99888985062416358 0.047106966788746971 -0
  outer loop
   vertex -14.970400810241699 -0.94185781478881836 1
   vertex -14.992598533630371 -0.47116139531135559 0
   vertex -14.992598533630371 -0.47116139531135559 1
  endloop
 endfacet
 facet normal 0.99987663675736171 0.015707045132266187 0
  outer loop
   vertex -14.992598533630371 -0.47116139531135559 0
   vertex -15 1.9065529184699934e-14 0
   vertex -14.992598533630371 -0.47116139531135559 1
  endloop
 endfacet
 facet normal 0.99987663675736171 0.015707045132266187 -0
  outer loop
   vertex -14.992598533630371 -0.47116139531135559 1
   vertex -15 1.9065529184699934e-14 0
   vertex -15 1.9065529184699934e-14 1
  endloop
 endfacet
 facet normal 0.9998766367573616 -0.015707045132267453 0
  outer loop
   vertex -15 1.9065529184699934e-14 0
   vertex -14.992598533630371 0.47116139531135559 0
   vertex -15 1.9065529184699934e-14 1
  endloop
 endfacet
 facet normal 0.9998766367573616 -0.015707045132267453 0
  outer loop
   vertex -15 1.9065529184699934e-14 1
   vertex -14.992598533630371 0.47116139531135559 0
   vertex -14.992598533630371 0.47116139531135559 1
  endloop
 endfacet
 facet normal 0.99888985062416358 -0.047106966788746971 0
  outer loop
   vertex -14.992598533630371 0.47116139531135559 0
   vertex -14.970400810241699 0.94185781478881836 0
   vertex -14.992598533630371 0.47116139531135559 1
  endloop
 endfacet
 facet normal 0.99888985062416358 -0.047106966788746971 0
  outer loop
   vertex -14.992598533630371 0.47116139531135559 1
   vertex -14.970400810241699 0.94185781478881836 0
   vertex -14.970400810241699 0.94185781478881836 1
  endloop
 endfacet
 facet normal 0.99691739367027632 -0.078458334150446965 0
  outer loop
   vertex -14.970400810241699 0.94185781478881836 0
   vertex -14.933429718017578 1.4116246700286865 0
   vertex -14.970400810241699 0.94185781478881836 1
  endloop
 endfacet
 facet normal 0.99691739367027632 -0.078458334150446965 0
  outer loop
   vertex -14.970400810241699 0.94185781478881836 1
   vertex -14.933429718017578 1.4116246700286865 0
   vertex -14.933429718017578 1.4116246700286865 1
  endloop
 endfacet
 facet normal 0.99396090247357605 -0.10973479099134492 0
  outer loop
   vertex -14.933429718017578 1.4116246700286865 0
   vertex -14.881720542907715 1.8799984455108643 0
   vertex -14.933429718017578 1.4116246700286865 1
  endloop
 endfacet
 facet normal 0.99396090247357605 -0.10973479099134492 0
  outer loop
   vertex -14.933429718017578 1.4116246700286865 1
   vertex -14.881720542907715 1.8799984455108643 0
   vertex -14.881720542907715 1.8799984455108643 1
  endloop
 endfacet
 facet normal 0.99002356155708893 -0.14090190758757348 0
  outer loop
   vertex -14.881720542907715 1.8799984455108643 0
   vertex -14.815324783325195 2.3465170860290527 0
   vertex -14.881720542907715 1.8799984455108643 1
  endloop
 endfacet
 facet normal 0.99002356155708893 -0.14090190758757348 0
  outer loop
   vertex -14.881720542907715 1.8799984455108643 1
   vertex -14.815324783325195 2.3465170860290527 0
   vertex -14.815324783325195 2.3465170860290527 1
  endloop
 endfacet
 facet normal 0.98510959340969562 -0.17192756897072697 0
  outer loop
   vertex -14.815324783325195 2.3465170860290527 0
   vertex -14.734309196472168 2.8107197284698486 0
   vertex -14.815324783325195 2.3465170860290527 1
  endloop
 endfacet
 facet normal 0.98510959340969562 -0.17192756897072697 0
  outer loop
   vertex -14.815324783325195 2.3465170860290527 1
   vertex -14.734309196472168 2.8107197284698486 0
   vertex -14.734309196472168 2.8107197284698486 1
  endloop
 endfacet
 facet normal 0.97922245701952559 -0.20278900282964879 0
  outer loop
   vertex -14.734309196472168 2.8107197284698486 0
   vertex -14.638751029968262 3.272148609161377 0
   vertex -14.734309196472168 2.8107197284698486 1
  endloop
 endfacet
 facet normal 0.97922245701952559 -0.20278900282964879 0
  outer loop
   vertex -14.734309196472168 2.8107197284698486 1
   vertex -14.638751029968262 3.272148609161377 0
   vertex -14.638751029968262 3.272148609161377 1
  endloop
 endfacet
 facet normal 0.97237018702113476 -0.23344425328648247 0
  outer loop
   vertex -14.638751029968262 3.272148609161377 0
   vertex -14.52874755859375 3.7303483486175537 0
   vertex -14.638751029968262 3.272148609161377 1
  endloop
 endfacet
 facet normal 0.97237018702113476 -0.23344425328648247 0
  outer loop
   vertex -14.638751029968262 3.272148609161377 1
   vertex -14.52874755859375 3.7303483486175537 0
   vertex -14.52874755859375 3.7303483486175537 1
  endloop
 endfacet
 facet normal 0.96455747863995545 -0.26387282997635775 0
  outer loop
   vertex -14.52874755859375 3.7303483486175537 0
   vertex -14.40440559387207 4.1848664283752441 0
   vertex -14.52874755859375 3.7303483486175537 1
  endloop
 endfacet
 facet normal 0.96455747863995545 -0.26387282997635775 0
  outer loop
   vertex -14.52874755859375 3.7303483486175537 1
   vertex -14.40440559387207 4.1848664283752441 0
   vertex -14.40440559387207 4.1848664283752441 1
  endloop
 endfacet
 facet normal 0.95579309794582656 -0.2940400549570068 0
  outer loop
   vertex -14.40440559387207 4.1848664283752441 0
   vertex -14.265848159790039 4.6352548599243164 0
   vertex -14.40440559387207 4.1848664283752441 1
  endloop
 endfacet
 facet normal 0.95579309794582656 -0.2940400549570068 0
  outer loop
   vertex -14.40440559387207 4.1848664283752441 1
   vertex -14.265848159790039 4.6352548599243164 0
   vertex -14.265848159790039 4.6352548599243164 1
  endloop
 endfacet
 facet normal 0.94608520655413275 -0.32391786295205144 0
  outer loop
   vertex -14.265848159790039 4.6352548599243164 0
   vertex -14.113211631774902 5.0810689926147461 0
   vertex -14.265848159790039 4.6352548599243164 1
  endloop
 endfacet
 facet normal 0.94608520655413275 -0.32391786295205144 0
  outer loop
   vertex -14.265848159790039 4.6352548599243164 1
   vertex -14.113211631774902 5.0810689926147461 0
   vertex -14.113211631774902 5.0810689926147461 1
  endloop
 endfacet
 facet normal 0.93544414568440148 -0.35347453982540278 0
  outer loop
   vertex -14.113211631774902 5.0810689926147461 0
   vertex -13.946647644042969 5.5218682289123535 0
   vertex -14.113211631774902 5.0810689926147461 1
  endloop
 endfacet
 facet normal 0.93544414568440148 -0.35347453982540278 0
  outer loop
   vertex -14.113211631774902 5.0810689926147461 1
   vertex -13.946647644042969 5.5218682289123535 0
   vertex -13.946647644042969 5.5218682289123535 1
  endloop
 endfacet
 facet normal 0.9238791430367389 -0.38268437263847205 0
  outer loop
   vertex -13.946647644042969 5.5218682289123535 0
   vertex -13.766319274902344 5.9572181701660156 0
   vertex -13.946647644042969 5.5218682289123535 1
  endloop
 endfacet
 facet normal 0.9238791430367389 -0.38268437263847205 0
  outer loop
   vertex -13.946647644042969 5.5218682289123535 1
   vertex -13.766319274902344 5.9572181701660156 0
   vertex -13.766319274902344 5.9572181701660156 1
  endloop
 endfacet
 facet normal 0.91140338757443595 -0.41151411290239176 0
  outer loop
   vertex -13.766319274902344 5.9572181701660156 0
   vertex -13.572405815124512 6.3866891860961914 0
   vertex -13.766319274902344 5.9572181701660156 1
  endloop
 endfacet
 facet normal 0.91140338757443595 -0.41151411290239176 0
  outer loop
   vertex -13.766319274902344 5.9572181701660156 1
   vertex -13.572405815124512 6.3866891860961914 0
   vertex -13.572405815124512 6.3866891860961914 1
  endloop
 endfacet
 facet normal 0.89802769136723393 -0.43993893387336852 0
  outer loop
   vertex -13.572405815124512 6.3866891860961914 0
   vertex -13.365097999572754 6.8098573684692383 0
   vertex -13.572405815124512 6.3866891860961914 1
  endloop
 endfacet
 facet normal 0.89802769136723393 -0.43993893387336852 0
  outer loop
   vertex -13.572405815124512 6.3866891860961914 1
   vertex -13.365097999572754 6.8098573684692383 0
   vertex -13.365097999572754 6.8098573684692383 1
  endloop
 endfacet
 facet normal 0.88376527016048889 -0.46793049404602599 0
  outer loop
   vertex -13.365097999572754 6.8098573684692383 0
   vertex -13.144599914550781 7.2263050079345703 0
   vertex -13.365097999572754 6.8098573684692383 1
  endloop
 endfacet
 facet normal 0.88376527016048889 -0.46793049404602599 0
  outer loop
   vertex -13.365097999572754 6.8098573684692383 1
   vertex -13.144599914550781 7.2263050079345703 0
   vertex -13.144599914550781 7.2263050079345703 1
  endloop
 endfacet
 facet normal 0.86863132928534303 -0.49545899303976504 0
  outer loop
   vertex -13.144599914550781 7.2263050079345703 0
   vertex -12.911129951477051 7.6356210708618164 0
   vertex -13.144599914550781 7.2263050079345703 1
  endloop
 endfacet
 facet normal 0.86863132928534303 -0.49545899303976504 0
  outer loop
   vertex -13.144599914550781 7.2263050079345703 1
   vertex -12.911129951477051 7.6356210708618164 0
   vertex -12.911129951477051 7.6356210708618164 1
  endloop
 endfacet
 facet normal 0.85264083736654817 -0.52249746645784956 0
  outer loop
   vertex -12.911129951477051 7.6356210708618164 0
   vertex -12.664918899536133 8.0374021530151367 0
   vertex -12.911129951477051 7.6356210708618164 1
  endloop
 endfacet
 facet normal 0.85264083736654817 -0.52249746645784956 0
  outer loop
   vertex -12.911129951477051 7.6356210708618164 1
   vertex -12.664918899536133 8.0374021530151367 0
   vertex -12.664918899536133 8.0374021530151367 1
  endloop
 endfacet
 facet normal 0.83580750560157724 -0.54902259842384393 0
  outer loop
   vertex -12.664918899536133 8.0374021530151367 0
   vertex -12.406208992004395 8.4312505722045898 0
   vertex -12.664918899536133 8.0374021530151367 1
  endloop
 endfacet
 facet normal 0.83580750560157724 -0.54902259842384393 0
  outer loop
   vertex -12.664918899536133 8.0374021530151367 1
   vertex -12.406208992004395 8.4312505722045898 0
   vertex -12.406208992004395 8.4312505722045898 1
  endloop
 endfacet
 facet normal 0.8181495987886197 -0.57500542084576967 0
  outer loop
   vertex -12.406208992004395 8.4312505722045898 0
   vertex -12.135254859924316 8.8167791366577148 0
   vertex -12.406208992004395 8.4312505722045898 1
  endloop
 endfacet
 facet normal 0.8181495987886197 -0.57500542084576967 0
  outer loop
   vertex -12.406208992004395 8.4312505722045898 1
   vertex -12.135254859924316 8.8167791366577148 0
   vertex -12.135254859924316 8.8167791366577148 1
  endloop
 endfacet
 facet normal 0.79968441225452624 -0.60042055327672872 0
  outer loop
   vertex -12.135254859924316 8.8167791366577148 0
   vertex -11.852325439453125 9.1936054229736328 0
   vertex -12.135254859924316 8.8167791366577148 1
  endloop
 endfacet
 facet normal 0.79968441225452624 -0.60042055327672872 0
  outer loop
   vertex -12.135254859924316 8.8167791366577148 1
   vertex -11.852325439453125 9.1936054229736328 0
   vertex -11.852325439453125 9.1936054229736328 1
  endloop
 endfacet
 facet normal 0.78042968990884631 -0.62524355183302927 0
  outer loop
   vertex -11.852325439453125 9.1936054229736328 0
   vertex -11.557698249816895 9.5613594055175781 0
   vertex -11.852325439453125 9.1936054229736328 1
  endloop
 endfacet
 facet normal 0.78042968990884631 -0.62524355183302927 0
  outer loop
   vertex -11.852325439453125 9.1936054229736328 1
   vertex -11.557698249816895 9.5613594055175781 0
   vertex -11.557698249816895 9.5613594055175781 1
  endloop
 endfacet
 facet normal 0.76040657673660628 -0.6494473327805077 0
  outer loop
   vertex -11.557698249816895 9.5613594055175781 0
   vertex -11.251666069030762 9.919677734375 0
   vertex -11.557698249816895 9.5613594055175781 1
  endloop
 endfacet
 facet normal 0.76040657673660628 -0.6494473327805077 0
  outer loop
   vertex -11.557698249816895 9.5613594055175781 1
   vertex -11.251666069030762 9.919677734375 0
   vertex -11.251666069030762 9.919677734375 1
  endloop
 endfacet
 facet normal 0.7396311992974165 -0.67301239886488362 0
  outer loop
   vertex -11.251666069030762 9.919677734375 0
   vertex -10.934529304504395 10.268206596374512 0
   vertex -11.251666069030762 9.919677734375 1
  endloop
 endfacet
 facet normal 0.7396311992974165 -0.67301239886488362 0
  outer loop
   vertex -11.251666069030762 9.919677734375 1
   vertex -10.934529304504395 10.268206596374512 0
   vertex -10.934529304504395 10.268206596374512 1
  endloop
 endfacet
 facet normal 0.71812639773734921 -0.69591269342696893 0
  outer loop
   vertex -10.934529304504395 10.268206596374512 0
   vertex -10.606601715087891 10.606601715087891 0
   vertex -10.934529304504395 10.268206596374512 1
  endloop
 endfacet
 facet normal 0.71812639773734921 -0.69591269342696893 0
  outer loop
   vertex -10.934529304504395 10.268206596374512 1
   vertex -10.606601715087891 10.606601715087891 0
   vertex -10.606601715087891 10.606601715087891 1
  endloop
 endfacet
 facet normal 0.69591269342696893 -0.71812639773734921 0
  outer loop
   vertex -10.606601715087891 10.606601715087891 0
   vertex -10.268206596374512 10.934529304504395 0
   vertex -10.606601715087891 10.606601715087891 1
  endloop
 endfacet
 facet normal 0.69591269342696893 -0.71812639773734921 0
  outer loop
   vertex -10.606601715087891 10.606601715087891 1
   vertex -10.268206596374512 10.934529304504395 0
   vertex -10.268206596374512 10.934529304504395 1
  endloop
 endfacet
 facet normal 0.67301239886488362 -0.7396311992974165 0
  outer loop
   vertex -10.268206596374512 10.934529304504395 0
   vertex -9.919677734375 11.251666069030762 0
   vertex -10.268206596374512 10.934529304504395 1
  endloop
 endfacet
 facet normal 0.67301239886488362 -0.7396311992974165 0
  outer loop
   vertex -10.268206596374512 10.934529304504395 1
   vertex -9.919677734375 11.251666069030762 0
   vertex -9.919677734375 11.251666069030762 1
  endloop
 endfacet
 facet normal 0.6494473327805077 -0.76040657673660628 0
  outer loop
   vertex -9.919677734375 11.251666069030762 0
   vertex -9.5613594055175781 11.557698249816895 0
   vertex -9.919677734375 11.251666069030762 1
  endloop
 endfacet
 facet normal 0.6494473327805077 -0.76040657673660628 0
  outer loop
   vertex -9.919677734375 11.251666069030762 1
   vertex -9.5613594055175781 11.557698249816895 0
   vertex -9.5613594055175781 11.557698249816895 1
  endloop
 endfacet
 facet normal 0.62524355183302927 -0.78042968990884631 0
  outer loop
   vertex -9.5613594055175781 11.557698249816895 0
   vertex -9.1936054229736328 11.852325439453125 0
   vertex -9.5613594055175781 11.557698249816895 1
  endloop
 endfacet
 facet normal 0.62524355183302927 -0.78042968990884631 0
  outer loop
   vertex -9.5613594055175781 11.557698249816895 1
   vertex -9.1936054229736328 11.852325439453125 0
   vertex -9.1936054229736328 11.852325439453125 1
  endloop
 endfacet
 facet normal 0.60042055327672872 -0.79968441225452624 0
  outer loop
   vertex -9.1936054229736328 11.852325439453125 0
   vertex -8.8167791366577148 12.135254859924316 0
   vertex -9.1936054229736328 11.852325439453125 1
  endloop
 endfacet
 facet normal 0.60042055327672872 -0.79968441225452624 0
  outer loop
   vertex -9.1936054229736328 11.852325439453125 1
   vertex -8.8167791366577148 12.135254859924316 0
   vertex -8.8167791366577148 12.135254859924316 1
  endloop
 endfacet
 facet normal 0.57500542084576967 -0.8181495987886197 0
  outer loop
   vertex -8.8167791366577148 12.135254859924316 0
   vertex -8.4312505722045898 12.406208992004395 0
   vertex -8.8167791366577148 12.135254859924316 1
  endloop
 endfacet
 facet normal 0.57500542084576967 -0.8181495987886197 0
  outer loop
   vertex -8.8167791366577148 12.135254859924316 1
   vertex -8.4312505722045898 12.406208992004395 0
   vertex -8.4312505722045898 12.406208992004395 1
  endloop
 endfacet
 facet normal 0.54902259842384393 -0.83580750560157724 0
  outer loop
   vertex -8.4312505722045898 12.406208992004395 0
   vertex -8.0374021530151367 12.664918899536133 0
   vertex -8.4312505722045898 12.406208992004395 1
  endloop
 endfacet
 facet normal 0.54902259842384393 -0.83580750560157724 0
  outer loop
   vertex -8.4312505722045898 12.406208992004395 1
   vertex -8.0374021530151367 12.664918899536133 0
   vertex -8.0374021530151367 12.664918899536133 1
  endloop
 endfacet
 facet normal 0.52249746645784956 -0.85264083736654817 0
  outer loop
   vertex -8.0374021530151367 12.664918899536133 0
   vertex -7.6356210708618164 12.911129951477051 0
   vertex -8.0374021530151367 12.664918899536133 1
  endloop
 endfacet
 facet normal 0.52249746645784956 -0.85264083736654817 0
  outer loop
   vertex -8.0374021530151367 12.664918899536133 1
   vertex -7.6356210708618164 12.911129951477051 0
   vertex -7.6356210708618164 12.911129951477051 1
  endloop
 endfacet
 facet normal 0.49545899303976504 -0.86863132928534303 0
  outer loop
   vertex -7.6356210708618164 12.911129951477051 0
   vertex -7.2263050079345703 13.144599914550781 0
   vertex -7.6356210708618164 12.911129951477051 1
  endloop
 endfacet
 facet normal 0.49545899303976504 -0.86863132928534303 0
  outer loop
   vertex -7.6356210708618164 12.911129951477051 1
   vertex -7.2263050079345703 13.144599914550781 0
   vertex -7.2263050079345703 13.144599914550781 1
  endloop
 endfacet
 facet normal 0.46793049404602599 -0.88376527016048889 0
  outer loop
   vertex -7.2263050079345703 13.144599914550781 0
   vertex -6.8098573684692383 13.365097999572754 0
   vertex -7.2263050079345703 13.144599914550781 1
  endloop
 endfacet
 facet normal 0.46793049404602599 -0.88376527016048889 0
  outer loop
   vertex -7.2263050079345703 13.144599914550781 1
   vertex -6.8098573684692383 13.365097999572754 0
   vertex -6.8098573684692383 13.365097999572754 1
  endloop
 endfacet
 facet normal 0.43993893387336852 -0.89802769136723393 0
  outer loop
   vertex -6.8098573684692383 13.365097999572754 0
   vertex -6.3866891860961914 13.572405815124512 0
   vertex -6.8098573684692383 13.365097999572754 1
  endloop
 endfacet
 facet normal 0.43993893387336852 -0.89802769136723393 0
  outer loop
   vertex -6.8098573684692383 13.365097999572754 1
   vertex -6.3866891860961914 13.572405815124512 0
   vertex -6.3866891860961914 13.572405815124512 1
  endloop
 endfacet
 facet normal 0.41151411290239176 -0.91140338757443595 0
  outer loop
   vertex -6.3866891860961914 13.572405815124512 0
   vertex -5.9572181701660156 13.766319274902344 0
   vertex -6.3866891860961914 13.572405815124512 1
  endloop
 endfacet
 facet normal 0.41151411290239176 -0.91140338757443595 0
  outer loop
   vertex -6.3866891860961914 13.572405815124512 1
   vertex -5.9572181701660156 13.766319274902344 0
   vertex -5.9572181701660156 13.766319274902344 1
  endloop
 endfacet
 facet normal 0.38268437263847205 -0.9238791430367389 0
  outer loop
   vertex -5.9572181701660156 13.766319274902344 0
   vertex -5.5218682289123535 13.946647644042969 0
   vertex -5.9572181701660156 13.766319274902344 1
  endloop
 endfacet
 facet normal 0.38268437263847205 -0.9238791430367389 0
  outer loop
   vertex -5.9572181701660156 13.766319274902344 1
   vertex -5.5218682289123535 13.946647644042969 0
   vertex -5.5218682289123535 13.946647644042969 1
  endloop
 endfacet
 facet normal 0.35347453982540278 -0.93544414568440148 0
  outer loop
   vertex -5.5218682289123535 13.946647644042969 0
   vertex -5.0810689926147461 14.113211631774902 0
   vertex -5.5218682289123535 13.946647644042969 1
  endloop
 endfacet
 facet normal 0.35347453982540278 -0.93544414568440148 0
  outer loop
   vertex -5.5218682289123535 13.946647644042969 1
   vertex -5.0810689926147461 14.113211631774902 0
   vertex -5.0810689926147461 14.113211631774902 1
  endloop
 endfacet
 facet normal 0.32391786295205144 -0.94608520655413275 0
  outer loop
   vertex -5.0810689926147461 14.113211631774902 0
   vertex -4.6352548599243164 14.265848159790039 0
   vertex -5.0810689926147461 14.113211631774902 1
  endloop
 endfacet
 facet normal 0.32391786295205144 -0.94608520655413275 0
  outer loop
   vertex -5.0810689926147461 14.113211631774902 1
   vertex -4.6352548599243164 14.265848159790039 0
   vertex -4.6352548599243164 14.265848159790039 1
  endloop
 endfacet
 facet normal 0.2940400549570068 -0.95579309794582656 0
  outer loop
   vertex -4.6352548599243164 14.265848159790039 0
   vertex -4.1848664283752441 14.40440559387207 0
   vertex -4.6352548599243164 14.265848159790039 1
  endloop
 endfacet
 facet normal 0.2940400549570068 -0.95579309794582656 0
  outer loop
   vertex -4.6352548599243164 14.265848159790039 1
   vertex -4.1848664283752441 14.40440559387207 0
   vertex -4.1848664283752441 14.40440559387207 1
  endloop
 endfacet
 facet normal 0.26387282997635775 -0.96455747863995545 0
  outer loop
   vertex -4.1848664283752441 14.40440559387207 0
   vertex -3.7303483486175537 14.52874755859375 0
   vertex -4.1848664283752441 14.40440559387207 1
  endloop
 endfacet
 facet normal 0.26387282997635775 -0.96455747863995545 0
  outer loop
   vertex -4.1848664283752441 14.40440559387207 1
   vertex -3.7303483486175537 14.52874755859375 0
   vertex -3.7303483486175537 14.52874755859375 1
  endloop
 endfacet
 facet normal 0.23344425328648247 -0.97237018702113476 0
  outer loop
   vertex -3.7303483486175537 14.52874755859375 0
   vertex -3.272148609161377 14.638751029968262 0
   vertex -3.7303483486175537 14.52874755859375 1
  endloop
 endfacet
 facet normal 0.23344425328648247 -0.97237018702113476 0
  outer loop
   vertex -3.7303483486175537 14.52874755859375 1
   vertex -3.272148609161377 14.638751029968262 0
   vertex -3.272148609161377 14.638751029968262 1
  endloop
 endfacet
 facet normal 0.20278900282964879 -0.97922245701952559 0
  outer loop
   vertex -3.272148609161377 14.638751029968262 0
   vertex -2.8107197284698486 14.734309196472168 0
   vertex -3.272148609161377 14.638751029968262 1
  endloop
 endfacet
 facet normal 0.20278900282964879 -0.97922245701952559 0
  outer loop
   vertex -3.272148609161377 14.638751029968262 1
   vertex -2.8107197284698486 14.734309196472168 0
   vertex -2.8107197284698486 14.734309196472168 1
  endloop
 endfacet
 facet normal 0.17192756897072697 -0.98510959340969562 0
  outer loop
   vertex -2.8107197284698486 14.734309196472168 0
   vertex -2.3465170860290527 14.815324783325195 0
   vertex -2.8107197284698486 14.734309196472168 1
  endloop
 endfacet
 facet normal 0.17192756897072697 -0.98510959340969562 0
  outer loop
   vertex -2.8107197284698486 14.734309196472168 1
   vertex -2.3465170860290527 14.815324783325195 0
   vertex -2.3465170860290527 14.815324783325195 1
  endloop
 endfacet
 facet normal 0.14090190758757348 -0.99002356155708893 0
  outer loop
   vertex -2.3465170860290527 14.815324783325195 0
   vertex -1.8799984455108643 14.881720542907715 0
   vertex -2.3465170860290527 14.815324783325195 1
  endloop
 endfacet
 facet normal 0.14090190758757348 -0.99002356155708893 0
  outer loop
   vertex -2.3465170860290527 14.815324783325195 1
   vertex -1.8799984455108643 14.881720542907715 0
   vertex -1.8799984455108643 14.881720542907715 1
  endloop
 endfacet
 facet normal 0.10973479099134492 -0.99396090247357605 0
  outer loop
   vertex -1.8799984455108643 14.881720542907715 0
   vertex -1.4116246700286865 14.933429718017578 0
   vertex -1.8799984455108643 14.881720542907715 1
  endloop
 endfacet
 facet normal 0.10973479099134492 -0.99396090247357605 0
  outer loop
   vertex -1.8799984455108643 14.881720542907715 1
   vertex -1.4116246700286865 14.933429718017578 0
   vertex -1.4116246700286865 14.933429718017578 1
  endloop
 endfacet
 facet normal 0.078458334150446965 -0.99691739367027632 0
  outer loop
   vertex -1.4116246700286865 14.933429718017578 0
   vertex -0.94185781478881836 14.970400810241699 0
   vertex -1.4116246700286865 14.933429718017578 1
  endloop
 endfacet
 facet normal 0.078458334150446965 -0.99691739367027632 0
  outer loop
   vertex -1.4116246700286865 14.933429718017578 1
   vertex -0.94185781478881836 14.970400810241699 0
   vertex -0.94185781478881836 14.970400810241699 1
  endloop
 endfacet
 facet normal 0.047106966788746971 -0.99888985062416358 0
  outer loop
   vertex -0.94185781478881836 14.970400810241699 0
   vertex -0.47116139531135559 14.992598533630371 0
   vertex -0.94185781478881836 14.970400810241699 1
  endloop
 endfacet
 facet normal 0.047106966788746971 -0.99888985062416358 0
  outer loop
   vertex -0.94185781478881836 14.970400810241699 1
   vertex -0.47116139531135559 14.992598533630371 0
   vertex -0.47116139531135559 14.992598533630371 1
  endloop
 endfacet
 facet normal 0.015707045132269098 -0.9998766367573616 0
  outer loop
   vertex -0.47116139531135559 14.992598533630371 0
   vertex -6.8450351994615161e-14 15 0
   vertex -0.47116139531135559 14.992598533630371 1
  endloop
 endfacet
 facet normal 0.015707045132269098 -0.9998766367573616 0
  outer loop
   vertex -0.47116139531135559 14.992598533630371 1
   vertex -6.8450351994615161e-14 15 0
   vertex -6.8450351994615161e-14 15 1
  endloop
 endfacet
endsolid Inlet 
