solid Visualization Toolkit generated SLA File
 facet normal 0.99950654058404043 0.031411388535434293 0
  outer loop
   vertex 3 0 0
   vertex 2.9940800666809082 0.18837155401706696 0
   vertex 3 0 1
  endloop
 endfacet
 facet normal 0.99950654058404043 0.031411388535434293 -0
  outer loop
   vertex 3 0 1
   vertex 2.9940800666809082 0.18837155401706696 0
   vertex 2.9940800666809082 0.18837155401706696 1
  endloop
 endfacet
 facet normal 0.9955620255398262 0.094107668672848144 0
  outer loop
   vertex 2.9940800666809082 0.18837155401706696 0
   vertex 2.976344108581543 0.37599968910217285 0
   vertex 2.9940800666809082 0.18837155401706696 1
  endloop
 endfacet
 facet normal 0.9955620255398262 0.094107668672848144 -0
  outer loop
   vertex 2.9940800666809082 0.18837155401706696 1
   vertex 2.976344108581543 0.37599968910217285 0
   vertex 2.976344108581543 0.37599968910217285 1
  endloop
 endfacet
 facet normal 0.98768832868237799 0.15643454025441772 0
  outer loop
   vertex 2.976344108581543 0.37599968910217285 0
   vertex 2.946861743927002 0.56214392185211182 0
   vertex 2.976344108581543 0.37599968910217285 1
  endloop
 endfacet
 facet normal 0.98768832868237799 0.15643454025441772 -0
  outer loop
   vertex 2.976344108581543 0.37599968910217285 1
   vertex 2.946861743927002 0.56214392185211182 0
   vertex 2.946861743927002 0.56214392185211182 1
  endloop
 endfacet
 facet normal 0.97591686474513506 0.21814278146669361 0
  outer loop
   vertex 2.946861743927002 0.56214392185211182 0
   vertex 2.9057495594024658 0.74606966972351074 0
   vertex 2.946861743927002 0.56214392185211182 1
  endloop
 endfacet
 facet normal 0.97591686474513506 0.21814278146669361 -0
  outer loop
   vertex 2.946861743927002 0.56214392185211182 1
   vertex 2.9057495594024658 0.74606966972351074 0
   vertex 2.9057495594024658 0.74606966972351074 1
  endloop
 endfacet
 facet normal 0.96029343133702127 0.27899198148149301 0
  outer loop
   vertex 2.9057495594024658 0.74606966972351074 0
   vertex 2.8531694412231445 0.92705100774765015 0
   vertex 2.9057495594024658 0.74606966972351074 1
  endloop
 endfacet
 facet normal 0.96029343133702127 0.27899198148149301 -0
  outer loop
   vertex 2.9057495594024658 0.74606966972351074 1
   vertex 2.8531694412231445 0.92705100774765015 0
   vertex 2.8531694412231445 0.92705100774765015 1
  endloop
 endfacet
 facet normal 0.94088107790152031 0.33873706210993976 0
  outer loop
   vertex 2.8531694412231445 0.92705100774765015 0
   vertex 2.7893295288085938 1.1043736934661865 0
   vertex 2.8531694412231445 0.92705100774765015 1
  endloop
 endfacet
 facet normal 0.94088107790152031 0.33873706210993976 -0
  outer loop
   vertex 2.8531694412231445 0.92705100774765015 1
   vertex 2.7893295288085938 1.1043736934661865 0
   vertex 2.7893295288085938 1.1043736934661865 1
  endloop
 endfacet
 facet normal 0.91775440561707122 0.39714839917901767 0
  outer loop
   vertex 2.7893295288085938 1.1043736934661865 0
   vertex 2.7144811153411865 1.277337908744812 0
   vertex 2.7893295288085938 1.1043736934661865 1
  endloop
 endfacet
 facet normal 0.91775440561707122 0.39714839917901767 -0
  outer loop
   vertex 2.7893295288085938 1.1043736934661865 1
   vertex 2.7144811153411865 1.277337908744812 0
   vertex 2.7144811153411865 1.277337908744812 1
  endloop
 endfacet
 facet normal 0.89100663643596711 0.45399027944116216 0
  outer loop
   vertex 2.7144811153411865 1.277337908744812 0
   vertex 2.6289200782775879 1.4452610015869141 0
   vertex 2.7144811153411865 1.277337908744812 1
  endloop
 endfacet
 facet normal 0.89100663643596711 0.45399027944116216 -0
  outer loop
   vertex 2.7144811153411865 1.277337908744812 1
   vertex 2.6289200782775879 1.4452610015869141 0
   vertex 2.6289200782775879 1.4452610015869141 1
  endloop
 endfacet
 facet normal 0.86074200471947815 0.50904145343134266 0
  outer loop
   vertex 2.6289200782775879 1.4452610015869141 0
   vertex 2.5329837799072266 1.6074804067611694 0
   vertex 2.6289200782775879 1.4452610015869141 1
  endloop
 endfacet
 facet normal 0.86074200471947815 0.50904145343134266 -0
  outer loop
   vertex 2.6289200782775879 1.4452610015869141 1
   vertex 2.5329837799072266 1.6074804067611694 0
   vertex 2.5329837799072266 1.6074804067611694 1
  endloop
 endfacet
 facet normal 0.8270806953002604 0.56208319976818177 0
  outer loop
   vertex 2.5329837799072266 1.6074804067611694 0
   vertex 2.4270510673522949 1.7633557319641113 0
   vertex 2.5329837799072266 1.6074804067611694 1
  endloop
 endfacet
 facet normal 0.8270806953002604 0.56208319976818177 -0
  outer loop
   vertex 2.5329837799072266 1.6074804067611694 1
   vertex 2.4270510673522949 1.7633557319641113 0
   vertex 2.4270510673522949 1.7633557319641113 1
  endloop
 endfacet
 facet normal 0.79015465862867007 0.61290750970061536 0
  outer loop
   vertex 2.4270510673522949 1.7633557319641113 0
   vertex 2.3115396499633789 1.9122719764709473 0
   vertex 2.4270510673522949 1.7633557319641113 1
  endloop
 endfacet
 facet normal 0.79015465862867007 0.61290750970061536 -0
  outer loop
   vertex 2.4270510673522949 1.7633557319641113 1
   vertex 2.3115396499633789 1.9122719764709473 0
   vertex 2.3115396499633789 1.9122719764709473 1
  endloop
 endfacet
 facet normal 0.75011120635125184 0.66131171024432178 0
  outer loop
   vertex 2.3115396499633789 1.9122719764709473 0
   vertex 2.1869058609008789 2.0536413192749023 0
   vertex 2.3115396499633789 1.9122719764709473 1
  endloop
 endfacet
 facet normal 0.75011120635125184 0.66131171024432178 -0
  outer loop
   vertex 2.3115396499633789 1.9122719764709473 1
   vertex 2.1869058609008789 2.0536413192749023 0
   vertex 2.1869058609008789 2.0536413192749023 1
  endloop
 endfacet
 facet normal 0.70710678118654746 0.70710678118654746 0
  outer loop
   vertex 2.1869058609008789 2.0536413192749023 0
   vertex 2.0536413192749023 2.1869058609008789 0
   vertex 2.1869058609008789 2.0536413192749023 1
  endloop
 endfacet
 facet normal 0.70710678118654746 0.70710678118654746 -0
  outer loop
   vertex 2.1869058609008789 2.0536413192749023 1
   vertex 2.0536413192749023 2.1869058609008789 0
   vertex 2.0536413192749023 2.1869058609008789 1
  endloop
 endfacet
 facet normal 0.66131171024432178 0.75011120635125184 0
  outer loop
   vertex 2.0536413192749023 2.1869058609008789 0
   vertex 1.9122719764709473 2.3115396499633789 0
   vertex 2.0536413192749023 2.1869058609008789 1
  endloop
 endfacet
 facet normal 0.66131171024432178 0.75011120635125184 -0
  outer loop
   vertex 2.0536413192749023 2.1869058609008789 1
   vertex 1.9122719764709473 2.3115396499633789 0
   vertex 1.9122719764709473 2.3115396499633789 1
  endloop
 endfacet
 facet normal 0.61290750970061536 0.79015465862867007 0
  outer loop
   vertex 1.9122719764709473 2.3115396499633789 0
   vertex 1.7633557319641113 2.4270510673522949 0
   vertex 1.9122719764709473 2.3115396499633789 1
  endloop
 endfacet
 facet normal 0.61290750970061536 0.79015465862867007 -0
  outer loop
   vertex 1.9122719764709473 2.3115396499633789 1
   vertex 1.7633557319641113 2.4270510673522949 0
   vertex 1.7633557319641113 2.4270510673522949 1
  endloop
 endfacet
 facet normal 0.56208319976818177 0.8270806953002604 0
  outer loop
   vertex 1.7633557319641113 2.4270510673522949 0
   vertex 1.6074804067611694 2.5329837799072266 0
   vertex 1.7633557319641113 2.4270510673522949 1
  endloop
 endfacet
 facet normal 0.56208319976818177 0.8270806953002604 -0
  outer loop
   vertex 1.7633557319641113 2.4270510673522949 1
   vertex 1.6074804067611694 2.5329837799072266 0
   vertex 1.6074804067611694 2.5329837799072266 1
  endloop
 endfacet
 facet normal 0.50904145343134266 0.86074200471947815 0
  outer loop
   vertex 1.6074804067611694 2.5329837799072266 0
   vertex 1.4452610015869141 2.6289200782775879 0
   vertex 1.6074804067611694 2.5329837799072266 1
  endloop
 endfacet
 facet normal 0.50904145343134266 0.86074200471947815 -0
  outer loop
   vertex 1.6074804067611694 2.5329837799072266 1
   vertex 1.4452610015869141 2.6289200782775879 0
   vertex 1.4452610015869141 2.6289200782775879 1
  endloop
 endfacet
 facet normal 0.45399027944116216 0.89100663643596711 0
  outer loop
   vertex 1.4452610015869141 2.6289200782775879 0
   vertex 1.277337908744812 2.7144811153411865 0
   vertex 1.4452610015869141 2.6289200782775879 1
  endloop
 endfacet
 facet normal 0.45399027944116216 0.89100663643596711 -0
  outer loop
   vertex 1.4452610015869141 2.6289200782775879 1
   vertex 1.277337908744812 2.7144811153411865 0
   vertex 1.277337908744812 2.7144811153411865 1
  endloop
 endfacet
 facet normal 0.39714839917901767 0.91775440561707122 0
  outer loop
   vertex 1.277337908744812 2.7144811153411865 0
   vertex 1.1043736934661865 2.7893295288085938 0
   vertex 1.277337908744812 2.7144811153411865 1
  endloop
 endfacet
 facet normal 0.39714839917901767 0.91775440561707122 -0
  outer loop
   vertex 1.277337908744812 2.7144811153411865 1
   vertex 1.1043736934661865 2.7893295288085938 0
   vertex 1.1043736934661865 2.7893295288085938 1
  endloop
 endfacet
 facet normal 0.33873706210993976 0.94088107790152031 0
  outer loop
   vertex 1.1043736934661865 2.7893295288085938 0
   vertex 0.92705100774765015 2.8531694412231445 0
   vertex 1.1043736934661865 2.7893295288085938 1
  endloop
 endfacet
 facet normal 0.33873706210993976 0.94088107790152031 -0
  outer loop
   vertex 1.1043736934661865 2.7893295288085938 1
   vertex 0.92705100774765015 2.8531694412231445 0
   vertex 0.92705100774765015 2.8531694412231445 1
  endloop
 endfacet
 facet normal 0.27899198148149301 0.96029343133702127 0
  outer loop
   vertex 0.92705100774765015 2.8531694412231445 0
   vertex 0.74606966972351074 2.9057495594024658 0
   vertex 0.92705100774765015 2.8531694412231445 1
  endloop
 endfacet
 facet normal 0.27899198148149301 0.96029343133702127 -0
  outer loop
   vertex 0.92705100774765015 2.8531694412231445 1
   vertex 0.74606966972351074 2.9057495594024658 0
   vertex 0.74606966972351074 2.9057495594024658 1
  endloop
 endfacet
 facet normal 0.21814278146669361 0.97591686474513506 0
  outer loop
   vertex 0.74606966972351074 2.9057495594024658 0
   vertex 0.56214392185211182 2.946861743927002 0
   vertex 0.74606966972351074 2.9057495594024658 1
  endloop
 endfacet
 facet normal 0.21814278146669361 0.97591686474513506 -0
  outer loop
   vertex 0.74606966972351074 2.9057495594024658 1
   vertex 0.56214392185211182 2.946861743927002 0
   vertex 0.56214392185211182 2.946861743927002 1
  endloop
 endfacet
 facet normal 0.15643454025441772 0.98768832868237799 0
  outer loop
   vertex 0.56214392185211182 2.946861743927002 0
   vertex 0.37599968910217285 2.976344108581543 0
   vertex 0.56214392185211182 2.946861743927002 1
  endloop
 endfacet
 facet normal 0.15643454025441772 0.98768832868237799 -0
  outer loop
   vertex 0.56214392185211182 2.946861743927002 1
   vertex 0.37599968910217285 2.976344108581543 0
   vertex 0.37599968910217285 2.976344108581543 1
  endloop
 endfacet
 facet normal 0.094107668672848144 0.9955620255398262 0
  outer loop
   vertex 0.37599968910217285 2.976344108581543 0
   vertex 0.18837155401706696 2.9940800666809082 0
   vertex 0.37599968910217285 2.976344108581543 1
  endloop
 endfacet
 facet normal 0.094107668672848144 0.9955620255398262 -0
  outer loop
   vertex 0.37599968910217285 2.976344108581543 1
   vertex 0.18837155401706696 2.9940800666809082 0
   vertex 0.18837155401706696 2.9940800666809082 1
  endloop
 endfacet
 facet normal 0.031411388535434209 0.99950654058404043 0
  outer loop
   vertex 0.18837155401706696 2.9940800666809082 0
   vertex -4.8243677365242895e-16 3 0
   vertex 0.18837155401706696 2.9940800666809082 1
  endloop
 endfacet
 facet normal 0.031411388535434209 0.99950654058404043 -0
  outer loop
   vertex 0.18837155401706696 2.9940800666809082 1
   vertex -4.8243677365242895e-16 3 0
   vertex -4.8243677365242895e-16 3 1
  endloop
 endfacet
 facet normal -0.031411388535434369 0.99950654058404043 0
  outer loop
   vertex -4.8243677365242895e-16 3 0
   vertex -0.18837155401706696 2.9940800666809082 0
   vertex -4.8243677365242895e-16 3 1
  endloop
 endfacet
 facet normal -0.031411388535434369 0.99950654058404043 0
  outer loop
   vertex -4.8243677365242895e-16 3 1
   vertex -0.18837155401706696 2.9940800666809082 0
   vertex -0.18837155401706696 2.9940800666809082 1
  endloop
 endfacet
 facet normal -0.094107668672848144 0.9955620255398262 0
  outer loop
   vertex -0.18837155401706696 2.9940800666809082 0
   vertex -0.37599968910217285 2.976344108581543 0
   vertex -0.18837155401706696 2.9940800666809082 1
  endloop
 endfacet
 facet normal -0.094107668672848144 0.9955620255398262 0
  outer loop
   vertex -0.18837155401706696 2.9940800666809082 1
   vertex -0.37599968910217285 2.976344108581543 0
   vertex -0.37599968910217285 2.976344108581543 1
  endloop
 endfacet
 facet normal -0.15643454025441772 0.98768832868237799 0
  outer loop
   vertex -0.37599968910217285 2.976344108581543 0
   vertex -0.56214392185211182 2.946861743927002 0
   vertex -0.37599968910217285 2.976344108581543 1
  endloop
 endfacet
 facet normal -0.15643454025441772 0.98768832868237799 0
  outer loop
   vertex -0.37599968910217285 2.976344108581543 1
   vertex -0.56214392185211182 2.946861743927002 0
   vertex -0.56214392185211182 2.946861743927002 1
  endloop
 endfacet
 facet normal -0.21814278146669361 0.97591686474513506 0
  outer loop
   vertex -0.56214392185211182 2.946861743927002 0
   vertex -0.74606966972351074 2.9057495594024658 0
   vertex -0.56214392185211182 2.946861743927002 1
  endloop
 endfacet
 facet normal -0.21814278146669361 0.97591686474513506 0
  outer loop
   vertex -0.56214392185211182 2.946861743927002 1
   vertex -0.74606966972351074 2.9057495594024658 0
   vertex -0.74606966972351074 2.9057495594024658 1
  endloop
 endfacet
 facet normal -0.27899198148149301 0.96029343133702127 0
  outer loop
   vertex -0.74606966972351074 2.9057495594024658 0
   vertex -0.92705100774765015 2.8531694412231445 0
   vertex -0.74606966972351074 2.9057495594024658 1
  endloop
 endfacet
 facet normal -0.27899198148149301 0.96029343133702127 0
  outer loop
   vertex -0.74606966972351074 2.9057495594024658 1
   vertex -0.92705100774765015 2.8531694412231445 0
   vertex -0.92705100774765015 2.8531694412231445 1
  endloop
 endfacet
 facet normal -0.33873706210993976 0.94088107790152031 0
  outer loop
   vertex -0.92705100774765015 2.8531694412231445 0
   vertex -1.1043736934661865 2.7893295288085938 0
   vertex -0.92705100774765015 2.8531694412231445 1
  endloop
 endfacet
 facet normal -0.33873706210993976 0.94088107790152031 0
  outer loop
   vertex -0.92705100774765015 2.8531694412231445 1
   vertex -1.1043736934661865 2.7893295288085938 0
   vertex -1.1043736934661865 2.7893295288085938 1
  endloop
 endfacet
 facet normal -0.39714839917901767 0.91775440561707122 0
  outer loop
   vertex -1.1043736934661865 2.7893295288085938 0
   vertex -1.277337908744812 2.7144811153411865 0
   vertex -1.1043736934661865 2.7893295288085938 1
  endloop
 endfacet
 facet normal -0.39714839917901767 0.91775440561707122 0
  outer loop
   vertex -1.1043736934661865 2.7893295288085938 1
   vertex -1.277337908744812 2.7144811153411865 0
   vertex -1.277337908744812 2.7144811153411865 1
  endloop
 endfacet
 facet normal -0.45399027944116216 0.89100663643596711 0
  outer loop
   vertex -1.277337908744812 2.7144811153411865 0
   vertex -1.4452610015869141 2.6289200782775879 0
   vertex -1.277337908744812 2.7144811153411865 1
  endloop
 endfacet
 facet normal -0.45399027944116216 0.89100663643596711 0
  outer loop
   vertex -1.277337908744812 2.7144811153411865 1
   vertex -1.4452610015869141 2.6289200782775879 0
   vertex -1.4452610015869141 2.6289200782775879 1
  endloop
 endfacet
 facet normal -0.50904145343134266 0.86074200471947815 0
  outer loop
   vertex -1.4452610015869141 2.6289200782775879 0
   vertex -1.6074804067611694 2.5329837799072266 0
   vertex -1.4452610015869141 2.6289200782775879 1
  endloop
 endfacet
 facet normal -0.50904145343134266 0.86074200471947815 0
  outer loop
   vertex -1.4452610015869141 2.6289200782775879 1
   vertex -1.6074804067611694 2.5329837799072266 0
   vertex -1.6074804067611694 2.5329837799072266 1
  endloop
 endfacet
 facet normal -0.56208319976818177 0.8270806953002604 0
  outer loop
   vertex -1.6074804067611694 2.5329837799072266 0
   vertex -1.7633557319641113 2.4270510673522949 0
   vertex -1.6074804067611694 2.5329837799072266 1
  endloop
 endfacet
 facet normal -0.56208319976818177 0.8270806953002604 0
  outer loop
   vertex -1.6074804067611694 2.5329837799072266 1
   vertex -1.7633557319641113 2.4270510673522949 0
   vertex -1.7633557319641113 2.4270510673522949 1
  endloop
 endfacet
 facet normal -0.61290750970061536 0.79015465862867007 0
  outer loop
   vertex -1.7633557319641113 2.4270510673522949 0
   vertex -1.9122719764709473 2.3115396499633789 0
   vertex -1.7633557319641113 2.4270510673522949 1
  endloop
 endfacet
 facet normal -0.61290750970061536 0.79015465862867007 0
  outer loop
   vertex -1.7633557319641113 2.4270510673522949 1
   vertex -1.9122719764709473 2.3115396499633789 0
   vertex -1.9122719764709473 2.3115396499633789 1
  endloop
 endfacet
 facet normal -0.66131171024432178 0.75011120635125184 0
  outer loop
   vertex -1.9122719764709473 2.3115396499633789 0
   vertex -2.0536413192749023 2.1869058609008789 0
   vertex -1.9122719764709473 2.3115396499633789 1
  endloop
 endfacet
 facet normal -0.66131171024432178 0.75011120635125184 0
  outer loop
   vertex -1.9122719764709473 2.3115396499633789 1
   vertex -2.0536413192749023 2.1869058609008789 0
   vertex -2.0536413192749023 2.1869058609008789 1
  endloop
 endfacet
 facet normal -0.70710678118654746 0.70710678118654746 0
  outer loop
   vertex -2.0536413192749023 2.1869058609008789 0
   vertex -2.1869058609008789 2.0536413192749023 0
   vertex -2.0536413192749023 2.1869058609008789 1
  endloop
 endfacet
 facet normal -0.70710678118654746 0.70710678118654746 0
  outer loop
   vertex -2.0536413192749023 2.1869058609008789 1
   vertex -2.1869058609008789 2.0536413192749023 0
   vertex -2.1869058609008789 2.0536413192749023 1
  endloop
 endfacet
 facet normal -0.75011120635125184 0.66131171024432178 0
  outer loop
   vertex -2.1869058609008789 2.0536413192749023 0
   vertex -2.3115396499633789 1.9122719764709473 0
   vertex -2.1869058609008789 2.0536413192749023 1
  endloop
 endfacet
 facet normal -0.75011120635125184 0.66131171024432178 0
  outer loop
   vertex -2.1869058609008789 2.0536413192749023 1
   vertex -2.3115396499633789 1.9122719764709473 0
   vertex -2.3115396499633789 1.9122719764709473 1
  endloop
 endfacet
 facet normal -0.79015465862867007 0.61290750970061536 0
  outer loop
   vertex -2.3115396499633789 1.9122719764709473 0
   vertex -2.4270510673522949 1.7633557319641113 0
   vertex -2.3115396499633789 1.9122719764709473 1
  endloop
 endfacet
 facet normal -0.79015465862867007 0.61290750970061536 0
  outer loop
   vertex -2.3115396499633789 1.9122719764709473 1
   vertex -2.4270510673522949 1.7633557319641113 0
   vertex -2.4270510673522949 1.7633557319641113 1
  endloop
 endfacet
 facet normal -0.8270806953002604 0.56208319976818177 0
  outer loop
   vertex -2.4270510673522949 1.7633557319641113 0
   vertex -2.5329837799072266 1.6074804067611694 0
   vertex -2.4270510673522949 1.7633557319641113 1
  endloop
 endfacet
 facet normal -0.8270806953002604 0.56208319976818177 0
  outer loop
   vertex -2.4270510673522949 1.7633557319641113 1
   vertex -2.5329837799072266 1.6074804067611694 0
   vertex -2.5329837799072266 1.6074804067611694 1
  endloop
 endfacet
 facet normal -0.86074200471947815 0.50904145343134266 0
  outer loop
   vertex -2.5329837799072266 1.6074804067611694 0
   vertex -2.6289200782775879 1.4452610015869141 0
   vertex -2.5329837799072266 1.6074804067611694 1
  endloop
 endfacet
 facet normal -0.86074200471947815 0.50904145343134266 0
  outer loop
   vertex -2.5329837799072266 1.6074804067611694 1
   vertex -2.6289200782775879 1.4452610015869141 0
   vertex -2.6289200782775879 1.4452610015869141 1
  endloop
 endfacet
 facet normal -0.89100663643596711 0.45399027944116216 0
  outer loop
   vertex -2.6289200782775879 1.4452610015869141 0
   vertex -2.7144811153411865 1.277337908744812 0
   vertex -2.6289200782775879 1.4452610015869141 1
  endloop
 endfacet
 facet normal -0.89100663643596711 0.45399027944116216 0
  outer loop
   vertex -2.6289200782775879 1.4452610015869141 1
   vertex -2.7144811153411865 1.277337908744812 0
   vertex -2.7144811153411865 1.277337908744812 1
  endloop
 endfacet
 facet normal -0.91775440561707122 0.39714839917901767 0
  outer loop
   vertex -2.7144811153411865 1.277337908744812 0
   vertex -2.7893295288085938 1.1043736934661865 0
   vertex -2.7144811153411865 1.277337908744812 1
  endloop
 endfacet
 facet normal -0.91775440561707122 0.39714839917901767 0
  outer loop
   vertex -2.7144811153411865 1.277337908744812 1
   vertex -2.7893295288085938 1.1043736934661865 0
   vertex -2.7893295288085938 1.1043736934661865 1
  endloop
 endfacet
 facet normal -0.94088107790152031 0.33873706210993976 0
  outer loop
   vertex -2.7893295288085938 1.1043736934661865 0
   vertex -2.8531694412231445 0.92705100774765015 0
   vertex -2.7893295288085938 1.1043736934661865 1
  endloop
 endfacet
 facet normal -0.94088107790152031 0.33873706210993976 0
  outer loop
   vertex -2.7893295288085938 1.1043736934661865 1
   vertex -2.8531694412231445 0.92705100774765015 0
   vertex -2.8531694412231445 0.92705100774765015 1
  endloop
 endfacet
 facet normal -0.96029343133702127 0.27899198148149301 0
  outer loop
   vertex -2.8531694412231445 0.92705100774765015 0
   vertex -2.9057495594024658 0.74606966972351074 0
   vertex -2.8531694412231445 0.92705100774765015 1
  endloop
 endfacet
 facet normal -0.96029343133702127 0.27899198148149301 0
  outer loop
   vertex -2.8531694412231445 0.92705100774765015 1
   vertex -2.9057495594024658 0.74606966972351074 0
   vertex -2.9057495594024658 0.74606966972351074 1
  endloop
 endfacet
 facet normal -0.97591686474513506 0.21814278146669361 0
  outer loop
   vertex -2.9057495594024658 0.74606966972351074 0
   vertex -2.946861743927002 0.56214392185211182 0
   vertex -2.9057495594024658 0.74606966972351074 1
  endloop
 endfacet
 facet normal -0.97591686474513506 0.21814278146669361 0
  outer loop
   vertex -2.9057495594024658 0.74606966972351074 1
   vertex -2.946861743927002 0.56214392185211182 0
   vertex -2.946861743927002 0.56214392185211182 1
  endloop
 endfacet
 facet normal -0.98768832868237799 0.15643454025441772 0
  outer loop
   vertex -2.946861743927002 0.56214392185211182 0
   vertex -2.976344108581543 0.37599968910217285 0
   vertex -2.946861743927002 0.56214392185211182 1
  endloop
 endfacet
 facet normal -0.98768832868237799 0.15643454025441772 0
  outer loop
   vertex -2.946861743927002 0.56214392185211182 1
   vertex -2.976344108581543 0.37599968910217285 0
   vertex -2.976344108581543 0.37599968910217285 1
  endloop
 endfacet
 facet normal -0.9955620255398262 0.094107668672848144 0
  outer loop
   vertex -2.976344108581543 0.37599968910217285 0
   vertex -2.9940800666809082 0.18837155401706696 0
   vertex -2.976344108581543 0.37599968910217285 1
  endloop
 endfacet
 facet normal -0.9955620255398262 0.094107668672848144 0
  outer loop
   vertex -2.976344108581543 0.37599968910217285 1
   vertex -2.9940800666809082 0.18837155401706696 0
   vertex -2.9940800666809082 0.18837155401706696 1
  endloop
 endfacet
 facet normal -0.99950654058404043 0.031411388535434126 0
  outer loop
   vertex -2.9940800666809082 0.18837155401706696 0
   vertex -3 -9.6487354730485789e-16 0
   vertex -2.9940800666809082 0.18837155401706696 1
  endloop
 endfacet
 facet normal -0.99950654058404043 0.031411388535434126 0
  outer loop
   vertex -2.9940800666809082 0.18837155401706696 1
   vertex -3 -9.6487354730485789e-16 0
   vertex -3 -9.6487354730485789e-16 1
  endloop
 endfacet
 facet normal -0.99950654058404043 -0.031411388535434452 0
  outer loop
   vertex -3 -9.6487354730485789e-16 0
   vertex -2.9940800666809082 -0.18837155401706696 0
   vertex -3 -9.6487354730485789e-16 1
  endloop
 endfacet
 facet normal -0.99950654058404043 -0.031411388535434452 0
  outer loop
   vertex -3 -9.6487354730485789e-16 1
   vertex -2.9940800666809082 -0.18837155401706696 0
   vertex -2.9940800666809082 -0.18837155401706696 1
  endloop
 endfacet
 facet normal -0.9955620255398262 -0.094107668672848144 0
  outer loop
   vertex -2.9940800666809082 -0.18837155401706696 0
   vertex -2.976344108581543 -0.37599968910217285 0
   vertex -2.9940800666809082 -0.18837155401706696 1
  endloop
 endfacet
 facet normal -0.9955620255398262 -0.094107668672848144 0
  outer loop
   vertex -2.9940800666809082 -0.18837155401706696 1
   vertex -2.976344108581543 -0.37599968910217285 0
   vertex -2.976344108581543 -0.37599968910217285 1
  endloop
 endfacet
 facet normal -0.98768832868237799 -0.15643454025441772 0
  outer loop
   vertex -2.976344108581543 -0.37599968910217285 0
   vertex -2.946861743927002 -0.56214392185211182 0
   vertex -2.976344108581543 -0.37599968910217285 1
  endloop
 endfacet
 facet normal -0.98768832868237799 -0.15643454025441772 0
  outer loop
   vertex -2.976344108581543 -0.37599968910217285 1
   vertex -2.946861743927002 -0.56214392185211182 0
   vertex -2.946861743927002 -0.56214392185211182 1
  endloop
 endfacet
 facet normal -0.97591686474513506 -0.21814278146669361 0
  outer loop
   vertex -2.946861743927002 -0.56214392185211182 0
   vertex -2.9057495594024658 -0.74606966972351074 0
   vertex -2.946861743927002 -0.56214392185211182 1
  endloop
 endfacet
 facet normal -0.97591686474513506 -0.21814278146669361 0
  outer loop
   vertex -2.946861743927002 -0.56214392185211182 1
   vertex -2.9057495594024658 -0.74606966972351074 0
   vertex -2.9057495594024658 -0.74606966972351074 1
  endloop
 endfacet
 facet normal -0.96029343133702127 -0.27899198148149301 0
  outer loop
   vertex -2.9057495594024658 -0.74606966972351074 0
   vertex -2.8531694412231445 -0.92705100774765015 0
   vertex -2.9057495594024658 -0.74606966972351074 1
  endloop
 endfacet
 facet normal -0.96029343133702127 -0.27899198148149301 0
  outer loop
   vertex -2.9057495594024658 -0.74606966972351074 1
   vertex -2.8531694412231445 -0.92705100774765015 0
   vertex -2.8531694412231445 -0.92705100774765015 1
  endloop
 endfacet
 facet normal -0.94088107790152031 -0.33873706210993976 0
  outer loop
   vertex -2.8531694412231445 -0.92705100774765015 0
   vertex -2.7893295288085938 -1.1043736934661865 0
   vertex -2.8531694412231445 -0.92705100774765015 1
  endloop
 endfacet
 facet normal -0.94088107790152031 -0.33873706210993976 0
  outer loop
   vertex -2.8531694412231445 -0.92705100774765015 1
   vertex -2.7893295288085938 -1.1043736934661865 0
   vertex -2.7893295288085938 -1.1043736934661865 1
  endloop
 endfacet
 facet normal -0.91775440561707122 -0.39714839917901767 0
  outer loop
   vertex -2.7893295288085938 -1.1043736934661865 0
   vertex -2.7144811153411865 -1.277337908744812 0
   vertex -2.7893295288085938 -1.1043736934661865 1
  endloop
 endfacet
 facet normal -0.91775440561707122 -0.39714839917901767 0
  outer loop
   vertex -2.7893295288085938 -1.1043736934661865 1
   vertex -2.7144811153411865 -1.277337908744812 0
   vertex -2.7144811153411865 -1.277337908744812 1
  endloop
 endfacet
 facet normal -0.89100663643596711 -0.45399027944116216 0
  outer loop
   vertex -2.7144811153411865 -1.277337908744812 0
   vertex -2.6289200782775879 -1.4452610015869141 0
   vertex -2.7144811153411865 -1.277337908744812 1
  endloop
 endfacet
 facet normal -0.89100663643596711 -0.45399027944116216 0
  outer loop
   vertex -2.7144811153411865 -1.277337908744812 1
   vertex -2.6289200782775879 -1.4452610015869141 0
   vertex -2.6289200782775879 -1.4452610015869141 1
  endloop
 endfacet
 facet normal -0.86074200471947815 -0.50904145343134266 0
  outer loop
   vertex -2.6289200782775879 -1.4452610015869141 0
   vertex -2.5329837799072266 -1.6074804067611694 0
   vertex -2.6289200782775879 -1.4452610015869141 1
  endloop
 endfacet
 facet normal -0.86074200471947815 -0.50904145343134266 0
  outer loop
   vertex -2.6289200782775879 -1.4452610015869141 1
   vertex -2.5329837799072266 -1.6074804067611694 0
   vertex -2.5329837799072266 -1.6074804067611694 1
  endloop
 endfacet
 facet normal -0.8270806953002604 -0.56208319976818177 0
  outer loop
   vertex -2.5329837799072266 -1.6074804067611694 0
   vertex -2.4270510673522949 -1.7633557319641113 0
   vertex -2.5329837799072266 -1.6074804067611694 1
  endloop
 endfacet
 facet normal -0.8270806953002604 -0.56208319976818177 0
  outer loop
   vertex -2.5329837799072266 -1.6074804067611694 1
   vertex -2.4270510673522949 -1.7633557319641113 0
   vertex -2.4270510673522949 -1.7633557319641113 1
  endloop
 endfacet
 facet normal -0.79015465862867007 -0.61290750970061536 0
  outer loop
   vertex -2.4270510673522949 -1.7633557319641113 0
   vertex -2.3115396499633789 -1.9122719764709473 0
   vertex -2.4270510673522949 -1.7633557319641113 1
  endloop
 endfacet
 facet normal -0.79015465862867007 -0.61290750970061536 0
  outer loop
   vertex -2.4270510673522949 -1.7633557319641113 1
   vertex -2.3115396499633789 -1.9122719764709473 0
   vertex -2.3115396499633789 -1.9122719764709473 1
  endloop
 endfacet
 facet normal -0.75011120635125184 -0.66131171024432178 0
  outer loop
   vertex -2.3115396499633789 -1.9122719764709473 0
   vertex -2.1869058609008789 -2.0536413192749023 0
   vertex -2.3115396499633789 -1.9122719764709473 1
  endloop
 endfacet
 facet normal -0.75011120635125184 -0.66131171024432178 0
  outer loop
   vertex -2.3115396499633789 -1.9122719764709473 1
   vertex -2.1869058609008789 -2.0536413192749023 0
   vertex -2.1869058609008789 -2.0536413192749023 1
  endloop
 endfacet
 facet normal -0.70710678118654746 -0.70710678118654746 0
  outer loop
   vertex -2.1869058609008789 -2.0536413192749023 0
   vertex -2.0536413192749023 -2.1869058609008789 0
   vertex -2.1869058609008789 -2.0536413192749023 1
  endloop
 endfacet
 facet normal -0.70710678118654746 -0.70710678118654746 0
  outer loop
   vertex -2.1869058609008789 -2.0536413192749023 1
   vertex -2.0536413192749023 -2.1869058609008789 0
   vertex -2.0536413192749023 -2.1869058609008789 1
  endloop
 endfacet
 facet normal -0.66131171024432178 -0.75011120635125184 0
  outer loop
   vertex -2.0536413192749023 -2.1869058609008789 0
   vertex -1.9122719764709473 -2.3115396499633789 0
   vertex -2.0536413192749023 -2.1869058609008789 1
  endloop
 endfacet
 facet normal -0.66131171024432178 -0.75011120635125184 0
  outer loop
   vertex -2.0536413192749023 -2.1869058609008789 1
   vertex -1.9122719764709473 -2.3115396499633789 0
   vertex -1.9122719764709473 -2.3115396499633789 1
  endloop
 endfacet
 facet normal -0.61290750970061536 -0.79015465862867007 0
  outer loop
   vertex -1.9122719764709473 -2.3115396499633789 0
   vertex -1.7633557319641113 -2.4270510673522949 0
   vertex -1.9122719764709473 -2.3115396499633789 1
  endloop
 endfacet
 facet normal -0.61290750970061536 -0.79015465862867007 0
  outer loop
   vertex -1.9122719764709473 -2.3115396499633789 1
   vertex -1.7633557319641113 -2.4270510673522949 0
   vertex -1.7633557319641113 -2.4270510673522949 1
  endloop
 endfacet
 facet normal -0.56208319976818177 -0.8270806953002604 0
  outer loop
   vertex -1.7633557319641113 -2.4270510673522949 0
   vertex -1.6074804067611694 -2.5329837799072266 0
   vertex -1.7633557319641113 -2.4270510673522949 1
  endloop
 endfacet
 facet normal -0.56208319976818177 -0.8270806953002604 0
  outer loop
   vertex -1.7633557319641113 -2.4270510673522949 1
   vertex -1.6074804067611694 -2.5329837799072266 0
   vertex -1.6074804067611694 -2.5329837799072266 1
  endloop
 endfacet
 facet normal -0.50904145343134266 -0.86074200471947815 0
  outer loop
   vertex -1.6074804067611694 -2.5329837799072266 0
   vertex -1.4452610015869141 -2.6289200782775879 0
   vertex -1.6074804067611694 -2.5329837799072266 1
  endloop
 endfacet
 facet normal -0.50904145343134266 -0.86074200471947815 0
  outer loop
   vertex -1.6074804067611694 -2.5329837799072266 1
   vertex -1.4452610015869141 -2.6289200782775879 0
   vertex -1.4452610015869141 -2.6289200782775879 1
  endloop
 endfacet
 facet normal -0.45399027944116216 -0.89100663643596711 0
  outer loop
   vertex -1.4452610015869141 -2.6289200782775879 0
   vertex -1.277337908744812 -2.7144811153411865 0
   vertex -1.4452610015869141 -2.6289200782775879 1
  endloop
 endfacet
 facet normal -0.45399027944116216 -0.89100663643596711 0
  outer loop
   vertex -1.4452610015869141 -2.6289200782775879 1
   vertex -1.277337908744812 -2.7144811153411865 0
   vertex -1.277337908744812 -2.7144811153411865 1
  endloop
 endfacet
 facet normal -0.39714839917901767 -0.91775440561707122 0
  outer loop
   vertex -1.277337908744812 -2.7144811153411865 0
   vertex -1.1043736934661865 -2.7893295288085938 0
   vertex -1.277337908744812 -2.7144811153411865 1
  endloop
 endfacet
 facet normal -0.39714839917901767 -0.91775440561707122 0
  outer loop
   vertex -1.277337908744812 -2.7144811153411865 1
   vertex -1.1043736934661865 -2.7893295288085938 0
   vertex -1.1043736934661865 -2.7893295288085938 1
  endloop
 endfacet
 facet normal -0.33873706210993976 -0.94088107790152031 0
  outer loop
   vertex -1.1043736934661865 -2.7893295288085938 0
   vertex -0.92705100774765015 -2.8531694412231445 0
   vertex -1.1043736934661865 -2.7893295288085938 1
  endloop
 endfacet
 facet normal -0.33873706210993976 -0.94088107790152031 0
  outer loop
   vertex -1.1043736934661865 -2.7893295288085938 1
   vertex -0.92705100774765015 -2.8531694412231445 0
   vertex -0.92705100774765015 -2.8531694412231445 1
  endloop
 endfacet
 facet normal -0.27899198148149301 -0.96029343133702127 0
  outer loop
   vertex -0.92705100774765015 -2.8531694412231445 0
   vertex -0.74606966972351074 -2.9057495594024658 0
   vertex -0.92705100774765015 -2.8531694412231445 1
  endloop
 endfacet
 facet normal -0.27899198148149301 -0.96029343133702127 0
  outer loop
   vertex -0.92705100774765015 -2.8531694412231445 1
   vertex -0.74606966972351074 -2.9057495594024658 0
   vertex -0.74606966972351074 -2.9057495594024658 1
  endloop
 endfacet
 facet normal -0.21814278146669361 -0.97591686474513506 0
  outer loop
   vertex -0.74606966972351074 -2.9057495594024658 0
   vertex -0.56214392185211182 -2.946861743927002 0
   vertex -0.74606966972351074 -2.9057495594024658 1
  endloop
 endfacet
 facet normal -0.21814278146669361 -0.97591686474513506 0
  outer loop
   vertex -0.74606966972351074 -2.9057495594024658 1
   vertex -0.56214392185211182 -2.946861743927002 0
   vertex -0.56214392185211182 -2.946861743927002 1
  endloop
 endfacet
 facet normal -0.15643454025441772 -0.98768832868237799 0
  outer loop
   vertex -0.56214392185211182 -2.946861743927002 0
   vertex -0.37599968910217285 -2.976344108581543 0
   vertex -0.56214392185211182 -2.946861743927002 1
  endloop
 endfacet
 facet normal -0.15643454025441772 -0.98768832868237799 0
  outer loop
   vertex -0.56214392185211182 -2.946861743927002 1
   vertex -0.37599968910217285 -2.976344108581543 0
   vertex -0.37599968910217285 -2.976344108581543 1
  endloop
 endfacet
 facet normal -0.094107668672848144 -0.9955620255398262 0
  outer loop
   vertex -0.37599968910217285 -2.976344108581543 0
   vertex -0.18837155401706696 -2.9940800666809082 0
   vertex -0.37599968910217285 -2.976344108581543 1
  endloop
 endfacet
 facet normal -0.094107668672848144 -0.9955620255398262 0
  outer loop
   vertex -0.37599968910217285 -2.976344108581543 1
   vertex -0.18837155401706696 -2.9940800666809082 0
   vertex -0.18837155401706696 -2.9940800666809082 1
  endloop
 endfacet
 facet normal -0.031411388535434383 -0.99950654058404043 0
  outer loop
   vertex -0.18837155401706696 -2.9940800666809082 0
   vertex -5.5109107042843573e-16 -3 0
   vertex -0.18837155401706696 -2.9940800666809082 1
  endloop
 endfacet
 facet normal -0.031411388535434383 -0.99950654058404043 0
  outer loop
   vertex -0.18837155401706696 -2.9940800666809082 1
   vertex -5.5109107042843573e-16 -3 0
   vertex -5.5109107042843573e-16 -3 1
  endloop
 endfacet
 facet normal 0.031411388535434195 -0.99950654058404043 0
  outer loop
   vertex -5.5109107042843573e-16 -3 0
   vertex 0.18837155401706696 -2.9940800666809082 0
   vertex -5.5109107042843573e-16 -3 1
  endloop
 endfacet
 facet normal 0.031411388535434195 -0.99950654058404043 0
  outer loop
   vertex -5.5109107042843573e-16 -3 1
   vertex 0.18837155401706696 -2.9940800666809082 0
   vertex 0.18837155401706696 -2.9940800666809082 1
  endloop
 endfacet
 facet normal 0.094107668672848144 -0.9955620255398262 0
  outer loop
   vertex 0.18837155401706696 -2.9940800666809082 0
   vertex 0.37599968910217285 -2.976344108581543 0
   vertex 0.18837155401706696 -2.9940800666809082 1
  endloop
 endfacet
 facet normal 0.094107668672848144 -0.9955620255398262 0
  outer loop
   vertex 0.18837155401706696 -2.9940800666809082 1
   vertex 0.37599968910217285 -2.976344108581543 0
   vertex 0.37599968910217285 -2.976344108581543 1
  endloop
 endfacet
 facet normal 0.15643454025441772 -0.98768832868237799 0
  outer loop
   vertex 0.37599968910217285 -2.976344108581543 0
   vertex 0.56214392185211182 -2.946861743927002 0
   vertex 0.37599968910217285 -2.976344108581543 1
  endloop
 endfacet
 facet normal 0.15643454025441772 -0.98768832868237799 0
  outer loop
   vertex 0.37599968910217285 -2.976344108581543 1
   vertex 0.56214392185211182 -2.946861743927002 0
   vertex 0.56214392185211182 -2.946861743927002 1
  endloop
 endfacet
 facet normal 0.21814278146669361 -0.97591686474513506 0
  outer loop
   vertex 0.56214392185211182 -2.946861743927002 0
   vertex 0.74606966972351074 -2.9057495594024658 0
   vertex 0.56214392185211182 -2.946861743927002 1
  endloop
 endfacet
 facet normal 0.21814278146669361 -0.97591686474513506 0
  outer loop
   vertex 0.56214392185211182 -2.946861743927002 1
   vertex 0.74606966972351074 -2.9057495594024658 0
   vertex 0.74606966972351074 -2.9057495594024658 1
  endloop
 endfacet
 facet normal 0.27899198148149301 -0.96029343133702127 0
  outer loop
   vertex 0.74606966972351074 -2.9057495594024658 0
   vertex 0.92705100774765015 -2.8531694412231445 0
   vertex 0.74606966972351074 -2.9057495594024658 1
  endloop
 endfacet
 facet normal 0.27899198148149301 -0.96029343133702127 0
  outer loop
   vertex 0.74606966972351074 -2.9057495594024658 1
   vertex 0.92705100774765015 -2.8531694412231445 0
   vertex 0.92705100774765015 -2.8531694412231445 1
  endloop
 endfacet
 facet normal 0.33873706210993976 -0.94088107790152031 0
  outer loop
   vertex 0.92705100774765015 -2.8531694412231445 0
   vertex 1.1043736934661865 -2.7893295288085938 0
   vertex 0.92705100774765015 -2.8531694412231445 1
  endloop
 endfacet
 facet normal 0.33873706210993976 -0.94088107790152031 0
  outer loop
   vertex 0.92705100774765015 -2.8531694412231445 1
   vertex 1.1043736934661865 -2.7893295288085938 0
   vertex 1.1043736934661865 -2.7893295288085938 1
  endloop
 endfacet
 facet normal 0.39714839917901767 -0.91775440561707122 0
  outer loop
   vertex 1.1043736934661865 -2.7893295288085938 0
   vertex 1.277337908744812 -2.7144811153411865 0
   vertex 1.1043736934661865 -2.7893295288085938 1
  endloop
 endfacet
 facet normal 0.39714839917901767 -0.91775440561707122 0
  outer loop
   vertex 1.1043736934661865 -2.7893295288085938 1
   vertex 1.277337908744812 -2.7144811153411865 0
   vertex 1.277337908744812 -2.7144811153411865 1
  endloop
 endfacet
 facet normal 0.45399027944116216 -0.89100663643596711 0
  outer loop
   vertex 1.277337908744812 -2.7144811153411865 0
   vertex 1.4452610015869141 -2.6289200782775879 0
   vertex 1.277337908744812 -2.7144811153411865 1
  endloop
 endfacet
 facet normal 0.45399027944116216 -0.89100663643596711 0
  outer loop
   vertex 1.277337908744812 -2.7144811153411865 1
   vertex 1.4452610015869141 -2.6289200782775879 0
   vertex 1.4452610015869141 -2.6289200782775879 1
  endloop
 endfacet
 facet normal 0.50904145343134266 -0.86074200471947815 0
  outer loop
   vertex 1.4452610015869141 -2.6289200782775879 0
   vertex 1.6074804067611694 -2.5329837799072266 0
   vertex 1.4452610015869141 -2.6289200782775879 1
  endloop
 endfacet
 facet normal 0.50904145343134266 -0.86074200471947815 0
  outer loop
   vertex 1.4452610015869141 -2.6289200782775879 1
   vertex 1.6074804067611694 -2.5329837799072266 0
   vertex 1.6074804067611694 -2.5329837799072266 1
  endloop
 endfacet
 facet normal 0.56208319976818177 -0.8270806953002604 0
  outer loop
   vertex 1.6074804067611694 -2.5329837799072266 0
   vertex 1.7633557319641113 -2.4270510673522949 0
   vertex 1.6074804067611694 -2.5329837799072266 1
  endloop
 endfacet
 facet normal 0.56208319976818177 -0.8270806953002604 0
  outer loop
   vertex 1.6074804067611694 -2.5329837799072266 1
   vertex 1.7633557319641113 -2.4270510673522949 0
   vertex 1.7633557319641113 -2.4270510673522949 1
  endloop
 endfacet
 facet normal 0.61290750970061536 -0.79015465862867007 0
  outer loop
   vertex 1.7633557319641113 -2.4270510673522949 0
   vertex 1.9122719764709473 -2.3115396499633789 0
   vertex 1.7633557319641113 -2.4270510673522949 1
  endloop
 endfacet
 facet normal 0.61290750970061536 -0.79015465862867007 0
  outer loop
   vertex 1.7633557319641113 -2.4270510673522949 1
   vertex 1.9122719764709473 -2.3115396499633789 0
   vertex 1.9122719764709473 -2.3115396499633789 1
  endloop
 endfacet
 facet normal 0.66131171024432178 -0.75011120635125184 0
  outer loop
   vertex 1.9122719764709473 -2.3115396499633789 0
   vertex 2.0536413192749023 -2.1869058609008789 0
   vertex 1.9122719764709473 -2.3115396499633789 1
  endloop
 endfacet
 facet normal 0.66131171024432178 -0.75011120635125184 0
  outer loop
   vertex 1.9122719764709473 -2.3115396499633789 1
   vertex 2.0536413192749023 -2.1869058609008789 0
   vertex 2.0536413192749023 -2.1869058609008789 1
  endloop
 endfacet
 facet normal 0.70710678118654746 -0.70710678118654746 0
  outer loop
   vertex 2.0536413192749023 -2.1869058609008789 0
   vertex 2.1869058609008789 -2.0536413192749023 0
   vertex 2.0536413192749023 -2.1869058609008789 1
  endloop
 endfacet
 facet normal 0.70710678118654746 -0.70710678118654746 0
  outer loop
   vertex 2.0536413192749023 -2.1869058609008789 1
   vertex 2.1869058609008789 -2.0536413192749023 0
   vertex 2.1869058609008789 -2.0536413192749023 1
  endloop
 endfacet
 facet normal 0.75011120635125184 -0.66131171024432178 0
  outer loop
   vertex 2.1869058609008789 -2.0536413192749023 0
   vertex 2.3115396499633789 -1.9122719764709473 0
   vertex 2.1869058609008789 -2.0536413192749023 1
  endloop
 endfacet
 facet normal 0.75011120635125184 -0.66131171024432178 0
  outer loop
   vertex 2.1869058609008789 -2.0536413192749023 1
   vertex 2.3115396499633789 -1.9122719764709473 0
   vertex 2.3115396499633789 -1.9122719764709473 1
  endloop
 endfacet
 facet normal 0.79015465862867007 -0.61290750970061536 0
  outer loop
   vertex 2.3115396499633789 -1.9122719764709473 0
   vertex 2.4270510673522949 -1.7633557319641113 0
   vertex 2.3115396499633789 -1.9122719764709473 1
  endloop
 endfacet
 facet normal 0.79015465862867007 -0.61290750970061536 0
  outer loop
   vertex 2.3115396499633789 -1.9122719764709473 1
   vertex 2.4270510673522949 -1.7633557319641113 0
   vertex 2.4270510673522949 -1.7633557319641113 1
  endloop
 endfacet
 facet normal 0.8270806953002604 -0.56208319976818177 0
  outer loop
   vertex 2.4270510673522949 -1.7633557319641113 0
   vertex 2.5329837799072266 -1.6074804067611694 0
   vertex 2.4270510673522949 -1.7633557319641113 1
  endloop
 endfacet
 facet normal 0.8270806953002604 -0.56208319976818177 0
  outer loop
   vertex 2.4270510673522949 -1.7633557319641113 1
   vertex 2.5329837799072266 -1.6074804067611694 0
   vertex 2.5329837799072266 -1.6074804067611694 1
  endloop
 endfacet
 facet normal 0.86074200471947815 -0.50904145343134266 0
  outer loop
   vertex 2.5329837799072266 -1.6074804067611694 0
   vertex 2.6289200782775879 -1.4452610015869141 0
   vertex 2.5329837799072266 -1.6074804067611694 1
  endloop
 endfacet
 facet normal 0.86074200471947815 -0.50904145343134266 0
  outer loop
   vertex 2.5329837799072266 -1.6074804067611694 1
   vertex 2.6289200782775879 -1.4452610015869141 0
   vertex 2.6289200782775879 -1.4452610015869141 1
  endloop
 endfacet
 facet normal 0.89100663643596711 -0.45399027944116216 0
  outer loop
   vertex 2.6289200782775879 -1.4452610015869141 0
   vertex 2.7144811153411865 -1.277337908744812 0
   vertex 2.6289200782775879 -1.4452610015869141 1
  endloop
 endfacet
 facet normal 0.89100663643596711 -0.45399027944116216 0
  outer loop
   vertex 2.6289200782775879 -1.4452610015869141 1
   vertex 2.7144811153411865 -1.277337908744812 0
   vertex 2.7144811153411865 -1.277337908744812 1
  endloop
 endfacet
 facet normal 0.91775440561707122 -0.39714839917901767 0
  outer loop
   vertex 2.7144811153411865 -1.277337908744812 0
   vertex 2.7893295288085938 -1.1043736934661865 0
   vertex 2.7144811153411865 -1.277337908744812 1
  endloop
 endfacet
 facet normal 0.91775440561707122 -0.39714839917901767 0
  outer loop
   vertex 2.7144811153411865 -1.277337908744812 1
   vertex 2.7893295288085938 -1.1043736934661865 0
   vertex 2.7893295288085938 -1.1043736934661865 1
  endloop
 endfacet
 facet normal 0.94088107790152031 -0.33873706210993976 0
  outer loop
   vertex 2.7893295288085938 -1.1043736934661865 0
   vertex 2.8531694412231445 -0.92705100774765015 0
   vertex 2.7893295288085938 -1.1043736934661865 1
  endloop
 endfacet
 facet normal 0.94088107790152031 -0.33873706210993976 0
  outer loop
   vertex 2.7893295288085938 -1.1043736934661865 1
   vertex 2.8531694412231445 -0.92705100774765015 0
   vertex 2.8531694412231445 -0.92705100774765015 1
  endloop
 endfacet
 facet normal 0.96029343133702127 -0.27899198148149301 0
  outer loop
   vertex 2.8531694412231445 -0.92705100774765015 0
   vertex 2.9057495594024658 -0.74606966972351074 0
   vertex 2.8531694412231445 -0.92705100774765015 1
  endloop
 endfacet
 facet normal 0.96029343133702127 -0.27899198148149301 0
  outer loop
   vertex 2.8531694412231445 -0.92705100774765015 1
   vertex 2.9057495594024658 -0.74606966972351074 0
   vertex 2.9057495594024658 -0.74606966972351074 1
  endloop
 endfacet
 facet normal 0.97591686474513506 -0.21814278146669361 0
  outer loop
   vertex 2.9057495594024658 -0.74606966972351074 0
   vertex 2.946861743927002 -0.56214392185211182 0
   vertex 2.9057495594024658 -0.74606966972351074 1
  endloop
 endfacet
 facet normal 0.97591686474513506 -0.21814278146669361 0
  outer loop
   vertex 2.9057495594024658 -0.74606966972351074 1
   vertex 2.946861743927002 -0.56214392185211182 0
   vertex 2.946861743927002 -0.56214392185211182 1
  endloop
 endfacet
 facet normal 0.98768832868237799 -0.15643454025441772 0
  outer loop
   vertex 2.946861743927002 -0.56214392185211182 0
   vertex 2.976344108581543 -0.37599968910217285 0
   vertex 2.946861743927002 -0.56214392185211182 1
  endloop
 endfacet
 facet normal 0.98768832868237799 -0.15643454025441772 0
  outer loop
   vertex 2.946861743927002 -0.56214392185211182 1
   vertex 2.976344108581543 -0.37599968910217285 0
   vertex 2.976344108581543 -0.37599968910217285 1
  endloop
 endfacet
 facet normal 0.9955620255398262 -0.094107668672848144 0
  outer loop
   vertex 2.976344108581543 -0.37599968910217285 0
   vertex 2.9940800666809082 -0.18837155401706696 0
   vertex 2.976344108581543 -0.37599968910217285 1
  endloop
 endfacet
 facet normal 0.9955620255398262 -0.094107668672848144 0
  outer loop
   vertex 2.976344108581543 -0.37599968910217285 1
   vertex 2.9940800666809082 -0.18837155401706696 0
   vertex 2.9940800666809082 -0.18837155401706696 1
  endloop
 endfacet
 facet normal 0.99950654058404043 -0.031411388535434293 0
  outer loop
   vertex 2.9940800666809082 -0.18837155401706696 0
   vertex 3 0 0
   vertex 2.9940800666809082 -0.18837155401706696 1
  endloop
 endfacet
 facet normal 0.99950654058404043 -0.031411388535434293 0
  outer loop
   vertex 2.9940800666809082 -0.18837155401706696 1
   vertex 3 0 0
   vertex 3 0 1
  endloop
 endfacet
endsolid
