solid Visualization Toolkit generated SLA File
 facet normal 0.99950654058404043 0.031411388535434293 0
  outer loop
   vertex 0.75 0 0
   vertex 0.74852001667022705 0.047092888504266739 0
   vertex 0.75 0 1
  endloop
 endfacet
 facet normal 0.99950654058404043 0.031411388535434293 -0
  outer loop
   vertex 0.75 0 1
   vertex 0.74852001667022705 0.047092888504266739 0
   vertex 0.74852001667022705 0.047092888504266739 1
  endloop
 endfacet
 facet normal 0.9955620255398262 0.094107668672848144 0
  outer loop
   vertex 0.74852001667022705 0.047092888504266739 0
   vertex 0.74408602714538574 0.093999922275543213 0
   vertex 0.74852001667022705 0.047092888504266739 1
  endloop
 endfacet
 facet normal 0.9955620255398262 0.094107668672848144 -0
  outer loop
   vertex 0.74852001667022705 0.047092888504266739 1
   vertex 0.74408602714538574 0.093999922275543213 0
   vertex 0.74408602714538574 0.093999922275543213 1
  endloop
 endfacet
 facet normal 0.98768832868237799 0.15643454025441772 0
  outer loop
   vertex 0.74408602714538574 0.093999922275543213 0
   vertex 0.73671543598175049 0.14053598046302795 0
   vertex 0.74408602714538574 0.093999922275543213 1
  endloop
 endfacet
 facet normal 0.98768832868237799 0.15643454025441772 -0
  outer loop
   vertex 0.74408602714538574 0.093999922275543213 1
   vertex 0.73671543598175049 0.14053598046302795 0
   vertex 0.73671543598175049 0.14053598046302795 1
  endloop
 endfacet
 facet normal 0.97591686474513506 0.21814278146669361 0
  outer loop
   vertex 0.73671543598175049 0.14053598046302795 0
   vertex 0.72643738985061646 0.18651741743087769 0
   vertex 0.73671543598175049 0.14053598046302795 1
  endloop
 endfacet
 facet normal 0.97591686474513506 0.21814278146669361 -0
  outer loop
   vertex 0.73671543598175049 0.14053598046302795 1
   vertex 0.72643738985061646 0.18651741743087769 0
   vertex 0.72643738985061646 0.18651741743087769 1
  endloop
 endfacet
 facet normal 0.96029343133702127 0.27899198148149301 0
  outer loop
   vertex 0.72643738985061646 0.18651741743087769 0
   vertex 0.71329236030578613 0.23176275193691254 0
   vertex 0.72643738985061646 0.18651741743087769 1
  endloop
 endfacet
 facet normal 0.96029343133702127 0.27899198148149301 -0
  outer loop
   vertex 0.72643738985061646 0.18651741743087769 1
   vertex 0.71329236030578613 0.23176275193691254 0
   vertex 0.71329236030578613 0.23176275193691254 1
  endloop
 endfacet
 facet normal 0.94088107790152031 0.33873706210993976 0
  outer loop
   vertex 0.71329236030578613 0.23176275193691254 0
   vertex 0.69733238220214844 0.27609342336654663 0
   vertex 0.71329236030578613 0.23176275193691254 1
  endloop
 endfacet
 facet normal 0.94088107790152031 0.33873706210993976 -0
  outer loop
   vertex 0.71329236030578613 0.23176275193691254 1
   vertex 0.69733238220214844 0.27609342336654663 0
   vertex 0.69733238220214844 0.27609342336654663 1
  endloop
 endfacet
 facet normal 0.91775440561707122 0.39714839917901767 0
  outer loop
   vertex 0.69733238220214844 0.27609342336654663 0
   vertex 0.67862027883529663 0.319334477186203 0
   vertex 0.69733238220214844 0.27609342336654663 1
  endloop
 endfacet
 facet normal 0.91775440561707122 0.39714839917901767 -0
  outer loop
   vertex 0.69733238220214844 0.27609342336654663 1
   vertex 0.67862027883529663 0.319334477186203 0
   vertex 0.67862027883529663 0.319334477186203 1
  endloop
 endfacet
 facet normal 0.89100663643596711 0.45399027944116216 0
  outer loop
   vertex 0.67862027883529663 0.319334477186203 0
   vertex 0.65723001956939697 0.36131525039672852 0
   vertex 0.67862027883529663 0.319334477186203 1
  endloop
 endfacet
 facet normal 0.89100663643596711 0.45399027944116216 -0
  outer loop
   vertex 0.67862027883529663 0.319334477186203 1
   vertex 0.65723001956939697 0.36131525039672852 0
   vertex 0.65723001956939697 0.36131525039672852 1
  endloop
 endfacet
 facet normal 0.86074200471947815 0.50904145343134266 0
  outer loop
   vertex 0.65723001956939697 0.36131525039672852 0
   vertex 0.63324594497680664 0.40187010169029236 0
   vertex 0.65723001956939697 0.36131525039672852 1
  endloop
 endfacet
 facet normal 0.86074200471947815 0.50904145343134266 -0
  outer loop
   vertex 0.65723001956939697 0.36131525039672852 1
   vertex 0.63324594497680664 0.40187010169029236 0
   vertex 0.63324594497680664 0.40187010169029236 1
  endloop
 endfacet
 facet normal 0.8270806953002604 0.56208319976818177 0
  outer loop
   vertex 0.63324594497680664 0.40187010169029236 0
   vertex 0.60676276683807373 0.44083893299102783 0
   vertex 0.63324594497680664 0.40187010169029236 1
  endloop
 endfacet
 facet normal 0.8270806953002604 0.56208319976818177 -0
  outer loop
   vertex 0.63324594497680664 0.40187010169029236 1
   vertex 0.60676276683807373 0.44083893299102783 0
   vertex 0.60676276683807373 0.44083893299102783 1
  endloop
 endfacet
 facet normal 0.79015465862867007 0.61290750970061536 0
  outer loop
   vertex 0.60676276683807373 0.44083893299102783 0
   vertex 0.57788491249084473 0.47806799411773682 0
   vertex 0.60676276683807373 0.44083893299102783 1
  endloop
 endfacet
 facet normal 0.79015465862867007 0.61290750970061536 -0
  outer loop
   vertex 0.60676276683807373 0.44083893299102783 1
   vertex 0.57788491249084473 0.47806799411773682 0
   vertex 0.57788491249084473 0.47806799411773682 1
  endloop
 endfacet
 facet normal 0.75011120635125184 0.66131171024432178 0
  outer loop
   vertex 0.57788491249084473 0.47806799411773682 0
   vertex 0.54672646522521973 0.51341032981872559 0
   vertex 0.57788491249084473 0.47806799411773682 1
  endloop
 endfacet
 facet normal 0.75011120635125184 0.66131171024432178 -0
  outer loop
   vertex 0.57788491249084473 0.47806799411773682 1
   vertex 0.54672646522521973 0.51341032981872559 0
   vertex 0.54672646522521973 0.51341032981872559 1
  endloop
 endfacet
 facet normal 0.70710678118654746 0.70710678118654746 0
  outer loop
   vertex 0.54672646522521973 0.51341032981872559 0
   vertex 0.51341032981872559 0.54672646522521973 0
   vertex 0.54672646522521973 0.51341032981872559 1
  endloop
 endfacet
 facet normal 0.70710678118654746 0.70710678118654746 -0
  outer loop
   vertex 0.54672646522521973 0.51341032981872559 1
   vertex 0.51341032981872559 0.54672646522521973 0
   vertex 0.51341032981872559 0.54672646522521973 1
  endloop
 endfacet
 facet normal 0.66131171024432178 0.75011120635125184 0
  outer loop
   vertex 0.51341032981872559 0.54672646522521973 0
   vertex 0.47806799411773682 0.57788491249084473 0
   vertex 0.51341032981872559 0.54672646522521973 1
  endloop
 endfacet
 facet normal 0.66131171024432178 0.75011120635125184 -0
  outer loop
   vertex 0.51341032981872559 0.54672646522521973 1
   vertex 0.47806799411773682 0.57788491249084473 0
   vertex 0.47806799411773682 0.57788491249084473 1
  endloop
 endfacet
 facet normal 0.61290750970061536 0.79015465862867007 0
  outer loop
   vertex 0.47806799411773682 0.57788491249084473 0
   vertex 0.44083893299102783 0.60676276683807373 0
   vertex 0.47806799411773682 0.57788491249084473 1
  endloop
 endfacet
 facet normal 0.61290750970061536 0.79015465862867007 -0
  outer loop
   vertex 0.47806799411773682 0.57788491249084473 1
   vertex 0.44083893299102783 0.60676276683807373 0
   vertex 0.44083893299102783 0.60676276683807373 1
  endloop
 endfacet
 facet normal 0.56208319976818177 0.8270806953002604 0
  outer loop
   vertex 0.44083893299102783 0.60676276683807373 0
   vertex 0.40187010169029236 0.63324594497680664 0
   vertex 0.44083893299102783 0.60676276683807373 1
  endloop
 endfacet
 facet normal 0.56208319976818177 0.8270806953002604 -0
  outer loop
   vertex 0.44083893299102783 0.60676276683807373 1
   vertex 0.40187010169029236 0.63324594497680664 0
   vertex 0.40187010169029236 0.63324594497680664 1
  endloop
 endfacet
 facet normal 0.50904145343134266 0.86074200471947815 0
  outer loop
   vertex 0.40187010169029236 0.63324594497680664 0
   vertex 0.36131525039672852 0.65723001956939697 0
   vertex 0.40187010169029236 0.63324594497680664 1
  endloop
 endfacet
 facet normal 0.50904145343134266 0.86074200471947815 -0
  outer loop
   vertex 0.40187010169029236 0.63324594497680664 1
   vertex 0.36131525039672852 0.65723001956939697 0
   vertex 0.36131525039672852 0.65723001956939697 1
  endloop
 endfacet
 facet normal 0.45399027944116216 0.89100663643596711 0
  outer loop
   vertex 0.36131525039672852 0.65723001956939697 0
   vertex 0.319334477186203 0.67862027883529663 0
   vertex 0.36131525039672852 0.65723001956939697 1
  endloop
 endfacet
 facet normal 0.45399027944116216 0.89100663643596711 -0
  outer loop
   vertex 0.36131525039672852 0.65723001956939697 1
   vertex 0.319334477186203 0.67862027883529663 0
   vertex 0.319334477186203 0.67862027883529663 1
  endloop
 endfacet
 facet normal 0.39714839917901767 0.91775440561707122 0
  outer loop
   vertex 0.319334477186203 0.67862027883529663 0
   vertex 0.27609342336654663 0.69733238220214844 0
   vertex 0.319334477186203 0.67862027883529663 1
  endloop
 endfacet
 facet normal 0.39714839917901767 0.91775440561707122 -0
  outer loop
   vertex 0.319334477186203 0.67862027883529663 1
   vertex 0.27609342336654663 0.69733238220214844 0
   vertex 0.27609342336654663 0.69733238220214844 1
  endloop
 endfacet
 facet normal 0.33873706210993976 0.94088107790152031 0
  outer loop
   vertex 0.27609342336654663 0.69733238220214844 0
   vertex 0.23176275193691254 0.71329236030578613 0
   vertex 0.27609342336654663 0.69733238220214844 1
  endloop
 endfacet
 facet normal 0.33873706210993976 0.94088107790152031 -0
  outer loop
   vertex 0.27609342336654663 0.69733238220214844 1
   vertex 0.23176275193691254 0.71329236030578613 0
   vertex 0.23176275193691254 0.71329236030578613 1
  endloop
 endfacet
 facet normal 0.27899198148149301 0.96029343133702127 0
  outer loop
   vertex 0.23176275193691254 0.71329236030578613 0
   vertex 0.18651741743087769 0.72643738985061646 0
   vertex 0.23176275193691254 0.71329236030578613 1
  endloop
 endfacet
 facet normal 0.27899198148149301 0.96029343133702127 -0
  outer loop
   vertex 0.23176275193691254 0.71329236030578613 1
   vertex 0.18651741743087769 0.72643738985061646 0
   vertex 0.18651741743087769 0.72643738985061646 1
  endloop
 endfacet
 facet normal 0.21814278146669361 0.97591686474513506 0
  outer loop
   vertex 0.18651741743087769 0.72643738985061646 0
   vertex 0.14053598046302795 0.73671543598175049 0
   vertex 0.18651741743087769 0.72643738985061646 1
  endloop
 endfacet
 facet normal 0.21814278146669361 0.97591686474513506 -0
  outer loop
   vertex 0.18651741743087769 0.72643738985061646 1
   vertex 0.14053598046302795 0.73671543598175049 0
   vertex 0.14053598046302795 0.73671543598175049 1
  endloop
 endfacet
 facet normal 0.15643454025441772 0.98768832868237799 0
  outer loop
   vertex 0.14053598046302795 0.73671543598175049 0
   vertex 0.093999922275543213 0.74408602714538574 0
   vertex 0.14053598046302795 0.73671543598175049 1
  endloop
 endfacet
 facet normal 0.15643454025441772 0.98768832868237799 -0
  outer loop
   vertex 0.14053598046302795 0.73671543598175049 1
   vertex 0.093999922275543213 0.74408602714538574 0
   vertex 0.093999922275543213 0.74408602714538574 1
  endloop
 endfacet
 facet normal 0.094107668672848144 0.9955620255398262 0
  outer loop
   vertex 0.093999922275543213 0.74408602714538574 0
   vertex 0.047092888504266739 0.74852001667022705 0
   vertex 0.093999922275543213 0.74408602714538574 1
  endloop
 endfacet
 facet normal 0.094107668672848144 0.9955620255398262 -0
  outer loop
   vertex 0.093999922275543213 0.74408602714538574 1
   vertex 0.047092888504266739 0.74852001667022705 0
   vertex 0.047092888504266739 0.74852001667022705 1
  endloop
 endfacet
 facet normal 0.031411388535434209 0.99950654058404043 0
  outer loop
   vertex 0.047092888504266739 0.74852001667022705 0
   vertex -1.2060919341310724e-16 0.75 0
   vertex 0.047092888504266739 0.74852001667022705 1
  endloop
 endfacet
 facet normal 0.031411388535434209 0.99950654058404043 -0
  outer loop
   vertex 0.047092888504266739 0.74852001667022705 1
   vertex -1.2060919341310724e-16 0.75 0
   vertex -1.2060919341310724e-16 0.75 1
  endloop
 endfacet
 facet normal -0.031411388535434369 0.99950654058404043 0
  outer loop
   vertex -1.2060919341310724e-16 0.75 0
   vertex -0.047092888504266739 0.74852001667022705 0
   vertex -1.2060919341310724e-16 0.75 1
  endloop
 endfacet
 facet normal -0.031411388535434369 0.99950654058404043 0
  outer loop
   vertex -1.2060919341310724e-16 0.75 1
   vertex -0.047092888504266739 0.74852001667022705 0
   vertex -0.047092888504266739 0.74852001667022705 1
  endloop
 endfacet
 facet normal -0.094107668672848144 0.9955620255398262 0
  outer loop
   vertex -0.047092888504266739 0.74852001667022705 0
   vertex -0.093999922275543213 0.74408602714538574 0
   vertex -0.047092888504266739 0.74852001667022705 1
  endloop
 endfacet
 facet normal -0.094107668672848144 0.9955620255398262 0
  outer loop
   vertex -0.047092888504266739 0.74852001667022705 1
   vertex -0.093999922275543213 0.74408602714538574 0
   vertex -0.093999922275543213 0.74408602714538574 1
  endloop
 endfacet
 facet normal -0.15643454025441772 0.98768832868237799 0
  outer loop
   vertex -0.093999922275543213 0.74408602714538574 0
   vertex -0.14053598046302795 0.73671543598175049 0
   vertex -0.093999922275543213 0.74408602714538574 1
  endloop
 endfacet
 facet normal -0.15643454025441772 0.98768832868237799 0
  outer loop
   vertex -0.093999922275543213 0.74408602714538574 1
   vertex -0.14053598046302795 0.73671543598175049 0
   vertex -0.14053598046302795 0.73671543598175049 1
  endloop
 endfacet
 facet normal -0.21814278146669361 0.97591686474513506 0
  outer loop
   vertex -0.14053598046302795 0.73671543598175049 0
   vertex -0.18651741743087769 0.72643738985061646 0
   vertex -0.14053598046302795 0.73671543598175049 1
  endloop
 endfacet
 facet normal -0.21814278146669361 0.97591686474513506 0
  outer loop
   vertex -0.14053598046302795 0.73671543598175049 1
   vertex -0.18651741743087769 0.72643738985061646 0
   vertex -0.18651741743087769 0.72643738985061646 1
  endloop
 endfacet
 facet normal -0.27899198148149301 0.96029343133702127 0
  outer loop
   vertex -0.18651741743087769 0.72643738985061646 0
   vertex -0.23176275193691254 0.71329236030578613 0
   vertex -0.18651741743087769 0.72643738985061646 1
  endloop
 endfacet
 facet normal -0.27899198148149301 0.96029343133702127 0
  outer loop
   vertex -0.18651741743087769 0.72643738985061646 1
   vertex -0.23176275193691254 0.71329236030578613 0
   vertex -0.23176275193691254 0.71329236030578613 1
  endloop
 endfacet
 facet normal -0.33873706210993976 0.94088107790152031 0
  outer loop
   vertex -0.23176275193691254 0.71329236030578613 0
   vertex -0.27609342336654663 0.69733238220214844 0
   vertex -0.23176275193691254 0.71329236030578613 1
  endloop
 endfacet
 facet normal -0.33873706210993976 0.94088107790152031 0
  outer loop
   vertex -0.23176275193691254 0.71329236030578613 1
   vertex -0.27609342336654663 0.69733238220214844 0
   vertex -0.27609342336654663 0.69733238220214844 1
  endloop
 endfacet
 facet normal -0.39714839917901767 0.91775440561707122 0
  outer loop
   vertex -0.27609342336654663 0.69733238220214844 0
   vertex -0.319334477186203 0.67862027883529663 0
   vertex -0.27609342336654663 0.69733238220214844 1
  endloop
 endfacet
 facet normal -0.39714839917901767 0.91775440561707122 0
  outer loop
   vertex -0.27609342336654663 0.69733238220214844 1
   vertex -0.319334477186203 0.67862027883529663 0
   vertex -0.319334477186203 0.67862027883529663 1
  endloop
 endfacet
 facet normal -0.45399027944116216 0.89100663643596711 0
  outer loop
   vertex -0.319334477186203 0.67862027883529663 0
   vertex -0.36131525039672852 0.65723001956939697 0
   vertex -0.319334477186203 0.67862027883529663 1
  endloop
 endfacet
 facet normal -0.45399027944116216 0.89100663643596711 0
  outer loop
   vertex -0.319334477186203 0.67862027883529663 1
   vertex -0.36131525039672852 0.65723001956939697 0
   vertex -0.36131525039672852 0.65723001956939697 1
  endloop
 endfacet
 facet normal -0.50904145343134266 0.86074200471947815 0
  outer loop
   vertex -0.36131525039672852 0.65723001956939697 0
   vertex -0.40187010169029236 0.63324594497680664 0
   vertex -0.36131525039672852 0.65723001956939697 1
  endloop
 endfacet
 facet normal -0.50904145343134266 0.86074200471947815 0
  outer loop
   vertex -0.36131525039672852 0.65723001956939697 1
   vertex -0.40187010169029236 0.63324594497680664 0
   vertex -0.40187010169029236 0.63324594497680664 1
  endloop
 endfacet
 facet normal -0.56208319976818177 0.8270806953002604 0
  outer loop
   vertex -0.40187010169029236 0.63324594497680664 0
   vertex -0.44083893299102783 0.60676276683807373 0
   vertex -0.40187010169029236 0.63324594497680664 1
  endloop
 endfacet
 facet normal -0.56208319976818177 0.8270806953002604 0
  outer loop
   vertex -0.40187010169029236 0.63324594497680664 1
   vertex -0.44083893299102783 0.60676276683807373 0
   vertex -0.44083893299102783 0.60676276683807373 1
  endloop
 endfacet
 facet normal -0.61290750970061536 0.79015465862867007 0
  outer loop
   vertex -0.44083893299102783 0.60676276683807373 0
   vertex -0.47806799411773682 0.57788491249084473 0
   vertex -0.44083893299102783 0.60676276683807373 1
  endloop
 endfacet
 facet normal -0.61290750970061536 0.79015465862867007 0
  outer loop
   vertex -0.44083893299102783 0.60676276683807373 1
   vertex -0.47806799411773682 0.57788491249084473 0
   vertex -0.47806799411773682 0.57788491249084473 1
  endloop
 endfacet
 facet normal -0.66131171024432178 0.75011120635125184 0
  outer loop
   vertex -0.47806799411773682 0.57788491249084473 0
   vertex -0.51341032981872559 0.54672646522521973 0
   vertex -0.47806799411773682 0.57788491249084473 1
  endloop
 endfacet
 facet normal -0.66131171024432178 0.75011120635125184 0
  outer loop
   vertex -0.47806799411773682 0.57788491249084473 1
   vertex -0.51341032981872559 0.54672646522521973 0
   vertex -0.51341032981872559 0.54672646522521973 1
  endloop
 endfacet
 facet normal -0.70710678118654746 0.70710678118654746 0
  outer loop
   vertex -0.51341032981872559 0.54672646522521973 0
   vertex -0.54672646522521973 0.51341032981872559 0
   vertex -0.51341032981872559 0.54672646522521973 1
  endloop
 endfacet
 facet normal -0.70710678118654746 0.70710678118654746 0
  outer loop
   vertex -0.51341032981872559 0.54672646522521973 1
   vertex -0.54672646522521973 0.51341032981872559 0
   vertex -0.54672646522521973 0.51341032981872559 1
  endloop
 endfacet
 facet normal -0.75011120635125184 0.66131171024432178 0
  outer loop
   vertex -0.54672646522521973 0.51341032981872559 0
   vertex -0.57788491249084473 0.47806799411773682 0
   vertex -0.54672646522521973 0.51341032981872559 1
  endloop
 endfacet
 facet normal -0.75011120635125184 0.66131171024432178 0
  outer loop
   vertex -0.54672646522521973 0.51341032981872559 1
   vertex -0.57788491249084473 0.47806799411773682 0
   vertex -0.57788491249084473 0.47806799411773682 1
  endloop
 endfacet
 facet normal -0.79015465862867007 0.61290750970061536 0
  outer loop
   vertex -0.57788491249084473 0.47806799411773682 0
   vertex -0.60676276683807373 0.44083893299102783 0
   vertex -0.57788491249084473 0.47806799411773682 1
  endloop
 endfacet
 facet normal -0.79015465862867007 0.61290750970061536 0
  outer loop
   vertex -0.57788491249084473 0.47806799411773682 1
   vertex -0.60676276683807373 0.44083893299102783 0
   vertex -0.60676276683807373 0.44083893299102783 1
  endloop
 endfacet
 facet normal -0.8270806953002604 0.56208319976818177 0
  outer loop
   vertex -0.60676276683807373 0.44083893299102783 0
   vertex -0.63324594497680664 0.40187010169029236 0
   vertex -0.60676276683807373 0.44083893299102783 1
  endloop
 endfacet
 facet normal -0.8270806953002604 0.56208319976818177 0
  outer loop
   vertex -0.60676276683807373 0.44083893299102783 1
   vertex -0.63324594497680664 0.40187010169029236 0
   vertex -0.63324594497680664 0.40187010169029236 1
  endloop
 endfacet
 facet normal -0.86074200471947815 0.50904145343134266 0
  outer loop
   vertex -0.63324594497680664 0.40187010169029236 0
   vertex -0.65723001956939697 0.36131525039672852 0
   vertex -0.63324594497680664 0.40187010169029236 1
  endloop
 endfacet
 facet normal -0.86074200471947815 0.50904145343134266 0
  outer loop
   vertex -0.63324594497680664 0.40187010169029236 1
   vertex -0.65723001956939697 0.36131525039672852 0
   vertex -0.65723001956939697 0.36131525039672852 1
  endloop
 endfacet
 facet normal -0.89100663643596711 0.45399027944116216 0
  outer loop
   vertex -0.65723001956939697 0.36131525039672852 0
   vertex -0.67862027883529663 0.319334477186203 0
   vertex -0.65723001956939697 0.36131525039672852 1
  endloop
 endfacet
 facet normal -0.89100663643596711 0.45399027944116216 0
  outer loop
   vertex -0.65723001956939697 0.36131525039672852 1
   vertex -0.67862027883529663 0.319334477186203 0
   vertex -0.67862027883529663 0.319334477186203 1
  endloop
 endfacet
 facet normal -0.91775440561707122 0.39714839917901767 0
  outer loop
   vertex -0.67862027883529663 0.319334477186203 0
   vertex -0.69733238220214844 0.27609342336654663 0
   vertex -0.67862027883529663 0.319334477186203 1
  endloop
 endfacet
 facet normal -0.91775440561707122 0.39714839917901767 0
  outer loop
   vertex -0.67862027883529663 0.319334477186203 1
   vertex -0.69733238220214844 0.27609342336654663 0
   vertex -0.69733238220214844 0.27609342336654663 1
  endloop
 endfacet
 facet normal -0.94088107790152031 0.33873706210993976 0
  outer loop
   vertex -0.69733238220214844 0.27609342336654663 0
   vertex -0.71329236030578613 0.23176275193691254 0
   vertex -0.69733238220214844 0.27609342336654663 1
  endloop
 endfacet
 facet normal -0.94088107790152031 0.33873706210993976 0
  outer loop
   vertex -0.69733238220214844 0.27609342336654663 1
   vertex -0.71329236030578613 0.23176275193691254 0
   vertex -0.71329236030578613 0.23176275193691254 1
  endloop
 endfacet
 facet normal -0.96029343133702127 0.27899198148149301 0
  outer loop
   vertex -0.71329236030578613 0.23176275193691254 0
   vertex -0.72643738985061646 0.18651741743087769 0
   vertex -0.71329236030578613 0.23176275193691254 1
  endloop
 endfacet
 facet normal -0.96029343133702127 0.27899198148149301 0
  outer loop
   vertex -0.71329236030578613 0.23176275193691254 1
   vertex -0.72643738985061646 0.18651741743087769 0
   vertex -0.72643738985061646 0.18651741743087769 1
  endloop
 endfacet
 facet normal -0.97591686474513506 0.21814278146669361 0
  outer loop
   vertex -0.72643738985061646 0.18651741743087769 0
   vertex -0.73671543598175049 0.14053598046302795 0
   vertex -0.72643738985061646 0.18651741743087769 1
  endloop
 endfacet
 facet normal -0.97591686474513506 0.21814278146669361 0
  outer loop
   vertex -0.72643738985061646 0.18651741743087769 1
   vertex -0.73671543598175049 0.14053598046302795 0
   vertex -0.73671543598175049 0.14053598046302795 1
  endloop
 endfacet
 facet normal -0.98768832868237799 0.15643454025441772 0
  outer loop
   vertex -0.73671543598175049 0.14053598046302795 0
   vertex -0.74408602714538574 0.093999922275543213 0
   vertex -0.73671543598175049 0.14053598046302795 1
  endloop
 endfacet
 facet normal -0.98768832868237799 0.15643454025441772 0
  outer loop
   vertex -0.73671543598175049 0.14053598046302795 1
   vertex -0.74408602714538574 0.093999922275543213 0
   vertex -0.74408602714538574 0.093999922275543213 1
  endloop
 endfacet
 facet normal -0.9955620255398262 0.094107668672848144 0
  outer loop
   vertex -0.74408602714538574 0.093999922275543213 0
   vertex -0.74852001667022705 0.047092888504266739 0
   vertex -0.74408602714538574 0.093999922275543213 1
  endloop
 endfacet
 facet normal -0.9955620255398262 0.094107668672848144 0
  outer loop
   vertex -0.74408602714538574 0.093999922275543213 1
   vertex -0.74852001667022705 0.047092888504266739 0
   vertex -0.74852001667022705 0.047092888504266739 1
  endloop
 endfacet
 facet normal -0.99950654058404043 0.031411388535434126 0
  outer loop
   vertex -0.74852001667022705 0.047092888504266739 0
   vertex -0.75 -2.4121838682621447e-16 0
   vertex -0.74852001667022705 0.047092888504266739 1
  endloop
 endfacet
 facet normal -0.99950654058404043 0.031411388535434126 0
  outer loop
   vertex -0.74852001667022705 0.047092888504266739 1
   vertex -0.75 -2.4121838682621447e-16 0
   vertex -0.75 -2.4121838682621447e-16 1
  endloop
 endfacet
 facet normal -0.99950654058404043 -0.031411388535434452 0
  outer loop
   vertex -0.75 -2.4121838682621447e-16 0
   vertex -0.74852001667022705 -0.047092888504266739 0
   vertex -0.75 -2.4121838682621447e-16 1
  endloop
 endfacet
 facet normal -0.99950654058404043 -0.031411388535434452 0
  outer loop
   vertex -0.75 -2.4121838682621447e-16 1
   vertex -0.74852001667022705 -0.047092888504266739 0
   vertex -0.74852001667022705 -0.047092888504266739 1
  endloop
 endfacet
 facet normal -0.9955620255398262 -0.094107668672848144 0
  outer loop
   vertex -0.74852001667022705 -0.047092888504266739 0
   vertex -0.74408602714538574 -0.093999922275543213 0
   vertex -0.74852001667022705 -0.047092888504266739 1
  endloop
 endfacet
 facet normal -0.9955620255398262 -0.094107668672848144 0
  outer loop
   vertex -0.74852001667022705 -0.047092888504266739 1
   vertex -0.74408602714538574 -0.093999922275543213 0
   vertex -0.74408602714538574 -0.093999922275543213 1
  endloop
 endfacet
 facet normal -0.98768832868237799 -0.15643454025441772 0
  outer loop
   vertex -0.74408602714538574 -0.093999922275543213 0
   vertex -0.73671543598175049 -0.14053598046302795 0
   vertex -0.74408602714538574 -0.093999922275543213 1
  endloop
 endfacet
 facet normal -0.98768832868237799 -0.15643454025441772 0
  outer loop
   vertex -0.74408602714538574 -0.093999922275543213 1
   vertex -0.73671543598175049 -0.14053598046302795 0
   vertex -0.73671543598175049 -0.14053598046302795 1
  endloop
 endfacet
 facet normal -0.97591686474513506 -0.21814278146669361 0
  outer loop
   vertex -0.73671543598175049 -0.14053598046302795 0
   vertex -0.72643738985061646 -0.18651741743087769 0
   vertex -0.73671543598175049 -0.14053598046302795 1
  endloop
 endfacet
 facet normal -0.97591686474513506 -0.21814278146669361 0
  outer loop
   vertex -0.73671543598175049 -0.14053598046302795 1
   vertex -0.72643738985061646 -0.18651741743087769 0
   vertex -0.72643738985061646 -0.18651741743087769 1
  endloop
 endfacet
 facet normal -0.96029343133702127 -0.27899198148149301 0
  outer loop
   vertex -0.72643738985061646 -0.18651741743087769 0
   vertex -0.71329236030578613 -0.23176275193691254 0
   vertex -0.72643738985061646 -0.18651741743087769 1
  endloop
 endfacet
 facet normal -0.96029343133702127 -0.27899198148149301 0
  outer loop
   vertex -0.72643738985061646 -0.18651741743087769 1
   vertex -0.71329236030578613 -0.23176275193691254 0
   vertex -0.71329236030578613 -0.23176275193691254 1
  endloop
 endfacet
 facet normal -0.94088107790152031 -0.33873706210993976 0
  outer loop
   vertex -0.71329236030578613 -0.23176275193691254 0
   vertex -0.69733238220214844 -0.27609342336654663 0
   vertex -0.71329236030578613 -0.23176275193691254 1
  endloop
 endfacet
 facet normal -0.94088107790152031 -0.33873706210993976 0
  outer loop
   vertex -0.71329236030578613 -0.23176275193691254 1
   vertex -0.69733238220214844 -0.27609342336654663 0
   vertex -0.69733238220214844 -0.27609342336654663 1
  endloop
 endfacet
 facet normal -0.91775440561707122 -0.39714839917901767 0
  outer loop
   vertex -0.69733238220214844 -0.27609342336654663 0
   vertex -0.67862027883529663 -0.319334477186203 0
   vertex -0.69733238220214844 -0.27609342336654663 1
  endloop
 endfacet
 facet normal -0.91775440561707122 -0.39714839917901767 0
  outer loop
   vertex -0.69733238220214844 -0.27609342336654663 1
   vertex -0.67862027883529663 -0.319334477186203 0
   vertex -0.67862027883529663 -0.319334477186203 1
  endloop
 endfacet
 facet normal -0.89100663643596711 -0.45399027944116216 0
  outer loop
   vertex -0.67862027883529663 -0.319334477186203 0
   vertex -0.65723001956939697 -0.36131525039672852 0
   vertex -0.67862027883529663 -0.319334477186203 1
  endloop
 endfacet
 facet normal -0.89100663643596711 -0.45399027944116216 0
  outer loop
   vertex -0.67862027883529663 -0.319334477186203 1
   vertex -0.65723001956939697 -0.36131525039672852 0
   vertex -0.65723001956939697 -0.36131525039672852 1
  endloop
 endfacet
 facet normal -0.86074200471947815 -0.50904145343134266 0
  outer loop
   vertex -0.65723001956939697 -0.36131525039672852 0
   vertex -0.63324594497680664 -0.40187010169029236 0
   vertex -0.65723001956939697 -0.36131525039672852 1
  endloop
 endfacet
 facet normal -0.86074200471947815 -0.50904145343134266 0
  outer loop
   vertex -0.65723001956939697 -0.36131525039672852 1
   vertex -0.63324594497680664 -0.40187010169029236 0
   vertex -0.63324594497680664 -0.40187010169029236 1
  endloop
 endfacet
 facet normal -0.8270806953002604 -0.56208319976818177 0
  outer loop
   vertex -0.63324594497680664 -0.40187010169029236 0
   vertex -0.60676276683807373 -0.44083893299102783 0
   vertex -0.63324594497680664 -0.40187010169029236 1
  endloop
 endfacet
 facet normal -0.8270806953002604 -0.56208319976818177 0
  outer loop
   vertex -0.63324594497680664 -0.40187010169029236 1
   vertex -0.60676276683807373 -0.44083893299102783 0
   vertex -0.60676276683807373 -0.44083893299102783 1
  endloop
 endfacet
 facet normal -0.79015465862867007 -0.61290750970061536 0
  outer loop
   vertex -0.60676276683807373 -0.44083893299102783 0
   vertex -0.57788491249084473 -0.47806799411773682 0
   vertex -0.60676276683807373 -0.44083893299102783 1
  endloop
 endfacet
 facet normal -0.79015465862867007 -0.61290750970061536 0
  outer loop
   vertex -0.60676276683807373 -0.44083893299102783 1
   vertex -0.57788491249084473 -0.47806799411773682 0
   vertex -0.57788491249084473 -0.47806799411773682 1
  endloop
 endfacet
 facet normal -0.75011120635125184 -0.66131171024432178 0
  outer loop
   vertex -0.57788491249084473 -0.47806799411773682 0
   vertex -0.54672646522521973 -0.51341032981872559 0
   vertex -0.57788491249084473 -0.47806799411773682 1
  endloop
 endfacet
 facet normal -0.75011120635125184 -0.66131171024432178 0
  outer loop
   vertex -0.57788491249084473 -0.47806799411773682 1
   vertex -0.54672646522521973 -0.51341032981872559 0
   vertex -0.54672646522521973 -0.51341032981872559 1
  endloop
 endfacet
 facet normal -0.70710678118654746 -0.70710678118654746 0
  outer loop
   vertex -0.54672646522521973 -0.51341032981872559 0
   vertex -0.51341032981872559 -0.54672646522521973 0
   vertex -0.54672646522521973 -0.51341032981872559 1
  endloop
 endfacet
 facet normal -0.70710678118654746 -0.70710678118654746 0
  outer loop
   vertex -0.54672646522521973 -0.51341032981872559 1
   vertex -0.51341032981872559 -0.54672646522521973 0
   vertex -0.51341032981872559 -0.54672646522521973 1
  endloop
 endfacet
 facet normal -0.66131171024432178 -0.75011120635125184 0
  outer loop
   vertex -0.51341032981872559 -0.54672646522521973 0
   vertex -0.47806799411773682 -0.57788491249084473 0
   vertex -0.51341032981872559 -0.54672646522521973 1
  endloop
 endfacet
 facet normal -0.66131171024432178 -0.75011120635125184 0
  outer loop
   vertex -0.51341032981872559 -0.54672646522521973 1
   vertex -0.47806799411773682 -0.57788491249084473 0
   vertex -0.47806799411773682 -0.57788491249084473 1
  endloop
 endfacet
 facet normal -0.61290750970061536 -0.79015465862867007 0
  outer loop
   vertex -0.47806799411773682 -0.57788491249084473 0
   vertex -0.44083893299102783 -0.60676276683807373 0
   vertex -0.47806799411773682 -0.57788491249084473 1
  endloop
 endfacet
 facet normal -0.61290750970061536 -0.79015465862867007 0
  outer loop
   vertex -0.47806799411773682 -0.57788491249084473 1
   vertex -0.44083893299102783 -0.60676276683807373 0
   vertex -0.44083893299102783 -0.60676276683807373 1
  endloop
 endfacet
 facet normal -0.56208319976818177 -0.8270806953002604 0
  outer loop
   vertex -0.44083893299102783 -0.60676276683807373 0
   vertex -0.40187010169029236 -0.63324594497680664 0
   vertex -0.44083893299102783 -0.60676276683807373 1
  endloop
 endfacet
 facet normal -0.56208319976818177 -0.8270806953002604 0
  outer loop
   vertex -0.44083893299102783 -0.60676276683807373 1
   vertex -0.40187010169029236 -0.63324594497680664 0
   vertex -0.40187010169029236 -0.63324594497680664 1
  endloop
 endfacet
 facet normal -0.50904145343134266 -0.86074200471947815 0
  outer loop
   vertex -0.40187010169029236 -0.63324594497680664 0
   vertex -0.36131525039672852 -0.65723001956939697 0
   vertex -0.40187010169029236 -0.63324594497680664 1
  endloop
 endfacet
 facet normal -0.50904145343134266 -0.86074200471947815 0
  outer loop
   vertex -0.40187010169029236 -0.63324594497680664 1
   vertex -0.36131525039672852 -0.65723001956939697 0
   vertex -0.36131525039672852 -0.65723001956939697 1
  endloop
 endfacet
 facet normal -0.45399027944116216 -0.89100663643596711 0
  outer loop
   vertex -0.36131525039672852 -0.65723001956939697 0
   vertex -0.319334477186203 -0.67862027883529663 0
   vertex -0.36131525039672852 -0.65723001956939697 1
  endloop
 endfacet
 facet normal -0.45399027944116216 -0.89100663643596711 0
  outer loop
   vertex -0.36131525039672852 -0.65723001956939697 1
   vertex -0.319334477186203 -0.67862027883529663 0
   vertex -0.319334477186203 -0.67862027883529663 1
  endloop
 endfacet
 facet normal -0.39714839917901767 -0.91775440561707122 0
  outer loop
   vertex -0.319334477186203 -0.67862027883529663 0
   vertex -0.27609342336654663 -0.69733238220214844 0
   vertex -0.319334477186203 -0.67862027883529663 1
  endloop
 endfacet
 facet normal -0.39714839917901767 -0.91775440561707122 0
  outer loop
   vertex -0.319334477186203 -0.67862027883529663 1
   vertex -0.27609342336654663 -0.69733238220214844 0
   vertex -0.27609342336654663 -0.69733238220214844 1
  endloop
 endfacet
 facet normal -0.33873706210993976 -0.94088107790152031 0
  outer loop
   vertex -0.27609342336654663 -0.69733238220214844 0
   vertex -0.23176275193691254 -0.71329236030578613 0
   vertex -0.27609342336654663 -0.69733238220214844 1
  endloop
 endfacet
 facet normal -0.33873706210993976 -0.94088107790152031 0
  outer loop
   vertex -0.27609342336654663 -0.69733238220214844 1
   vertex -0.23176275193691254 -0.71329236030578613 0
   vertex -0.23176275193691254 -0.71329236030578613 1
  endloop
 endfacet
 facet normal -0.27899198148149301 -0.96029343133702127 0
  outer loop
   vertex -0.23176275193691254 -0.71329236030578613 0
   vertex -0.18651741743087769 -0.72643738985061646 0
   vertex -0.23176275193691254 -0.71329236030578613 1
  endloop
 endfacet
 facet normal -0.27899198148149301 -0.96029343133702127 0
  outer loop
   vertex -0.23176275193691254 -0.71329236030578613 1
   vertex -0.18651741743087769 -0.72643738985061646 0
   vertex -0.18651741743087769 -0.72643738985061646 1
  endloop
 endfacet
 facet normal -0.21814278146669361 -0.97591686474513506 0
  outer loop
   vertex -0.18651741743087769 -0.72643738985061646 0
   vertex -0.14053598046302795 -0.73671543598175049 0
   vertex -0.18651741743087769 -0.72643738985061646 1
  endloop
 endfacet
 facet normal -0.21814278146669361 -0.97591686474513506 0
  outer loop
   vertex -0.18651741743087769 -0.72643738985061646 1
   vertex -0.14053598046302795 -0.73671543598175049 0
   vertex -0.14053598046302795 -0.73671543598175049 1
  endloop
 endfacet
 facet normal -0.15643454025441772 -0.98768832868237799 0
  outer loop
   vertex -0.14053598046302795 -0.73671543598175049 0
   vertex -0.093999922275543213 -0.74408602714538574 0
   vertex -0.14053598046302795 -0.73671543598175049 1
  endloop
 endfacet
 facet normal -0.15643454025441772 -0.98768832868237799 0
  outer loop
   vertex -0.14053598046302795 -0.73671543598175049 1
   vertex -0.093999922275543213 -0.74408602714538574 0
   vertex -0.093999922275543213 -0.74408602714538574 1
  endloop
 endfacet
 facet normal -0.094107668672848144 -0.9955620255398262 0
  outer loop
   vertex -0.093999922275543213 -0.74408602714538574 0
   vertex -0.047092888504266739 -0.74852001667022705 0
   vertex -0.093999922275543213 -0.74408602714538574 1
  endloop
 endfacet
 facet normal -0.094107668672848144 -0.9955620255398262 0
  outer loop
   vertex -0.093999922275543213 -0.74408602714538574 1
   vertex -0.047092888504266739 -0.74852001667022705 0
   vertex -0.047092888504266739 -0.74852001667022705 1
  endloop
 endfacet
 facet normal -0.031411388535434383 -0.99950654058404043 0
  outer loop
   vertex -0.047092888504266739 -0.74852001667022705 0
   vertex -1.3777276760710893e-16 -0.75 0
   vertex -0.047092888504266739 -0.74852001667022705 1
  endloop
 endfacet
 facet normal -0.031411388535434383 -0.99950654058404043 0
  outer loop
   vertex -0.047092888504266739 -0.74852001667022705 1
   vertex -1.3777276760710893e-16 -0.75 0
   vertex -1.3777276760710893e-16 -0.75 1
  endloop
 endfacet
 facet normal 0.031411388535434195 -0.99950654058404043 0
  outer loop
   vertex -1.3777276760710893e-16 -0.75 0
   vertex 0.047092888504266739 -0.74852001667022705 0
   vertex -1.3777276760710893e-16 -0.75 1
  endloop
 endfacet
 facet normal 0.031411388535434195 -0.99950654058404043 0
  outer loop
   vertex -1.3777276760710893e-16 -0.75 1
   vertex 0.047092888504266739 -0.74852001667022705 0
   vertex 0.047092888504266739 -0.74852001667022705 1
  endloop
 endfacet
 facet normal 0.094107668672848144 -0.9955620255398262 0
  outer loop
   vertex 0.047092888504266739 -0.74852001667022705 0
   vertex 0.093999922275543213 -0.74408602714538574 0
   vertex 0.047092888504266739 -0.74852001667022705 1
  endloop
 endfacet
 facet normal 0.094107668672848144 -0.9955620255398262 0
  outer loop
   vertex 0.047092888504266739 -0.74852001667022705 1
   vertex 0.093999922275543213 -0.74408602714538574 0
   vertex 0.093999922275543213 -0.74408602714538574 1
  endloop
 endfacet
 facet normal 0.15643454025441772 -0.98768832868237799 0
  outer loop
   vertex 0.093999922275543213 -0.74408602714538574 0
   vertex 0.14053598046302795 -0.73671543598175049 0
   vertex 0.093999922275543213 -0.74408602714538574 1
  endloop
 endfacet
 facet normal 0.15643454025441772 -0.98768832868237799 0
  outer loop
   vertex 0.093999922275543213 -0.74408602714538574 1
   vertex 0.14053598046302795 -0.73671543598175049 0
   vertex 0.14053598046302795 -0.73671543598175049 1
  endloop
 endfacet
 facet normal 0.21814278146669361 -0.97591686474513506 0
  outer loop
   vertex 0.14053598046302795 -0.73671543598175049 0
   vertex 0.18651741743087769 -0.72643738985061646 0
   vertex 0.14053598046302795 -0.73671543598175049 1
  endloop
 endfacet
 facet normal 0.21814278146669361 -0.97591686474513506 0
  outer loop
   vertex 0.14053598046302795 -0.73671543598175049 1
   vertex 0.18651741743087769 -0.72643738985061646 0
   vertex 0.18651741743087769 -0.72643738985061646 1
  endloop
 endfacet
 facet normal 0.27899198148149301 -0.96029343133702127 0
  outer loop
   vertex 0.18651741743087769 -0.72643738985061646 0
   vertex 0.23176275193691254 -0.71329236030578613 0
   vertex 0.18651741743087769 -0.72643738985061646 1
  endloop
 endfacet
 facet normal 0.27899198148149301 -0.96029343133702127 0
  outer loop
   vertex 0.18651741743087769 -0.72643738985061646 1
   vertex 0.23176275193691254 -0.71329236030578613 0
   vertex 0.23176275193691254 -0.71329236030578613 1
  endloop
 endfacet
 facet normal 0.33873706210993976 -0.94088107790152031 0
  outer loop
   vertex 0.23176275193691254 -0.71329236030578613 0
   vertex 0.27609342336654663 -0.69733238220214844 0
   vertex 0.23176275193691254 -0.71329236030578613 1
  endloop
 endfacet
 facet normal 0.33873706210993976 -0.94088107790152031 0
  outer loop
   vertex 0.23176275193691254 -0.71329236030578613 1
   vertex 0.27609342336654663 -0.69733238220214844 0
   vertex 0.27609342336654663 -0.69733238220214844 1
  endloop
 endfacet
 facet normal 0.39714839917901767 -0.91775440561707122 0
  outer loop
   vertex 0.27609342336654663 -0.69733238220214844 0
   vertex 0.319334477186203 -0.67862027883529663 0
   vertex 0.27609342336654663 -0.69733238220214844 1
  endloop
 endfacet
 facet normal 0.39714839917901767 -0.91775440561707122 0
  outer loop
   vertex 0.27609342336654663 -0.69733238220214844 1
   vertex 0.319334477186203 -0.67862027883529663 0
   vertex 0.319334477186203 -0.67862027883529663 1
  endloop
 endfacet
 facet normal 0.45399027944116216 -0.89100663643596711 0
  outer loop
   vertex 0.319334477186203 -0.67862027883529663 0
   vertex 0.36131525039672852 -0.65723001956939697 0
   vertex 0.319334477186203 -0.67862027883529663 1
  endloop
 endfacet
 facet normal 0.45399027944116216 -0.89100663643596711 0
  outer loop
   vertex 0.319334477186203 -0.67862027883529663 1
   vertex 0.36131525039672852 -0.65723001956939697 0
   vertex 0.36131525039672852 -0.65723001956939697 1
  endloop
 endfacet
 facet normal 0.50904145343134266 -0.86074200471947815 0
  outer loop
   vertex 0.36131525039672852 -0.65723001956939697 0
   vertex 0.40187010169029236 -0.63324594497680664 0
   vertex 0.36131525039672852 -0.65723001956939697 1
  endloop
 endfacet
 facet normal 0.50904145343134266 -0.86074200471947815 0
  outer loop
   vertex 0.36131525039672852 -0.65723001956939697 1
   vertex 0.40187010169029236 -0.63324594497680664 0
   vertex 0.40187010169029236 -0.63324594497680664 1
  endloop
 endfacet
 facet normal 0.56208319976818177 -0.8270806953002604 0
  outer loop
   vertex 0.40187010169029236 -0.63324594497680664 0
   vertex 0.44083893299102783 -0.60676276683807373 0
   vertex 0.40187010169029236 -0.63324594497680664 1
  endloop
 endfacet
 facet normal 0.56208319976818177 -0.8270806953002604 0
  outer loop
   vertex 0.40187010169029236 -0.63324594497680664 1
   vertex 0.44083893299102783 -0.60676276683807373 0
   vertex 0.44083893299102783 -0.60676276683807373 1
  endloop
 endfacet
 facet normal 0.61290750970061536 -0.79015465862867007 0
  outer loop
   vertex 0.44083893299102783 -0.60676276683807373 0
   vertex 0.47806799411773682 -0.57788491249084473 0
   vertex 0.44083893299102783 -0.60676276683807373 1
  endloop
 endfacet
 facet normal 0.61290750970061536 -0.79015465862867007 0
  outer loop
   vertex 0.44083893299102783 -0.60676276683807373 1
   vertex 0.47806799411773682 -0.57788491249084473 0
   vertex 0.47806799411773682 -0.57788491249084473 1
  endloop
 endfacet
 facet normal 0.66131171024432178 -0.75011120635125184 0
  outer loop
   vertex 0.47806799411773682 -0.57788491249084473 0
   vertex 0.51341032981872559 -0.54672646522521973 0
   vertex 0.47806799411773682 -0.57788491249084473 1
  endloop
 endfacet
 facet normal 0.66131171024432178 -0.75011120635125184 0
  outer loop
   vertex 0.47806799411773682 -0.57788491249084473 1
   vertex 0.51341032981872559 -0.54672646522521973 0
   vertex 0.51341032981872559 -0.54672646522521973 1
  endloop
 endfacet
 facet normal 0.70710678118654746 -0.70710678118654746 0
  outer loop
   vertex 0.51341032981872559 -0.54672646522521973 0
   vertex 0.54672646522521973 -0.51341032981872559 0
   vertex 0.51341032981872559 -0.54672646522521973 1
  endloop
 endfacet
 facet normal 0.70710678118654746 -0.70710678118654746 0
  outer loop
   vertex 0.51341032981872559 -0.54672646522521973 1
   vertex 0.54672646522521973 -0.51341032981872559 0
   vertex 0.54672646522521973 -0.51341032981872559 1
  endloop
 endfacet
 facet normal 0.75011120635125184 -0.66131171024432178 0
  outer loop
   vertex 0.54672646522521973 -0.51341032981872559 0
   vertex 0.57788491249084473 -0.47806799411773682 0
   vertex 0.54672646522521973 -0.51341032981872559 1
  endloop
 endfacet
 facet normal 0.75011120635125184 -0.66131171024432178 0
  outer loop
   vertex 0.54672646522521973 -0.51341032981872559 1
   vertex 0.57788491249084473 -0.47806799411773682 0
   vertex 0.57788491249084473 -0.47806799411773682 1
  endloop
 endfacet
 facet normal 0.79015465862867007 -0.61290750970061536 0
  outer loop
   vertex 0.57788491249084473 -0.47806799411773682 0
   vertex 0.60676276683807373 -0.44083893299102783 0
   vertex 0.57788491249084473 -0.47806799411773682 1
  endloop
 endfacet
 facet normal 0.79015465862867007 -0.61290750970061536 0
  outer loop
   vertex 0.57788491249084473 -0.47806799411773682 1
   vertex 0.60676276683807373 -0.44083893299102783 0
   vertex 0.60676276683807373 -0.44083893299102783 1
  endloop
 endfacet
 facet normal 0.8270806953002604 -0.56208319976818177 0
  outer loop
   vertex 0.60676276683807373 -0.44083893299102783 0
   vertex 0.63324594497680664 -0.40187010169029236 0
   vertex 0.60676276683807373 -0.44083893299102783 1
  endloop
 endfacet
 facet normal 0.8270806953002604 -0.56208319976818177 0
  outer loop
   vertex 0.60676276683807373 -0.44083893299102783 1
   vertex 0.63324594497680664 -0.40187010169029236 0
   vertex 0.63324594497680664 -0.40187010169029236 1
  endloop
 endfacet
 facet normal 0.86074200471947815 -0.50904145343134266 0
  outer loop
   vertex 0.63324594497680664 -0.40187010169029236 0
   vertex 0.65723001956939697 -0.36131525039672852 0
   vertex 0.63324594497680664 -0.40187010169029236 1
  endloop
 endfacet
 facet normal 0.86074200471947815 -0.50904145343134266 0
  outer loop
   vertex 0.63324594497680664 -0.40187010169029236 1
   vertex 0.65723001956939697 -0.36131525039672852 0
   vertex 0.65723001956939697 -0.36131525039672852 1
  endloop
 endfacet
 facet normal 0.89100663643596711 -0.45399027944116216 0
  outer loop
   vertex 0.65723001956939697 -0.36131525039672852 0
   vertex 0.67862027883529663 -0.319334477186203 0
   vertex 0.65723001956939697 -0.36131525039672852 1
  endloop
 endfacet
 facet normal 0.89100663643596711 -0.45399027944116216 0
  outer loop
   vertex 0.65723001956939697 -0.36131525039672852 1
   vertex 0.67862027883529663 -0.319334477186203 0
   vertex 0.67862027883529663 -0.319334477186203 1
  endloop
 endfacet
 facet normal 0.91775440561707122 -0.39714839917901767 0
  outer loop
   vertex 0.67862027883529663 -0.319334477186203 0
   vertex 0.69733238220214844 -0.27609342336654663 0
   vertex 0.67862027883529663 -0.319334477186203 1
  endloop
 endfacet
 facet normal 0.91775440561707122 -0.39714839917901767 0
  outer loop
   vertex 0.67862027883529663 -0.319334477186203 1
   vertex 0.69733238220214844 -0.27609342336654663 0
   vertex 0.69733238220214844 -0.27609342336654663 1
  endloop
 endfacet
 facet normal 0.94088107790152031 -0.33873706210993976 0
  outer loop
   vertex 0.69733238220214844 -0.27609342336654663 0
   vertex 0.71329236030578613 -0.23176275193691254 0
   vertex 0.69733238220214844 -0.27609342336654663 1
  endloop
 endfacet
 facet normal 0.94088107790152031 -0.33873706210993976 0
  outer loop
   vertex 0.69733238220214844 -0.27609342336654663 1
   vertex 0.71329236030578613 -0.23176275193691254 0
   vertex 0.71329236030578613 -0.23176275193691254 1
  endloop
 endfacet
 facet normal 0.96029343133702127 -0.27899198148149301 0
  outer loop
   vertex 0.71329236030578613 -0.23176275193691254 0
   vertex 0.72643738985061646 -0.18651741743087769 0
   vertex 0.71329236030578613 -0.23176275193691254 1
  endloop
 endfacet
 facet normal 0.96029343133702127 -0.27899198148149301 0
  outer loop
   vertex 0.71329236030578613 -0.23176275193691254 1
   vertex 0.72643738985061646 -0.18651741743087769 0
   vertex 0.72643738985061646 -0.18651741743087769 1
  endloop
 endfacet
 facet normal 0.97591686474513506 -0.21814278146669361 0
  outer loop
   vertex 0.72643738985061646 -0.18651741743087769 0
   vertex 0.73671543598175049 -0.14053598046302795 0
   vertex 0.72643738985061646 -0.18651741743087769 1
  endloop
 endfacet
 facet normal 0.97591686474513506 -0.21814278146669361 0
  outer loop
   vertex 0.72643738985061646 -0.18651741743087769 1
   vertex 0.73671543598175049 -0.14053598046302795 0
   vertex 0.73671543598175049 -0.14053598046302795 1
  endloop
 endfacet
 facet normal 0.98768832868237799 -0.15643454025441772 0
  outer loop
   vertex 0.73671543598175049 -0.14053598046302795 0
   vertex 0.74408602714538574 -0.093999922275543213 0
   vertex 0.73671543598175049 -0.14053598046302795 1
  endloop
 endfacet
 facet normal 0.98768832868237799 -0.15643454025441772 0
  outer loop
   vertex 0.73671543598175049 -0.14053598046302795 1
   vertex 0.74408602714538574 -0.093999922275543213 0
   vertex 0.74408602714538574 -0.093999922275543213 1
  endloop
 endfacet
 facet normal 0.9955620255398262 -0.094107668672848144 0
  outer loop
   vertex 0.74408602714538574 -0.093999922275543213 0
   vertex 0.74852001667022705 -0.047092888504266739 0
   vertex 0.74408602714538574 -0.093999922275543213 1
  endloop
 endfacet
 facet normal 0.9955620255398262 -0.094107668672848144 0
  outer loop
   vertex 0.74408602714538574 -0.093999922275543213 1
   vertex 0.74852001667022705 -0.047092888504266739 0
   vertex 0.74852001667022705 -0.047092888504266739 1
  endloop
 endfacet
 facet normal 0.99950654058404043 -0.031411388535434293 0
  outer loop
   vertex 0.74852001667022705 -0.047092888504266739 0
   vertex 0.75 0 0
   vertex 0.74852001667022705 -0.047092888504266739 1
  endloop
 endfacet
 facet normal 0.99950654058404043 -0.031411388535434293 0
  outer loop
   vertex 0.74852001667022705 -0.047092888504266739 1
   vertex 0.75 0 0
   vertex 0.75 0 1
  endloop
 endfacet
endsolid
solid Visualization Toolkit generated SLA File
 facet normal -1 0 0
  outer loop
   vertex -20 15 0
   vertex -20 -15 0
   vertex -20 15 1
  endloop
 endfacet
 facet normal -1 0 0
  outer loop
   vertex -20 15 1
   vertex -20 -15 0
   vertex -20 -15 1
  endloop
 endfacet
endsolid
solid Visualization Toolkit generated SLA File
 facet normal 0 -1 0
  outer loop
   vertex -20 -15 0
   vertex 30 -15 0
   vertex -20 -15 1
  endloop
 endfacet
 facet normal 0 -1 0
  outer loop
   vertex -20 -15 1
   vertex 30 -15 0
   vertex 30 -15 1
  endloop
 endfacet
 facet normal 0 1 0
  outer loop
   vertex 30 15 0
   vertex -20 15 0
   vertex 30 15 1
  endloop
 endfacet
 facet normal 0 1 0
  outer loop
   vertex 30 15 1
   vertex -20 15 0
   vertex -20 15 1
  endloop
 endfacet
endsolid
solid Visualization Toolkit generated SLA File
 facet normal -1 0 0
  outer loop
   vertex 30 15 0
   vertex 30 -15 0
   vertex 30 15 1
  endloop
 endfacet
 facet normal -1 0 0
  outer loop
   vertex 30 15 1
   vertex 30 -15 0
   vertex 30 -15 1
  endloop
 endfacet
endsolid
