solid Visualization Toolkit generated SLA File
 facet normal 0.99950656048165454 0.031410755389397915 0
  outer loop
   vertex 0.5 0 0
   vertex 0.49901336431503296 0.031395260244607925 0
   vertex 0.5 0 1
  endloop
 endfacet
 facet normal 0.99950656048165454 0.031410755389397915 -0
  outer loop
   vertex 0.5 0 1
   vertex 0.49901336431503296 0.031395260244607925 0
   vertex 0.49901336431503296 0.031395260244607925 1
  endloop
 endfacet
 facet normal 0.99556199625906583 0.094107978432563522 0
  outer loop
   vertex 0.49901336431503296 0.031395260244607925 0
   vertex 0.49605736136436462 0.062666617333889008 0
   vertex 0.49901336431503296 0.031395260244607925 1
  endloop
 endfacet
 facet normal 0.99556199625906583 0.094107978432563522 -0
  outer loop
   vertex 0.49901336431503296 0.031395260244607925 1
   vertex 0.49605736136436462 0.062666617333889008 0
   vertex 0.49605736136436462 0.062666617333889008 1
  endloop
 endfacet
 facet normal 0.98768823095104485 0.15643515730421731 0
  outer loop
   vertex 0.49605736136436462 0.062666617333889008 0
   vertex 0.4911436140537262 0.093690656125545502 0
   vertex 0.49605736136436462 0.062666617333889008 1
  endloop
 endfacet
 facet normal 0.98768823095104485 0.15643515730421731 -0
  outer loop
   vertex 0.49605736136436462 0.062666617333889008 1
   vertex 0.4911436140537262 0.093690656125545502 0
   vertex 0.4911436140537262 0.093690656125545502 1
  endloop
 endfacet
 facet normal 0.97591686098267283 0.21814279829901859 0
  outer loop
   vertex 0.4911436140537262 0.093690656125545502 0
   vertex 0.48429158329963684 0.12434494495391846 0
   vertex 0.4911436140537262 0.093690656125545502 1
  endloop
 endfacet
 facet normal 0.97591686098267283 0.21814279829901859 -0
  outer loop
   vertex 0.4911436140537262 0.093690656125545502 1
   vertex 0.48429158329963684 0.12434494495391846 0
   vertex 0.48429158329963684 0.12434494495391846 1
  endloop
 endfacet
 facet normal 0.96029377026325347 0.27899081489107441 0
  outer loop
   vertex 0.48429158329963684 0.12434494495391846 0
   vertex 0.47552827000617981 0.15450850129127502 0
   vertex 0.48429158329963684 0.12434494495391846 1
  endloop
 endfacet
 facet normal 0.96029377026325347 0.27899081489107441 -0
  outer loop
   vertex 0.48429158329963684 0.12434494495391846 1
   vertex 0.47552827000617981 0.15450850129127502 0
   vertex 0.47552827000617981 0.15450850129127502 1
  endloop
 endfacet
 facet normal 0.94088063842334979 0.33873828280852747 0
  outer loop
   vertex 0.47552827000617981 0.15450850129127502 0
   vertex 0.46488824486732483 0.18406227231025696 0
   vertex 0.47552827000617981 0.15450850129127502 1
  endloop
 endfacet
 facet normal 0.94088063842334979 0.33873828280852747 -0
  outer loop
   vertex 0.47552827000617981 0.15450850129127502 1
   vertex 0.46488824486732483 0.18406227231025696 0
   vertex 0.46488824486732483 0.18406227231025696 1
  endloop
 endfacet
 facet normal 0.91775463616404651 0.39714786641677741 0
  outer loop
   vertex 0.46488824486732483 0.18406227231025696 0
   vertex 0.45241352915763855 0.21288964152336121 0
   vertex 0.46488824486732483 0.18406227231025696 1
  endloop
 endfacet
 facet normal 0.91775463616404651 0.39714786641677741 -0
  outer loop
   vertex 0.46488824486732483 0.18406227231025696 1
   vertex 0.45241352915763855 0.21288964152336121 0
   vertex 0.45241352915763855 0.21288964152336121 1
  endloop
 endfacet
 facet normal 0.89100635041759924 0.45399084078372126 0
  outer loop
   vertex 0.45241352915763855 0.21288964152336121 0
   vertex 0.43815332651138306 0.24087683856487274 0
   vertex 0.45241352915763855 0.21288964152336121 1
  endloop
 endfacet
 facet normal 0.89100635041759924 0.45399084078372126 -0
  outer loop
   vertex 0.45241352915763855 0.21288964152336121 1
   vertex 0.43815332651138306 0.24087683856487274 0
   vertex 0.43815332651138306 0.24087683856487274 1
  endloop
 endfacet
 facet normal 0.86074224088838514 0.50904105409135847 0
  outer loop
   vertex 0.43815332651138306 0.24087683856487274 0
   vertex 0.42216396331787109 0.26791340112686157 0
   vertex 0.43815332651138306 0.24087683856487274 1
  endloop
 endfacet
 facet normal 0.86074224088838514 0.50904105409135847 -0
  outer loop
   vertex 0.43815332651138306 0.24087683856487274 1
   vertex 0.42216396331787109 0.26791340112686157 0
   vertex 0.42216396331787109 0.26791340112686157 1
  endloop
 endfacet
 facet normal 0.82708054827257826 0.56208341611288581 0
  outer loop
   vertex 0.42216396331787109 0.26791340112686157 0
   vertex 0.40450850129127502 0.29389262199401855 0
   vertex 0.42216396331787109 0.26791340112686157 1
  endloop
 endfacet
 facet normal 0.82708054827257826 0.56208341611288581 -0
  outer loop
   vertex 0.42216396331787109 0.26791340112686157 1
   vertex 0.40450850129127502 0.29389262199401855 0
   vertex 0.40450850129127502 0.29389262199401855 1
  endloop
 endfacet
 facet normal 0.79015496495702975 0.61290711478474036 0
  outer loop
   vertex 0.40450850129127502 0.29389262199401855 0
   vertex 0.38525661826133728 0.31871199607849121 0
   vertex 0.40450850129127502 0.29389262199401855 1
  endloop
 endfacet
 facet normal 0.79015496495702975 0.61290711478474036 -0
  outer loop
   vertex 0.40450850129127502 0.29389262199401855 1
   vertex 0.38525661826133728 0.31871199607849121 0
   vertex 0.38525661826133728 0.31871199607849121 1
  endloop
 endfacet
 facet normal 0.75011118777889374 0.66131173131053489 0
  outer loop
   vertex 0.38525661826133728 0.31871199607849121 0
   vertex 0.36448431015014648 0.34227356314659119 0
   vertex 0.38525661826133728 0.31871199607849121 1
  endloop
 endfacet
 facet normal 0.75011118777889374 0.66131173131053489 -0
  outer loop
   vertex 0.38525661826133728 0.31871199607849121 1
   vertex 0.36448431015014648 0.34227356314659119 0
   vertex 0.36448431015014648 0.34227356314659119 1
  endloop
 endfacet
 facet normal 0.70710678118654757 0.70710678118654757 0
  outer loop
   vertex 0.36448431015014648 0.34227356314659119 0
   vertex 0.34227356314659119 0.36448431015014648 0
   vertex 0.36448431015014648 0.34227356314659119 1
  endloop
 endfacet
 facet normal 0.70710678118654757 0.70710678118654757 -0
  outer loop
   vertex 0.36448431015014648 0.34227356314659119 1
   vertex 0.34227356314659119 0.36448431015014648 0
   vertex 0.34227356314659119 0.36448431015014648 1
  endloop
 endfacet
 facet normal 0.66131173131053489 0.75011118777889374 0
  outer loop
   vertex 0.34227356314659119 0.36448431015014648 0
   vertex 0.31871199607849121 0.38525661826133728 0
   vertex 0.34227356314659119 0.36448431015014648 1
  endloop
 endfacet
 facet normal 0.66131173131053489 0.75011118777889374 -0
  outer loop
   vertex 0.34227356314659119 0.36448431015014648 1
   vertex 0.31871199607849121 0.38525661826133728 0
   vertex 0.31871199607849121 0.38525661826133728 1
  endloop
 endfacet
 facet normal 0.61290711478474036 0.79015496495702975 0
  outer loop
   vertex 0.31871199607849121 0.38525661826133728 0
   vertex 0.29389262199401855 0.40450850129127502 0
   vertex 0.31871199607849121 0.38525661826133728 1
  endloop
 endfacet
 facet normal 0.61290711478474036 0.79015496495702975 -0
  outer loop
   vertex 0.31871199607849121 0.38525661826133728 1
   vertex 0.29389262199401855 0.40450850129127502 0
   vertex 0.29389262199401855 0.40450850129127502 1
  endloop
 endfacet
 facet normal 0.56208341611288581 0.82708054827257826 0
  outer loop
   vertex 0.29389262199401855 0.40450850129127502 0
   vertex 0.26791340112686157 0.42216396331787109 0
   vertex 0.29389262199401855 0.40450850129127502 1
  endloop
 endfacet
 facet normal 0.56208341611288581 0.82708054827257826 -0
  outer loop
   vertex 0.29389262199401855 0.40450850129127502 1
   vertex 0.26791340112686157 0.42216396331787109 0
   vertex 0.26791340112686157 0.42216396331787109 1
  endloop
 endfacet
 facet normal 0.50904105409135847 0.86074224088838514 0
  outer loop
   vertex 0.26791340112686157 0.42216396331787109 0
   vertex 0.24087683856487274 0.43815332651138306 0
   vertex 0.26791340112686157 0.42216396331787109 1
  endloop
 endfacet
 facet normal 0.50904105409135847 0.86074224088838514 -0
  outer loop
   vertex 0.26791340112686157 0.42216396331787109 1
   vertex 0.24087683856487274 0.43815332651138306 0
   vertex 0.24087683856487274 0.43815332651138306 1
  endloop
 endfacet
 facet normal 0.45399084078372126 0.89100635041759924 0
  outer loop
   vertex 0.24087683856487274 0.43815332651138306 0
   vertex 0.21288964152336121 0.45241352915763855 0
   vertex 0.24087683856487274 0.43815332651138306 1
  endloop
 endfacet
 facet normal 0.45399084078372126 0.89100635041759924 -0
  outer loop
   vertex 0.24087683856487274 0.43815332651138306 1
   vertex 0.21288964152336121 0.45241352915763855 0
   vertex 0.21288964152336121 0.45241352915763855 1
  endloop
 endfacet
 facet normal 0.39714786641677741 0.91775463616404651 0
  outer loop
   vertex 0.21288964152336121 0.45241352915763855 0
   vertex 0.18406227231025696 0.46488824486732483 0
   vertex 0.21288964152336121 0.45241352915763855 1
  endloop
 endfacet
 facet normal 0.39714786641677741 0.91775463616404651 -0
  outer loop
   vertex 0.21288964152336121 0.45241352915763855 1
   vertex 0.18406227231025696 0.46488824486732483 0
   vertex 0.18406227231025696 0.46488824486732483 1
  endloop
 endfacet
 facet normal 0.33873828280852747 0.94088063842334979 0
  outer loop
   vertex 0.18406227231025696 0.46488824486732483 0
   vertex 0.15450850129127502 0.47552827000617981 0
   vertex 0.18406227231025696 0.46488824486732483 1
  endloop
 endfacet
 facet normal 0.33873828280852747 0.94088063842334979 -0
  outer loop
   vertex 0.18406227231025696 0.46488824486732483 1
   vertex 0.15450850129127502 0.47552827000617981 0
   vertex 0.15450850129127502 0.47552827000617981 1
  endloop
 endfacet
 facet normal 0.27899081489107441 0.96029377026325347 0
  outer loop
   vertex 0.15450850129127502 0.47552827000617981 0
   vertex 0.12434494495391846 0.48429158329963684 0
   vertex 0.15450850129127502 0.47552827000617981 1
  endloop
 endfacet
 facet normal 0.27899081489107441 0.96029377026325347 -0
  outer loop
   vertex 0.15450850129127502 0.47552827000617981 1
   vertex 0.12434494495391846 0.48429158329963684 0
   vertex 0.12434494495391846 0.48429158329963684 1
  endloop
 endfacet
 facet normal 0.21814279829901859 0.97591686098267283 0
  outer loop
   vertex 0.12434494495391846 0.48429158329963684 0
   vertex 0.093690656125545502 0.4911436140537262 0
   vertex 0.12434494495391846 0.48429158329963684 1
  endloop
 endfacet
 facet normal 0.21814279829901859 0.97591686098267283 -0
  outer loop
   vertex 0.12434494495391846 0.48429158329963684 1
   vertex 0.093690656125545502 0.4911436140537262 0
   vertex 0.093690656125545502 0.4911436140537262 1
  endloop
 endfacet
 facet normal 0.15643515730421731 0.98768823095104485 0
  outer loop
   vertex 0.093690656125545502 0.4911436140537262 0
   vertex 0.062666617333889008 0.49605736136436462 0
   vertex 0.093690656125545502 0.4911436140537262 1
  endloop
 endfacet
 facet normal 0.15643515730421731 0.98768823095104485 -0
  outer loop
   vertex 0.093690656125545502 0.4911436140537262 1
   vertex 0.062666617333889008 0.49605736136436462 0
   vertex 0.062666617333889008 0.49605736136436462 1
  endloop
 endfacet
 facet normal 0.094107978432563522 0.99556199625906583 0
  outer loop
   vertex 0.062666617333889008 0.49605736136436462 0
   vertex 0.031395260244607925 0.49901336431503296 0
   vertex 0.062666617333889008 0.49605736136436462 1
  endloop
 endfacet
 facet normal 0.094107978432563522 0.99556199625906583 -0
  outer loop
   vertex 0.062666617333889008 0.49605736136436462 1
   vertex 0.031395260244607925 0.49901336431503296 0
   vertex 0.031395260244607925 0.49901336431503296 1
  endloop
 endfacet
 facet normal 0.031410755389397832 0.99950656048165454 0
  outer loop
   vertex 0.031395260244607925 0.49901336431503296 0
   vertex -8.0406131147886458e-17 0.5 0
   vertex 0.031395260244607925 0.49901336431503296 1
  endloop
 endfacet
 facet normal 0.031410755389397832 0.99950656048165454 -0
  outer loop
   vertex 0.031395260244607925 0.49901336431503296 1
   vertex -8.0406131147886458e-17 0.5 0
   vertex -8.0406131147886458e-17 0.5 1
  endloop
 endfacet
 facet normal -0.031410755389397998 0.99950656048165454 0
  outer loop
   vertex -8.0406131147886458e-17 0.5 0
   vertex -0.031395260244607925 0.49901336431503296 0
   vertex -8.0406131147886458e-17 0.5 1
  endloop
 endfacet
 facet normal -0.031410755389397998 0.99950656048165454 0
  outer loop
   vertex -8.0406131147886458e-17 0.5 1
   vertex -0.031395260244607925 0.49901336431503296 0
   vertex -0.031395260244607925 0.49901336431503296 1
  endloop
 endfacet
 facet normal -0.094107978432563522 0.99556199625906583 0
  outer loop
   vertex -0.031395260244607925 0.49901336431503296 0
   vertex -0.062666617333889008 0.49605736136436462 0
   vertex -0.031395260244607925 0.49901336431503296 1
  endloop
 endfacet
 facet normal -0.094107978432563522 0.99556199625906583 0
  outer loop
   vertex -0.031395260244607925 0.49901336431503296 1
   vertex -0.062666617333889008 0.49605736136436462 0
   vertex -0.062666617333889008 0.49605736136436462 1
  endloop
 endfacet
 facet normal -0.15643515730421731 0.98768823095104485 0
  outer loop
   vertex -0.062666617333889008 0.49605736136436462 0
   vertex -0.093690656125545502 0.4911436140537262 0
   vertex -0.062666617333889008 0.49605736136436462 1
  endloop
 endfacet
 facet normal -0.15643515730421731 0.98768823095104485 0
  outer loop
   vertex -0.062666617333889008 0.49605736136436462 1
   vertex -0.093690656125545502 0.4911436140537262 0
   vertex -0.093690656125545502 0.4911436140537262 1
  endloop
 endfacet
 facet normal -0.21814279829901859 0.97591686098267283 0
  outer loop
   vertex -0.093690656125545502 0.4911436140537262 0
   vertex -0.12434494495391846 0.48429158329963684 0
   vertex -0.093690656125545502 0.4911436140537262 1
  endloop
 endfacet
 facet normal -0.21814279829901859 0.97591686098267283 0
  outer loop
   vertex -0.093690656125545502 0.4911436140537262 1
   vertex -0.12434494495391846 0.48429158329963684 0
   vertex -0.12434494495391846 0.48429158329963684 1
  endloop
 endfacet
 facet normal -0.27899081489107441 0.96029377026325347 0
  outer loop
   vertex -0.12434494495391846 0.48429158329963684 0
   vertex -0.15450850129127502 0.47552827000617981 0
   vertex -0.12434494495391846 0.48429158329963684 1
  endloop
 endfacet
 facet normal -0.27899081489107441 0.96029377026325347 0
  outer loop
   vertex -0.12434494495391846 0.48429158329963684 1
   vertex -0.15450850129127502 0.47552827000617981 0
   vertex -0.15450850129127502 0.47552827000617981 1
  endloop
 endfacet
 facet normal -0.33873828280852747 0.94088063842334979 0
  outer loop
   vertex -0.15450850129127502 0.47552827000617981 0
   vertex -0.18406227231025696 0.46488824486732483 0
   vertex -0.15450850129127502 0.47552827000617981 1
  endloop
 endfacet
 facet normal -0.33873828280852747 0.94088063842334979 0
  outer loop
   vertex -0.15450850129127502 0.47552827000617981 1
   vertex -0.18406227231025696 0.46488824486732483 0
   vertex -0.18406227231025696 0.46488824486732483 1
  endloop
 endfacet
 facet normal -0.39714786641677741 0.91775463616404651 0
  outer loop
   vertex -0.18406227231025696 0.46488824486732483 0
   vertex -0.21288964152336121 0.45241352915763855 0
   vertex -0.18406227231025696 0.46488824486732483 1
  endloop
 endfacet
 facet normal -0.39714786641677741 0.91775463616404651 0
  outer loop
   vertex -0.18406227231025696 0.46488824486732483 1
   vertex -0.21288964152336121 0.45241352915763855 0
   vertex -0.21288964152336121 0.45241352915763855 1
  endloop
 endfacet
 facet normal -0.45399084078372126 0.89100635041759924 0
  outer loop
   vertex -0.21288964152336121 0.45241352915763855 0
   vertex -0.24087683856487274 0.43815332651138306 0
   vertex -0.21288964152336121 0.45241352915763855 1
  endloop
 endfacet
 facet normal -0.45399084078372126 0.89100635041759924 0
  outer loop
   vertex -0.21288964152336121 0.45241352915763855 1
   vertex -0.24087683856487274 0.43815332651138306 0
   vertex -0.24087683856487274 0.43815332651138306 1
  endloop
 endfacet
 facet normal -0.50904105409135847 0.86074224088838514 0
  outer loop
   vertex -0.24087683856487274 0.43815332651138306 0
   vertex -0.26791340112686157 0.42216396331787109 0
   vertex -0.24087683856487274 0.43815332651138306 1
  endloop
 endfacet
 facet normal -0.50904105409135847 0.86074224088838514 0
  outer loop
   vertex -0.24087683856487274 0.43815332651138306 1
   vertex -0.26791340112686157 0.42216396331787109 0
   vertex -0.26791340112686157 0.42216396331787109 1
  endloop
 endfacet
 facet normal -0.56208341611288581 0.82708054827257826 0
  outer loop
   vertex -0.26791340112686157 0.42216396331787109 0
   vertex -0.29389262199401855 0.40450850129127502 0
   vertex -0.26791340112686157 0.42216396331787109 1
  endloop
 endfacet
 facet normal -0.56208341611288581 0.82708054827257826 0
  outer loop
   vertex -0.26791340112686157 0.42216396331787109 1
   vertex -0.29389262199401855 0.40450850129127502 0
   vertex -0.29389262199401855 0.40450850129127502 1
  endloop
 endfacet
 facet normal -0.61290711478474036 0.79015496495702975 0
  outer loop
   vertex -0.29389262199401855 0.40450850129127502 0
   vertex -0.31871199607849121 0.38525661826133728 0
   vertex -0.29389262199401855 0.40450850129127502 1
  endloop
 endfacet
 facet normal -0.61290711478474036 0.79015496495702975 0
  outer loop
   vertex -0.29389262199401855 0.40450850129127502 1
   vertex -0.31871199607849121 0.38525661826133728 0
   vertex -0.31871199607849121 0.38525661826133728 1
  endloop
 endfacet
 facet normal -0.66131173131053489 0.75011118777889374 0
  outer loop
   vertex -0.31871199607849121 0.38525661826133728 0
   vertex -0.34227356314659119 0.36448431015014648 0
   vertex -0.31871199607849121 0.38525661826133728 1
  endloop
 endfacet
 facet normal -0.66131173131053489 0.75011118777889374 0
  outer loop
   vertex -0.31871199607849121 0.38525661826133728 1
   vertex -0.34227356314659119 0.36448431015014648 0
   vertex -0.34227356314659119 0.36448431015014648 1
  endloop
 endfacet
 facet normal -0.70710678118654757 0.70710678118654757 0
  outer loop
   vertex -0.34227356314659119 0.36448431015014648 0
   vertex -0.36448431015014648 0.34227356314659119 0
   vertex -0.34227356314659119 0.36448431015014648 1
  endloop
 endfacet
 facet normal -0.70710678118654757 0.70710678118654757 0
  outer loop
   vertex -0.34227356314659119 0.36448431015014648 1
   vertex -0.36448431015014648 0.34227356314659119 0
   vertex -0.36448431015014648 0.34227356314659119 1
  endloop
 endfacet
 facet normal -0.75011118777889374 0.66131173131053489 0
  outer loop
   vertex -0.36448431015014648 0.34227356314659119 0
   vertex -0.38525661826133728 0.31871199607849121 0
   vertex -0.36448431015014648 0.34227356314659119 1
  endloop
 endfacet
 facet normal -0.75011118777889374 0.66131173131053489 0
  outer loop
   vertex -0.36448431015014648 0.34227356314659119 1
   vertex -0.38525661826133728 0.31871199607849121 0
   vertex -0.38525661826133728 0.31871199607849121 1
  endloop
 endfacet
 facet normal -0.79015496495702975 0.61290711478474036 0
  outer loop
   vertex -0.38525661826133728 0.31871199607849121 0
   vertex -0.40450850129127502 0.29389262199401855 0
   vertex -0.38525661826133728 0.31871199607849121 1
  endloop
 endfacet
 facet normal -0.79015496495702975 0.61290711478474036 0
  outer loop
   vertex -0.38525661826133728 0.31871199607849121 1
   vertex -0.40450850129127502 0.29389262199401855 0
   vertex -0.40450850129127502 0.29389262199401855 1
  endloop
 endfacet
 facet normal -0.82708054827257826 0.56208341611288581 0
  outer loop
   vertex -0.40450850129127502 0.29389262199401855 0
   vertex -0.42216396331787109 0.26791340112686157 0
   vertex -0.40450850129127502 0.29389262199401855 1
  endloop
 endfacet
 facet normal -0.82708054827257826 0.56208341611288581 0
  outer loop
   vertex -0.40450850129127502 0.29389262199401855 1
   vertex -0.42216396331787109 0.26791340112686157 0
   vertex -0.42216396331787109 0.26791340112686157 1
  endloop
 endfacet
 facet normal -0.86074224088838514 0.50904105409135847 0
  outer loop
   vertex -0.42216396331787109 0.26791340112686157 0
   vertex -0.43815332651138306 0.24087683856487274 0
   vertex -0.42216396331787109 0.26791340112686157 1
  endloop
 endfacet
 facet normal -0.86074224088838514 0.50904105409135847 0
  outer loop
   vertex -0.42216396331787109 0.26791340112686157 1
   vertex -0.43815332651138306 0.24087683856487274 0
   vertex -0.43815332651138306 0.24087683856487274 1
  endloop
 endfacet
 facet normal -0.89100635041759924 0.45399084078372126 0
  outer loop
   vertex -0.43815332651138306 0.24087683856487274 0
   vertex -0.45241352915763855 0.21288964152336121 0
   vertex -0.43815332651138306 0.24087683856487274 1
  endloop
 endfacet
 facet normal -0.89100635041759924 0.45399084078372126 0
  outer loop
   vertex -0.43815332651138306 0.24087683856487274 1
   vertex -0.45241352915763855 0.21288964152336121 0
   vertex -0.45241352915763855 0.21288964152336121 1
  endloop
 endfacet
 facet normal -0.91775463616404651 0.39714786641677741 0
  outer loop
   vertex -0.45241352915763855 0.21288964152336121 0
   vertex -0.46488824486732483 0.18406227231025696 0
   vertex -0.45241352915763855 0.21288964152336121 1
  endloop
 endfacet
 facet normal -0.91775463616404651 0.39714786641677741 0
  outer loop
   vertex -0.45241352915763855 0.21288964152336121 1
   vertex -0.46488824486732483 0.18406227231025696 0
   vertex -0.46488824486732483 0.18406227231025696 1
  endloop
 endfacet
 facet normal -0.94088063842334979 0.33873828280852747 0
  outer loop
   vertex -0.46488824486732483 0.18406227231025696 0
   vertex -0.47552827000617981 0.15450850129127502 0
   vertex -0.46488824486732483 0.18406227231025696 1
  endloop
 endfacet
 facet normal -0.94088063842334979 0.33873828280852747 0
  outer loop
   vertex -0.46488824486732483 0.18406227231025696 1
   vertex -0.47552827000617981 0.15450850129127502 0
   vertex -0.47552827000617981 0.15450850129127502 1
  endloop
 endfacet
 facet normal -0.96029377026325347 0.27899081489107441 0
  outer loop
   vertex -0.47552827000617981 0.15450850129127502 0
   vertex -0.48429158329963684 0.12434494495391846 0
   vertex -0.47552827000617981 0.15450850129127502 1
  endloop
 endfacet
 facet normal -0.96029377026325347 0.27899081489107441 0
  outer loop
   vertex -0.47552827000617981 0.15450850129127502 1
   vertex -0.48429158329963684 0.12434494495391846 0
   vertex -0.48429158329963684 0.12434494495391846 1
  endloop
 endfacet
 facet normal -0.97591686098267283 0.21814279829901859 0
  outer loop
   vertex -0.48429158329963684 0.12434494495391846 0
   vertex -0.4911436140537262 0.093690656125545502 0
   vertex -0.48429158329963684 0.12434494495391846 1
  endloop
 endfacet
 facet normal -0.97591686098267283 0.21814279829901859 0
  outer loop
   vertex -0.48429158329963684 0.12434494495391846 1
   vertex -0.4911436140537262 0.093690656125545502 0
   vertex -0.4911436140537262 0.093690656125545502 1
  endloop
 endfacet
 facet normal -0.98768823095104485 0.15643515730421731 0
  outer loop
   vertex -0.4911436140537262 0.093690656125545502 0
   vertex -0.49605736136436462 0.062666617333889008 0
   vertex -0.4911436140537262 0.093690656125545502 1
  endloop
 endfacet
 facet normal -0.98768823095104485 0.15643515730421731 0
  outer loop
   vertex -0.4911436140537262 0.093690656125545502 1
   vertex -0.49605736136436462 0.062666617333889008 0
   vertex -0.49605736136436462 0.062666617333889008 1
  endloop
 endfacet
 facet normal -0.99556199625906583 0.094107978432563522 0
  outer loop
   vertex -0.49605736136436462 0.062666617333889008 0
   vertex -0.49901336431503296 0.031395260244607925 0
   vertex -0.49605736136436462 0.062666617333889008 1
  endloop
 endfacet
 facet normal -0.99556199625906583 0.094107978432563522 0
  outer loop
   vertex -0.49605736136436462 0.062666617333889008 1
   vertex -0.49901336431503296 0.031395260244607925 0
   vertex -0.49901336431503296 0.031395260244607925 1
  endloop
 endfacet
 facet normal -0.99950656048165454 0.031410755389397756 0
  outer loop
   vertex -0.49901336431503296 0.031395260244607925 0
   vertex -0.5 -1.6081226229577292e-16 0
   vertex -0.49901336431503296 0.031395260244607925 1
  endloop
 endfacet
 facet normal -0.99950656048165454 0.031410755389397756 0
  outer loop
   vertex -0.49901336431503296 0.031395260244607925 1
   vertex -0.5 -1.6081226229577292e-16 0
   vertex -0.5 -1.6081226229577292e-16 1
  endloop
 endfacet
 facet normal -0.99950656048165454 -0.031410755389398075 0
  outer loop
   vertex -0.5 -1.6081226229577292e-16 0
   vertex -0.49901336431503296 -0.031395260244607925 0
   vertex -0.5 -1.6081226229577292e-16 1
  endloop
 endfacet
 facet normal -0.99950656048165454 -0.031410755389398075 0
  outer loop
   vertex -0.5 -1.6081226229577292e-16 1
   vertex -0.49901336431503296 -0.031395260244607925 0
   vertex -0.49901336431503296 -0.031395260244607925 1
  endloop
 endfacet
 facet normal -0.99556199625906583 -0.094107978432563522 0
  outer loop
   vertex -0.49901336431503296 -0.031395260244607925 0
   vertex -0.49605736136436462 -0.062666617333889008 0
   vertex -0.49901336431503296 -0.031395260244607925 1
  endloop
 endfacet
 facet normal -0.99556199625906583 -0.094107978432563522 0
  outer loop
   vertex -0.49901336431503296 -0.031395260244607925 1
   vertex -0.49605736136436462 -0.062666617333889008 0
   vertex -0.49605736136436462 -0.062666617333889008 1
  endloop
 endfacet
 facet normal -0.98768823095104485 -0.15643515730421731 0
  outer loop
   vertex -0.49605736136436462 -0.062666617333889008 0
   vertex -0.4911436140537262 -0.093690656125545502 0
   vertex -0.49605736136436462 -0.062666617333889008 1
  endloop
 endfacet
 facet normal -0.98768823095104485 -0.15643515730421731 0
  outer loop
   vertex -0.49605736136436462 -0.062666617333889008 1
   vertex -0.4911436140537262 -0.093690656125545502 0
   vertex -0.4911436140537262 -0.093690656125545502 1
  endloop
 endfacet
 facet normal -0.97591686098267283 -0.21814279829901859 0
  outer loop
   vertex -0.4911436140537262 -0.093690656125545502 0
   vertex -0.48429158329963684 -0.12434494495391846 0
   vertex -0.4911436140537262 -0.093690656125545502 1
  endloop
 endfacet
 facet normal -0.97591686098267283 -0.21814279829901859 0
  outer loop
   vertex -0.4911436140537262 -0.093690656125545502 1
   vertex -0.48429158329963684 -0.12434494495391846 0
   vertex -0.48429158329963684 -0.12434494495391846 1
  endloop
 endfacet
 facet normal -0.96029377026325347 -0.27899081489107441 0
  outer loop
   vertex -0.48429158329963684 -0.12434494495391846 0
   vertex -0.47552827000617981 -0.15450850129127502 0
   vertex -0.48429158329963684 -0.12434494495391846 1
  endloop
 endfacet
 facet normal -0.96029377026325347 -0.27899081489107441 0
  outer loop
   vertex -0.48429158329963684 -0.12434494495391846 1
   vertex -0.47552827000617981 -0.15450850129127502 0
   vertex -0.47552827000617981 -0.15450850129127502 1
  endloop
 endfacet
 facet normal -0.94088063842334979 -0.33873828280852747 0
  outer loop
   vertex -0.47552827000617981 -0.15450850129127502 0
   vertex -0.46488824486732483 -0.18406227231025696 0
   vertex -0.47552827000617981 -0.15450850129127502 1
  endloop
 endfacet
 facet normal -0.94088063842334979 -0.33873828280852747 0
  outer loop
   vertex -0.47552827000617981 -0.15450850129127502 1
   vertex -0.46488824486732483 -0.18406227231025696 0
   vertex -0.46488824486732483 -0.18406227231025696 1
  endloop
 endfacet
 facet normal -0.91775463616404651 -0.39714786641677741 0
  outer loop
   vertex -0.46488824486732483 -0.18406227231025696 0
   vertex -0.45241352915763855 -0.21288964152336121 0
   vertex -0.46488824486732483 -0.18406227231025696 1
  endloop
 endfacet
 facet normal -0.91775463616404651 -0.39714786641677741 0
  outer loop
   vertex -0.46488824486732483 -0.18406227231025696 1
   vertex -0.45241352915763855 -0.21288964152336121 0
   vertex -0.45241352915763855 -0.21288964152336121 1
  endloop
 endfacet
 facet normal -0.89100635041759924 -0.45399084078372126 0
  outer loop
   vertex -0.45241352915763855 -0.21288964152336121 0
   vertex -0.43815332651138306 -0.24087683856487274 0
   vertex -0.45241352915763855 -0.21288964152336121 1
  endloop
 endfacet
 facet normal -0.89100635041759924 -0.45399084078372126 0
  outer loop
   vertex -0.45241352915763855 -0.21288964152336121 1
   vertex -0.43815332651138306 -0.24087683856487274 0
   vertex -0.43815332651138306 -0.24087683856487274 1
  endloop
 endfacet
 facet normal -0.86074224088838514 -0.50904105409135847 0
  outer loop
   vertex -0.43815332651138306 -0.24087683856487274 0
   vertex -0.42216396331787109 -0.26791340112686157 0
   vertex -0.43815332651138306 -0.24087683856487274 1
  endloop
 endfacet
 facet normal -0.86074224088838514 -0.50904105409135847 0
  outer loop
   vertex -0.43815332651138306 -0.24087683856487274 1
   vertex -0.42216396331787109 -0.26791340112686157 0
   vertex -0.42216396331787109 -0.26791340112686157 1
  endloop
 endfacet
 facet normal -0.82708054827257826 -0.56208341611288581 0
  outer loop
   vertex -0.42216396331787109 -0.26791340112686157 0
   vertex -0.40450850129127502 -0.29389262199401855 0
   vertex -0.42216396331787109 -0.26791340112686157 1
  endloop
 endfacet
 facet normal -0.82708054827257826 -0.56208341611288581 0
  outer loop
   vertex -0.42216396331787109 -0.26791340112686157 1
   vertex -0.40450850129127502 -0.29389262199401855 0
   vertex -0.40450850129127502 -0.29389262199401855 1
  endloop
 endfacet
 facet normal -0.79015496495702975 -0.61290711478474036 0
  outer loop
   vertex -0.40450850129127502 -0.29389262199401855 0
   vertex -0.38525661826133728 -0.31871199607849121 0
   vertex -0.40450850129127502 -0.29389262199401855 1
  endloop
 endfacet
 facet normal -0.79015496495702975 -0.61290711478474036 0
  outer loop
   vertex -0.40450850129127502 -0.29389262199401855 1
   vertex -0.38525661826133728 -0.31871199607849121 0
   vertex -0.38525661826133728 -0.31871199607849121 1
  endloop
 endfacet
 facet normal -0.75011118777889374 -0.66131173131053489 0
  outer loop
   vertex -0.38525661826133728 -0.31871199607849121 0
   vertex -0.36448431015014648 -0.34227356314659119 0
   vertex -0.38525661826133728 -0.31871199607849121 1
  endloop
 endfacet
 facet normal -0.75011118777889374 -0.66131173131053489 0
  outer loop
   vertex -0.38525661826133728 -0.31871199607849121 1
   vertex -0.36448431015014648 -0.34227356314659119 0
   vertex -0.36448431015014648 -0.34227356314659119 1
  endloop
 endfacet
 facet normal -0.70710678118654757 -0.70710678118654757 0
  outer loop
   vertex -0.36448431015014648 -0.34227356314659119 0
   vertex -0.34227356314659119 -0.36448431015014648 0
   vertex -0.36448431015014648 -0.34227356314659119 1
  endloop
 endfacet
 facet normal -0.70710678118654757 -0.70710678118654757 0
  outer loop
   vertex -0.36448431015014648 -0.34227356314659119 1
   vertex -0.34227356314659119 -0.36448431015014648 0
   vertex -0.34227356314659119 -0.36448431015014648 1
  endloop
 endfacet
 facet normal -0.66131173131053489 -0.75011118777889374 0
  outer loop
   vertex -0.34227356314659119 -0.36448431015014648 0
   vertex -0.31871199607849121 -0.38525661826133728 0
   vertex -0.34227356314659119 -0.36448431015014648 1
  endloop
 endfacet
 facet normal -0.66131173131053489 -0.75011118777889374 0
  outer loop
   vertex -0.34227356314659119 -0.36448431015014648 1
   vertex -0.31871199607849121 -0.38525661826133728 0
   vertex -0.31871199607849121 -0.38525661826133728 1
  endloop
 endfacet
 facet normal -0.61290711478474036 -0.79015496495702975 0
  outer loop
   vertex -0.31871199607849121 -0.38525661826133728 0
   vertex -0.29389262199401855 -0.40450850129127502 0
   vertex -0.31871199607849121 -0.38525661826133728 1
  endloop
 endfacet
 facet normal -0.61290711478474036 -0.79015496495702975 0
  outer loop
   vertex -0.31871199607849121 -0.38525661826133728 1
   vertex -0.29389262199401855 -0.40450850129127502 0
   vertex -0.29389262199401855 -0.40450850129127502 1
  endloop
 endfacet
 facet normal -0.56208341611288581 -0.82708054827257826 0
  outer loop
   vertex -0.29389262199401855 -0.40450850129127502 0
   vertex -0.26791340112686157 -0.42216396331787109 0
   vertex -0.29389262199401855 -0.40450850129127502 1
  endloop
 endfacet
 facet normal -0.56208341611288581 -0.82708054827257826 0
  outer loop
   vertex -0.29389262199401855 -0.40450850129127502 1
   vertex -0.26791340112686157 -0.42216396331787109 0
   vertex -0.26791340112686157 -0.42216396331787109 1
  endloop
 endfacet
 facet normal -0.50904105409135847 -0.86074224088838514 0
  outer loop
   vertex -0.26791340112686157 -0.42216396331787109 0
   vertex -0.24087683856487274 -0.43815332651138306 0
   vertex -0.26791340112686157 -0.42216396331787109 1
  endloop
 endfacet
 facet normal -0.50904105409135847 -0.86074224088838514 0
  outer loop
   vertex -0.26791340112686157 -0.42216396331787109 1
   vertex -0.24087683856487274 -0.43815332651138306 0
   vertex -0.24087683856487274 -0.43815332651138306 1
  endloop
 endfacet
 facet normal -0.45399084078372126 -0.89100635041759924 0
  outer loop
   vertex -0.24087683856487274 -0.43815332651138306 0
   vertex -0.21288964152336121 -0.45241352915763855 0
   vertex -0.24087683856487274 -0.43815332651138306 1
  endloop
 endfacet
 facet normal -0.45399084078372126 -0.89100635041759924 0
  outer loop
   vertex -0.24087683856487274 -0.43815332651138306 1
   vertex -0.21288964152336121 -0.45241352915763855 0
   vertex -0.21288964152336121 -0.45241352915763855 1
  endloop
 endfacet
 facet normal -0.39714786641677741 -0.91775463616404651 0
  outer loop
   vertex -0.21288964152336121 -0.45241352915763855 0
   vertex -0.18406227231025696 -0.46488824486732483 0
   vertex -0.21288964152336121 -0.45241352915763855 1
  endloop
 endfacet
 facet normal -0.39714786641677741 -0.91775463616404651 0
  outer loop
   vertex -0.21288964152336121 -0.45241352915763855 1
   vertex -0.18406227231025696 -0.46488824486732483 0
   vertex -0.18406227231025696 -0.46488824486732483 1
  endloop
 endfacet
 facet normal -0.33873828280852747 -0.94088063842334979 0
  outer loop
   vertex -0.18406227231025696 -0.46488824486732483 0
   vertex -0.15450850129127502 -0.47552827000617981 0
   vertex -0.18406227231025696 -0.46488824486732483 1
  endloop
 endfacet
 facet normal -0.33873828280852747 -0.94088063842334979 0
  outer loop
   vertex -0.18406227231025696 -0.46488824486732483 1
   vertex -0.15450850129127502 -0.47552827000617981 0
   vertex -0.15450850129127502 -0.47552827000617981 1
  endloop
 endfacet
 facet normal -0.27899081489107441 -0.96029377026325347 0
  outer loop
   vertex -0.15450850129127502 -0.47552827000617981 0
   vertex -0.12434494495391846 -0.48429158329963684 0
   vertex -0.15450850129127502 -0.47552827000617981 1
  endloop
 endfacet
 facet normal -0.27899081489107441 -0.96029377026325347 0
  outer loop
   vertex -0.15450850129127502 -0.47552827000617981 1
   vertex -0.12434494495391846 -0.48429158329963684 0
   vertex -0.12434494495391846 -0.48429158329963684 1
  endloop
 endfacet
 facet normal -0.21814279829901859 -0.97591686098267283 0
  outer loop
   vertex -0.12434494495391846 -0.48429158329963684 0
   vertex -0.093690656125545502 -0.4911436140537262 0
   vertex -0.12434494495391846 -0.48429158329963684 1
  endloop
 endfacet
 facet normal -0.21814279829901859 -0.97591686098267283 0
  outer loop
   vertex -0.12434494495391846 -0.48429158329963684 1
   vertex -0.093690656125545502 -0.4911436140537262 0
   vertex -0.093690656125545502 -0.4911436140537262 1
  endloop
 endfacet
 facet normal -0.15643515730421731 -0.98768823095104485 0
  outer loop
   vertex -0.093690656125545502 -0.4911436140537262 0
   vertex -0.062666617333889008 -0.49605736136436462 0
   vertex -0.093690656125545502 -0.4911436140537262 1
  endloop
 endfacet
 facet normal -0.15643515730421731 -0.98768823095104485 0
  outer loop
   vertex -0.093690656125545502 -0.4911436140537262 1
   vertex -0.062666617333889008 -0.49605736136436462 0
   vertex -0.062666617333889008 -0.49605736136436462 1
  endloop
 endfacet
 facet normal -0.094107978432563522 -0.99556199625906583 0
  outer loop
   vertex -0.062666617333889008 -0.49605736136436462 0
   vertex -0.031395260244607925 -0.49901336431503296 0
   vertex -0.062666617333889008 -0.49605736136436462 1
  endloop
 endfacet
 facet normal -0.094107978432563522 -0.99556199625906583 0
  outer loop
   vertex -0.062666617333889008 -0.49605736136436462 1
   vertex -0.031395260244607925 -0.49901336431503296 0
   vertex -0.031395260244607925 -0.49901336431503296 1
  endloop
 endfacet
 facet normal -0.031410755389398005 -0.99950656048165454 0
  outer loop
   vertex -0.031395260244607925 -0.49901336431503296 0
   vertex -9.1848507326442689e-17 -0.5 0
   vertex -0.031395260244607925 -0.49901336431503296 1
  endloop
 endfacet
 facet normal -0.031410755389398005 -0.99950656048165454 0
  outer loop
   vertex -0.031395260244607925 -0.49901336431503296 1
   vertex -9.1848507326442689e-17 -0.5 0
   vertex -9.1848507326442689e-17 -0.5 1
  endloop
 endfacet
 facet normal 0.031410755389397825 -0.99950656048165454 0
  outer loop
   vertex -9.1848507326442689e-17 -0.5 0
   vertex 0.031395260244607925 -0.49901336431503296 0
   vertex -9.1848507326442689e-17 -0.5 1
  endloop
 endfacet
 facet normal 0.031410755389397825 -0.99950656048165454 0
  outer loop
   vertex -9.1848507326442689e-17 -0.5 1
   vertex 0.031395260244607925 -0.49901336431503296 0
   vertex 0.031395260244607925 -0.49901336431503296 1
  endloop
 endfacet
 facet normal 0.094107978432563522 -0.99556199625906583 0
  outer loop
   vertex 0.031395260244607925 -0.49901336431503296 0
   vertex 0.062666617333889008 -0.49605736136436462 0
   vertex 0.031395260244607925 -0.49901336431503296 1
  endloop
 endfacet
 facet normal 0.094107978432563522 -0.99556199625906583 0
  outer loop
   vertex 0.031395260244607925 -0.49901336431503296 1
   vertex 0.062666617333889008 -0.49605736136436462 0
   vertex 0.062666617333889008 -0.49605736136436462 1
  endloop
 endfacet
 facet normal 0.15643515730421731 -0.98768823095104485 0
  outer loop
   vertex 0.062666617333889008 -0.49605736136436462 0
   vertex 0.093690656125545502 -0.4911436140537262 0
   vertex 0.062666617333889008 -0.49605736136436462 1
  endloop
 endfacet
 facet normal 0.15643515730421731 -0.98768823095104485 0
  outer loop
   vertex 0.062666617333889008 -0.49605736136436462 1
   vertex 0.093690656125545502 -0.4911436140537262 0
   vertex 0.093690656125545502 -0.4911436140537262 1
  endloop
 endfacet
 facet normal 0.21814279829901859 -0.97591686098267283 0
  outer loop
   vertex 0.093690656125545502 -0.4911436140537262 0
   vertex 0.12434494495391846 -0.48429158329963684 0
   vertex 0.093690656125545502 -0.4911436140537262 1
  endloop
 endfacet
 facet normal 0.21814279829901859 -0.97591686098267283 0
  outer loop
   vertex 0.093690656125545502 -0.4911436140537262 1
   vertex 0.12434494495391846 -0.48429158329963684 0
   vertex 0.12434494495391846 -0.48429158329963684 1
  endloop
 endfacet
 facet normal 0.27899081489107441 -0.96029377026325347 0
  outer loop
   vertex 0.12434494495391846 -0.48429158329963684 0
   vertex 0.15450850129127502 -0.47552827000617981 0
   vertex 0.12434494495391846 -0.48429158329963684 1
  endloop
 endfacet
 facet normal 0.27899081489107441 -0.96029377026325347 0
  outer loop
   vertex 0.12434494495391846 -0.48429158329963684 1
   vertex 0.15450850129127502 -0.47552827000617981 0
   vertex 0.15450850129127502 -0.47552827000617981 1
  endloop
 endfacet
 facet normal 0.33873828280852747 -0.94088063842334979 0
  outer loop
   vertex 0.15450850129127502 -0.47552827000617981 0
   vertex 0.18406227231025696 -0.46488824486732483 0
   vertex 0.15450850129127502 -0.47552827000617981 1
  endloop
 endfacet
 facet normal 0.33873828280852747 -0.94088063842334979 0
  outer loop
   vertex 0.15450850129127502 -0.47552827000617981 1
   vertex 0.18406227231025696 -0.46488824486732483 0
   vertex 0.18406227231025696 -0.46488824486732483 1
  endloop
 endfacet
 facet normal 0.39714786641677741 -0.91775463616404651 0
  outer loop
   vertex 0.18406227231025696 -0.46488824486732483 0
   vertex 0.21288964152336121 -0.45241352915763855 0
   vertex 0.18406227231025696 -0.46488824486732483 1
  endloop
 endfacet
 facet normal 0.39714786641677741 -0.91775463616404651 0
  outer loop
   vertex 0.18406227231025696 -0.46488824486732483 1
   vertex 0.21288964152336121 -0.45241352915763855 0
   vertex 0.21288964152336121 -0.45241352915763855 1
  endloop
 endfacet
 facet normal 0.45399084078372126 -0.89100635041759924 0
  outer loop
   vertex 0.21288964152336121 -0.45241352915763855 0
   vertex 0.24087683856487274 -0.43815332651138306 0
   vertex 0.21288964152336121 -0.45241352915763855 1
  endloop
 endfacet
 facet normal 0.45399084078372126 -0.89100635041759924 0
  outer loop
   vertex 0.21288964152336121 -0.45241352915763855 1
   vertex 0.24087683856487274 -0.43815332651138306 0
   vertex 0.24087683856487274 -0.43815332651138306 1
  endloop
 endfacet
 facet normal 0.50904105409135847 -0.86074224088838514 0
  outer loop
   vertex 0.24087683856487274 -0.43815332651138306 0
   vertex 0.26791340112686157 -0.42216396331787109 0
   vertex 0.24087683856487274 -0.43815332651138306 1
  endloop
 endfacet
 facet normal 0.50904105409135847 -0.86074224088838514 0
  outer loop
   vertex 0.24087683856487274 -0.43815332651138306 1
   vertex 0.26791340112686157 -0.42216396331787109 0
   vertex 0.26791340112686157 -0.42216396331787109 1
  endloop
 endfacet
 facet normal 0.56208341611288581 -0.82708054827257826 0
  outer loop
   vertex 0.26791340112686157 -0.42216396331787109 0
   vertex 0.29389262199401855 -0.40450850129127502 0
   vertex 0.26791340112686157 -0.42216396331787109 1
  endloop
 endfacet
 facet normal 0.56208341611288581 -0.82708054827257826 0
  outer loop
   vertex 0.26791340112686157 -0.42216396331787109 1
   vertex 0.29389262199401855 -0.40450850129127502 0
   vertex 0.29389262199401855 -0.40450850129127502 1
  endloop
 endfacet
 facet normal 0.61290711478474036 -0.79015496495702975 0
  outer loop
   vertex 0.29389262199401855 -0.40450850129127502 0
   vertex 0.31871199607849121 -0.38525661826133728 0
   vertex 0.29389262199401855 -0.40450850129127502 1
  endloop
 endfacet
 facet normal 0.61290711478474036 -0.79015496495702975 0
  outer loop
   vertex 0.29389262199401855 -0.40450850129127502 1
   vertex 0.31871199607849121 -0.38525661826133728 0
   vertex 0.31871199607849121 -0.38525661826133728 1
  endloop
 endfacet
 facet normal 0.66131173131053489 -0.75011118777889374 0
  outer loop
   vertex 0.31871199607849121 -0.38525661826133728 0
   vertex 0.34227356314659119 -0.36448431015014648 0
   vertex 0.31871199607849121 -0.38525661826133728 1
  endloop
 endfacet
 facet normal 0.66131173131053489 -0.75011118777889374 0
  outer loop
   vertex 0.31871199607849121 -0.38525661826133728 1
   vertex 0.34227356314659119 -0.36448431015014648 0
   vertex 0.34227356314659119 -0.36448431015014648 1
  endloop
 endfacet
 facet normal 0.70710678118654757 -0.70710678118654757 0
  outer loop
   vertex 0.34227356314659119 -0.36448431015014648 0
   vertex 0.36448431015014648 -0.34227356314659119 0
   vertex 0.34227356314659119 -0.36448431015014648 1
  endloop
 endfacet
 facet normal 0.70710678118654757 -0.70710678118654757 0
  outer loop
   vertex 0.34227356314659119 -0.36448431015014648 1
   vertex 0.36448431015014648 -0.34227356314659119 0
   vertex 0.36448431015014648 -0.34227356314659119 1
  endloop
 endfacet
 facet normal 0.75011118777889374 -0.66131173131053489 0
  outer loop
   vertex 0.36448431015014648 -0.34227356314659119 0
   vertex 0.38525661826133728 -0.31871199607849121 0
   vertex 0.36448431015014648 -0.34227356314659119 1
  endloop
 endfacet
 facet normal 0.75011118777889374 -0.66131173131053489 0
  outer loop
   vertex 0.36448431015014648 -0.34227356314659119 1
   vertex 0.38525661826133728 -0.31871199607849121 0
   vertex 0.38525661826133728 -0.31871199607849121 1
  endloop
 endfacet
 facet normal 0.79015496495702975 -0.61290711478474036 0
  outer loop
   vertex 0.38525661826133728 -0.31871199607849121 0
   vertex 0.40450850129127502 -0.29389262199401855 0
   vertex 0.38525661826133728 -0.31871199607849121 1
  endloop
 endfacet
 facet normal 0.79015496495702975 -0.61290711478474036 0
  outer loop
   vertex 0.38525661826133728 -0.31871199607849121 1
   vertex 0.40450850129127502 -0.29389262199401855 0
   vertex 0.40450850129127502 -0.29389262199401855 1
  endloop
 endfacet
 facet normal 0.82708054827257826 -0.56208341611288581 0
  outer loop
   vertex 0.40450850129127502 -0.29389262199401855 0
   vertex 0.42216396331787109 -0.26791340112686157 0
   vertex 0.40450850129127502 -0.29389262199401855 1
  endloop
 endfacet
 facet normal 0.82708054827257826 -0.56208341611288581 0
  outer loop
   vertex 0.40450850129127502 -0.29389262199401855 1
   vertex 0.42216396331787109 -0.26791340112686157 0
   vertex 0.42216396331787109 -0.26791340112686157 1
  endloop
 endfacet
 facet normal 0.86074224088838514 -0.50904105409135847 0
  outer loop
   vertex 0.42216396331787109 -0.26791340112686157 0
   vertex 0.43815332651138306 -0.24087683856487274 0
   vertex 0.42216396331787109 -0.26791340112686157 1
  endloop
 endfacet
 facet normal 0.86074224088838514 -0.50904105409135847 0
  outer loop
   vertex 0.42216396331787109 -0.26791340112686157 1
   vertex 0.43815332651138306 -0.24087683856487274 0
   vertex 0.43815332651138306 -0.24087683856487274 1
  endloop
 endfacet
 facet normal 0.89100635041759924 -0.45399084078372126 0
  outer loop
   vertex 0.43815332651138306 -0.24087683856487274 0
   vertex 0.45241352915763855 -0.21288964152336121 0
   vertex 0.43815332651138306 -0.24087683856487274 1
  endloop
 endfacet
 facet normal 0.89100635041759924 -0.45399084078372126 0
  outer loop
   vertex 0.43815332651138306 -0.24087683856487274 1
   vertex 0.45241352915763855 -0.21288964152336121 0
   vertex 0.45241352915763855 -0.21288964152336121 1
  endloop
 endfacet
 facet normal 0.91775463616404651 -0.39714786641677741 0
  outer loop
   vertex 0.45241352915763855 -0.21288964152336121 0
   vertex 0.46488824486732483 -0.18406227231025696 0
   vertex 0.45241352915763855 -0.21288964152336121 1
  endloop
 endfacet
 facet normal 0.91775463616404651 -0.39714786641677741 0
  outer loop
   vertex 0.45241352915763855 -0.21288964152336121 1
   vertex 0.46488824486732483 -0.18406227231025696 0
   vertex 0.46488824486732483 -0.18406227231025696 1
  endloop
 endfacet
 facet normal 0.94088063842334979 -0.33873828280852747 0
  outer loop
   vertex 0.46488824486732483 -0.18406227231025696 0
   vertex 0.47552827000617981 -0.15450850129127502 0
   vertex 0.46488824486732483 -0.18406227231025696 1
  endloop
 endfacet
 facet normal 0.94088063842334979 -0.33873828280852747 0
  outer loop
   vertex 0.46488824486732483 -0.18406227231025696 1
   vertex 0.47552827000617981 -0.15450850129127502 0
   vertex 0.47552827000617981 -0.15450850129127502 1
  endloop
 endfacet
 facet normal 0.96029377026325347 -0.27899081489107441 0
  outer loop
   vertex 0.47552827000617981 -0.15450850129127502 0
   vertex 0.48429158329963684 -0.12434494495391846 0
   vertex 0.47552827000617981 -0.15450850129127502 1
  endloop
 endfacet
 facet normal 0.96029377026325347 -0.27899081489107441 0
  outer loop
   vertex 0.47552827000617981 -0.15450850129127502 1
   vertex 0.48429158329963684 -0.12434494495391846 0
   vertex 0.48429158329963684 -0.12434494495391846 1
  endloop
 endfacet
 facet normal 0.97591686098267283 -0.21814279829901859 0
  outer loop
   vertex 0.48429158329963684 -0.12434494495391846 0
   vertex 0.4911436140537262 -0.093690656125545502 0
   vertex 0.48429158329963684 -0.12434494495391846 1
  endloop
 endfacet
 facet normal 0.97591686098267283 -0.21814279829901859 0
  outer loop
   vertex 0.48429158329963684 -0.12434494495391846 1
   vertex 0.4911436140537262 -0.093690656125545502 0
   vertex 0.4911436140537262 -0.093690656125545502 1
  endloop
 endfacet
 facet normal 0.98768823095104485 -0.15643515730421731 0
  outer loop
   vertex 0.4911436140537262 -0.093690656125545502 0
   vertex 0.49605736136436462 -0.062666617333889008 0
   vertex 0.4911436140537262 -0.093690656125545502 1
  endloop
 endfacet
 facet normal 0.98768823095104485 -0.15643515730421731 0
  outer loop
   vertex 0.4911436140537262 -0.093690656125545502 1
   vertex 0.49605736136436462 -0.062666617333889008 0
   vertex 0.49605736136436462 -0.062666617333889008 1
  endloop
 endfacet
 facet normal 0.99556199625906583 -0.094107978432563522 0
  outer loop
   vertex 0.49605736136436462 -0.062666617333889008 0
   vertex 0.49901336431503296 -0.031395260244607925 0
   vertex 0.49605736136436462 -0.062666617333889008 1
  endloop
 endfacet
 facet normal 0.99556199625906583 -0.094107978432563522 0
  outer loop
   vertex 0.49605736136436462 -0.062666617333889008 1
   vertex 0.49901336431503296 -0.031395260244607925 0
   vertex 0.49901336431503296 -0.031395260244607925 1
  endloop
 endfacet
 facet normal 0.99950656048165454 -0.031410755389397915 0
  outer loop
   vertex 0.49901336431503296 -0.031395260244607925 0
   vertex 0.5 0 0
   vertex 0.49901336431503296 -0.031395260244607925 1
  endloop
 endfacet
 facet normal 0.99950656048165454 -0.031410755389397915 0
  outer loop
   vertex 0.49901336431503296 -0.031395260244607925 1
   vertex 0.5 0 0
   vertex 0.5 0 1
  endloop
 endfacet
endsolid
