solid Rotor_zone_stationary 
 facet normal 0.99950654058404043 0.031411388535434293 0
  outer loop
   vertex 1.5 0 0
   vertex 1.4970400333404541 0.094185777008533478 0
   vertex 1.5 0 1
  endloop
 endfacet
 facet normal 0.99950654058404043 0.031411388535434293 -0
  outer loop
   vertex 1.5 0 1
   vertex 1.4970400333404541 0.094185777008533478 0
   vertex 1.4970400333404541 0.094185777008533478 1
  endloop
 endfacet
 facet normal 0.9955620255398262 0.094107668672848144 0
  outer loop
   vertex 1.4970400333404541 0.094185777008533478 0
   vertex 1.4881720542907715 0.18799984455108643 0
   vertex 1.4970400333404541 0.094185777008533478 1
  endloop
 endfacet
 facet normal 0.9955620255398262 0.094107668672848144 -0
  outer loop
   vertex 1.4970400333404541 0.094185777008533478 1
   vertex 1.4881720542907715 0.18799984455108643 0
   vertex 1.4881720542907715 0.18799984455108643 1
  endloop
 endfacet
 facet normal 0.98768832868237799 0.15643454025441772 0
  outer loop
   vertex 1.4881720542907715 0.18799984455108643 0
   vertex 1.473430871963501 0.28107196092605591 0
   vertex 1.4881720542907715 0.18799984455108643 1
  endloop
 endfacet
 facet normal 0.98768832868237799 0.15643454025441772 -0
  outer loop
   vertex 1.4881720542907715 0.18799984455108643 1
   vertex 1.473430871963501 0.28107196092605591 0
   vertex 1.473430871963501 0.28107196092605591 1
  endloop
 endfacet
 facet normal 0.97591686474513506 0.21814278146669361 0
  outer loop
   vertex 1.473430871963501 0.28107196092605591 0
   vertex 1.4528747797012329 0.37303483486175537 0
   vertex 1.473430871963501 0.28107196092605591 1
  endloop
 endfacet
 facet normal 0.97591686474513506 0.21814278146669361 -0
  outer loop
   vertex 1.473430871963501 0.28107196092605591 1
   vertex 1.4528747797012329 0.37303483486175537 0
   vertex 1.4528747797012329 0.37303483486175537 1
  endloop
 endfacet
 facet normal 0.96029343133702127 0.27899198148149301 0
  outer loop
   vertex 1.4528747797012329 0.37303483486175537 0
   vertex 1.4265847206115723 0.46352550387382507 0
   vertex 1.4528747797012329 0.37303483486175537 1
  endloop
 endfacet
 facet normal 0.96029343133702127 0.27899198148149301 -0
  outer loop
   vertex 1.4528747797012329 0.37303483486175537 1
   vertex 1.4265847206115723 0.46352550387382507 0
   vertex 1.4265847206115723 0.46352550387382507 1
  endloop
 endfacet
 facet normal 0.94088107790152031 0.33873706210993976 0
  outer loop
   vertex 1.4265847206115723 0.46352550387382507 0
   vertex 1.3946647644042969 0.55218684673309326 0
   vertex 1.4265847206115723 0.46352550387382507 1
  endloop
 endfacet
 facet normal 0.94088107790152031 0.33873706210993976 -0
  outer loop
   vertex 1.4265847206115723 0.46352550387382507 1
   vertex 1.3946647644042969 0.55218684673309326 0
   vertex 1.3946647644042969 0.55218684673309326 1
  endloop
 endfacet
 facet normal 0.91775440561707122 0.39714839917901767 0
  outer loop
   vertex 1.3946647644042969 0.55218684673309326 0
   vertex 1.3572405576705933 0.63866895437240601 0
   vertex 1.3946647644042969 0.55218684673309326 1
  endloop
 endfacet
 facet normal 0.91775440561707122 0.39714839917901767 -0
  outer loop
   vertex 1.3946647644042969 0.55218684673309326 1
   vertex 1.3572405576705933 0.63866895437240601 0
   vertex 1.3572405576705933 0.63866895437240601 1
  endloop
 endfacet
 facet normal 0.89100663643596711 0.45399027944116216 0
  outer loop
   vertex 1.3572405576705933 0.63866895437240601 0
   vertex 1.3144600391387939 0.72263050079345703 0
   vertex 1.3572405576705933 0.63866895437240601 1
  endloop
 endfacet
 facet normal 0.89100663643596711 0.45399027944116216 -0
  outer loop
   vertex 1.3572405576705933 0.63866895437240601 1
   vertex 1.3144600391387939 0.72263050079345703 0
   vertex 1.3144600391387939 0.72263050079345703 1
  endloop
 endfacet
 facet normal 0.86074200471947815 0.50904145343134266 0
  outer loop
   vertex 1.3144600391387939 0.72263050079345703 0
   vertex 1.2664918899536133 0.80374020338058472 0
   vertex 1.3144600391387939 0.72263050079345703 1
  endloop
 endfacet
 facet normal 0.86074200471947815 0.50904145343134266 -0
  outer loop
   vertex 1.3144600391387939 0.72263050079345703 1
   vertex 1.2664918899536133 0.80374020338058472 0
   vertex 1.2664918899536133 0.80374020338058472 1
  endloop
 endfacet
 facet normal 0.8270806953002604 0.56208319976818177 0
  outer loop
   vertex 1.2664918899536133 0.80374020338058472 0
   vertex 1.2135255336761475 0.88167786598205566 0
   vertex 1.2664918899536133 0.80374020338058472 1
  endloop
 endfacet
 facet normal 0.8270806953002604 0.56208319976818177 -0
  outer loop
   vertex 1.2664918899536133 0.80374020338058472 1
   vertex 1.2135255336761475 0.88167786598205566 0
   vertex 1.2135255336761475 0.88167786598205566 1
  endloop
 endfacet
 facet normal 0.79015465862867007 0.61290750970061536 0
  outer loop
   vertex 1.2135255336761475 0.88167786598205566 0
   vertex 1.1557698249816895 0.95613598823547363 0
   vertex 1.2135255336761475 0.88167786598205566 1
  endloop
 endfacet
 facet normal 0.79015465862867007 0.61290750970061536 -0
  outer loop
   vertex 1.2135255336761475 0.88167786598205566 1
   vertex 1.1557698249816895 0.95613598823547363 0
   vertex 1.1557698249816895 0.95613598823547363 1
  endloop
 endfacet
 facet normal 0.75011120635125184 0.66131171024432178 0
  outer loop
   vertex 1.1557698249816895 0.95613598823547363 0
   vertex 1.0934529304504395 1.0268206596374512 0
   vertex 1.1557698249816895 0.95613598823547363 1
  endloop
 endfacet
 facet normal 0.75011120635125184 0.66131171024432178 -0
  outer loop
   vertex 1.1557698249816895 0.95613598823547363 1
   vertex 1.0934529304504395 1.0268206596374512 0
   vertex 1.0934529304504395 1.0268206596374512 1
  endloop
 endfacet
 facet normal 0.70710678118654746 0.70710678118654746 0
  outer loop
   vertex 1.0934529304504395 1.0268206596374512 0
   vertex 1.0268206596374512 1.0934529304504395 0
   vertex 1.0934529304504395 1.0268206596374512 1
  endloop
 endfacet
 facet normal 0.70710678118654746 0.70710678118654746 -0
  outer loop
   vertex 1.0934529304504395 1.0268206596374512 1
   vertex 1.0268206596374512 1.0934529304504395 0
   vertex 1.0268206596374512 1.0934529304504395 1
  endloop
 endfacet
 facet normal 0.66131171024432178 0.75011120635125184 0
  outer loop
   vertex 1.0268206596374512 1.0934529304504395 0
   vertex 0.95613598823547363 1.1557698249816895 0
   vertex 1.0268206596374512 1.0934529304504395 1
  endloop
 endfacet
 facet normal 0.66131171024432178 0.75011120635125184 -0
  outer loop
   vertex 1.0268206596374512 1.0934529304504395 1
   vertex 0.95613598823547363 1.1557698249816895 0
   vertex 0.95613598823547363 1.1557698249816895 1
  endloop
 endfacet
 facet normal 0.61290750970061536 0.79015465862867007 0
  outer loop
   vertex 0.95613598823547363 1.1557698249816895 0
   vertex 0.88167786598205566 1.2135255336761475 0
   vertex 0.95613598823547363 1.1557698249816895 1
  endloop
 endfacet
 facet normal 0.61290750970061536 0.79015465862867007 -0
  outer loop
   vertex 0.95613598823547363 1.1557698249816895 1
   vertex 0.88167786598205566 1.2135255336761475 0
   vertex 0.88167786598205566 1.2135255336761475 1
  endloop
 endfacet
 facet normal 0.56208319976818177 0.8270806953002604 0
  outer loop
   vertex 0.88167786598205566 1.2135255336761475 0
   vertex 0.80374020338058472 1.2664918899536133 0
   vertex 0.88167786598205566 1.2135255336761475 1
  endloop
 endfacet
 facet normal 0.56208319976818177 0.8270806953002604 -0
  outer loop
   vertex 0.88167786598205566 1.2135255336761475 1
   vertex 0.80374020338058472 1.2664918899536133 0
   vertex 0.80374020338058472 1.2664918899536133 1
  endloop
 endfacet
 facet normal 0.50904145343134266 0.86074200471947815 0
  outer loop
   vertex 0.80374020338058472 1.2664918899536133 0
   vertex 0.72263050079345703 1.3144600391387939 0
   vertex 0.80374020338058472 1.2664918899536133 1
  endloop
 endfacet
 facet normal 0.50904145343134266 0.86074200471947815 -0
  outer loop
   vertex 0.80374020338058472 1.2664918899536133 1
   vertex 0.72263050079345703 1.3144600391387939 0
   vertex 0.72263050079345703 1.3144600391387939 1
  endloop
 endfacet
 facet normal 0.45399027944116216 0.89100663643596711 0
  outer loop
   vertex 0.72263050079345703 1.3144600391387939 0
   vertex 0.63866895437240601 1.3572405576705933 0
   vertex 0.72263050079345703 1.3144600391387939 1
  endloop
 endfacet
 facet normal 0.45399027944116216 0.89100663643596711 -0
  outer loop
   vertex 0.72263050079345703 1.3144600391387939 1
   vertex 0.63866895437240601 1.3572405576705933 0
   vertex 0.63866895437240601 1.3572405576705933 1
  endloop
 endfacet
 facet normal 0.39714839917901767 0.91775440561707122 0
  outer loop
   vertex 0.63866895437240601 1.3572405576705933 0
   vertex 0.55218684673309326 1.3946647644042969 0
   vertex 0.63866895437240601 1.3572405576705933 1
  endloop
 endfacet
 facet normal 0.39714839917901767 0.91775440561707122 -0
  outer loop
   vertex 0.63866895437240601 1.3572405576705933 1
   vertex 0.55218684673309326 1.3946647644042969 0
   vertex 0.55218684673309326 1.3946647644042969 1
  endloop
 endfacet
 facet normal 0.33873706210993976 0.94088107790152031 0
  outer loop
   vertex 0.55218684673309326 1.3946647644042969 0
   vertex 0.46352550387382507 1.4265847206115723 0
   vertex 0.55218684673309326 1.3946647644042969 1
  endloop
 endfacet
 facet normal 0.33873706210993976 0.94088107790152031 -0
  outer loop
   vertex 0.55218684673309326 1.3946647644042969 1
   vertex 0.46352550387382507 1.4265847206115723 0
   vertex 0.46352550387382507 1.4265847206115723 1
  endloop
 endfacet
 facet normal 0.27899198148149301 0.96029343133702127 0
  outer loop
   vertex 0.46352550387382507 1.4265847206115723 0
   vertex 0.37303483486175537 1.4528747797012329 0
   vertex 0.46352550387382507 1.4265847206115723 1
  endloop
 endfacet
 facet normal 0.27899198148149301 0.96029343133702127 -0
  outer loop
   vertex 0.46352550387382507 1.4265847206115723 1
   vertex 0.37303483486175537 1.4528747797012329 0
   vertex 0.37303483486175537 1.4528747797012329 1
  endloop
 endfacet
 facet normal 0.21814278146669361 0.97591686474513506 0
  outer loop
   vertex 0.37303483486175537 1.4528747797012329 0
   vertex 0.28107196092605591 1.473430871963501 0
   vertex 0.37303483486175537 1.4528747797012329 1
  endloop
 endfacet
 facet normal 0.21814278146669361 0.97591686474513506 -0
  outer loop
   vertex 0.37303483486175537 1.4528747797012329 1
   vertex 0.28107196092605591 1.473430871963501 0
   vertex 0.28107196092605591 1.473430871963501 1
  endloop
 endfacet
 facet normal 0.15643454025441772 0.98768832868237799 0
  outer loop
   vertex 0.28107196092605591 1.473430871963501 0
   vertex 0.18799984455108643 1.4881720542907715 0
   vertex 0.28107196092605591 1.473430871963501 1
  endloop
 endfacet
 facet normal 0.15643454025441772 0.98768832868237799 -0
  outer loop
   vertex 0.28107196092605591 1.473430871963501 1
   vertex 0.18799984455108643 1.4881720542907715 0
   vertex 0.18799984455108643 1.4881720542907715 1
  endloop
 endfacet
 facet normal 0.094107668672848144 0.9955620255398262 0
  outer loop
   vertex 0.18799984455108643 1.4881720542907715 0
   vertex 0.094185777008533478 1.4970400333404541 0
   vertex 0.18799984455108643 1.4881720542907715 1
  endloop
 endfacet
 facet normal 0.094107668672848144 0.9955620255398262 -0
  outer loop
   vertex 0.18799984455108643 1.4881720542907715 1
   vertex 0.094185777008533478 1.4970400333404541 0
   vertex 0.094185777008533478 1.4970400333404541 1
  endloop
 endfacet
 facet normal 0.031411388535434209 0.99950654058404043 0
  outer loop
   vertex 0.094185777008533478 1.4970400333404541 0
   vertex -2.4121838682621447e-16 1.5 0
   vertex 0.094185777008533478 1.4970400333404541 1
  endloop
 endfacet
 facet normal 0.031411388535434209 0.99950654058404043 -0
  outer loop
   vertex 0.094185777008533478 1.4970400333404541 1
   vertex -2.4121838682621447e-16 1.5 0
   vertex -2.4121838682621447e-16 1.5 1
  endloop
 endfacet
 facet normal -0.031411388535434369 0.99950654058404043 0
  outer loop
   vertex -2.4121838682621447e-16 1.5 0
   vertex -0.094185777008533478 1.4970400333404541 0
   vertex -2.4121838682621447e-16 1.5 1
  endloop
 endfacet
 facet normal -0.031411388535434369 0.99950654058404043 0
  outer loop
   vertex -2.4121838682621447e-16 1.5 1
   vertex -0.094185777008533478 1.4970400333404541 0
   vertex -0.094185777008533478 1.4970400333404541 1
  endloop
 endfacet
 facet normal -0.094107668672848144 0.9955620255398262 0
  outer loop
   vertex -0.094185777008533478 1.4970400333404541 0
   vertex -0.18799984455108643 1.4881720542907715 0
   vertex -0.094185777008533478 1.4970400333404541 1
  endloop
 endfacet
 facet normal -0.094107668672848144 0.9955620255398262 0
  outer loop
   vertex -0.094185777008533478 1.4970400333404541 1
   vertex -0.18799984455108643 1.4881720542907715 0
   vertex -0.18799984455108643 1.4881720542907715 1
  endloop
 endfacet
 facet normal -0.15643454025441772 0.98768832868237799 0
  outer loop
   vertex -0.18799984455108643 1.4881720542907715 0
   vertex -0.28107196092605591 1.473430871963501 0
   vertex -0.18799984455108643 1.4881720542907715 1
  endloop
 endfacet
 facet normal -0.15643454025441772 0.98768832868237799 0
  outer loop
   vertex -0.18799984455108643 1.4881720542907715 1
   vertex -0.28107196092605591 1.473430871963501 0
   vertex -0.28107196092605591 1.473430871963501 1
  endloop
 endfacet
 facet normal -0.21814278146669361 0.97591686474513506 0
  outer loop
   vertex -0.28107196092605591 1.473430871963501 0
   vertex -0.37303483486175537 1.4528747797012329 0
   vertex -0.28107196092605591 1.473430871963501 1
  endloop
 endfacet
 facet normal -0.21814278146669361 0.97591686474513506 0
  outer loop
   vertex -0.28107196092605591 1.473430871963501 1
   vertex -0.37303483486175537 1.4528747797012329 0
   vertex -0.37303483486175537 1.4528747797012329 1
  endloop
 endfacet
 facet normal -0.27899198148149301 0.96029343133702127 0
  outer loop
   vertex -0.37303483486175537 1.4528747797012329 0
   vertex -0.46352550387382507 1.4265847206115723 0
   vertex -0.37303483486175537 1.4528747797012329 1
  endloop
 endfacet
 facet normal -0.27899198148149301 0.96029343133702127 0
  outer loop
   vertex -0.37303483486175537 1.4528747797012329 1
   vertex -0.46352550387382507 1.4265847206115723 0
   vertex -0.46352550387382507 1.4265847206115723 1
  endloop
 endfacet
 facet normal -0.33873706210993976 0.94088107790152031 0
  outer loop
   vertex -0.46352550387382507 1.4265847206115723 0
   vertex -0.55218684673309326 1.3946647644042969 0
   vertex -0.46352550387382507 1.4265847206115723 1
  endloop
 endfacet
 facet normal -0.33873706210993976 0.94088107790152031 0
  outer loop
   vertex -0.46352550387382507 1.4265847206115723 1
   vertex -0.55218684673309326 1.3946647644042969 0
   vertex -0.55218684673309326 1.3946647644042969 1
  endloop
 endfacet
 facet normal -0.39714839917901767 0.91775440561707122 0
  outer loop
   vertex -0.55218684673309326 1.3946647644042969 0
   vertex -0.63866895437240601 1.3572405576705933 0
   vertex -0.55218684673309326 1.3946647644042969 1
  endloop
 endfacet
 facet normal -0.39714839917901767 0.91775440561707122 0
  outer loop
   vertex -0.55218684673309326 1.3946647644042969 1
   vertex -0.63866895437240601 1.3572405576705933 0
   vertex -0.63866895437240601 1.3572405576705933 1
  endloop
 endfacet
 facet normal -0.45399027944116216 0.89100663643596711 0
  outer loop
   vertex -0.63866895437240601 1.3572405576705933 0
   vertex -0.72263050079345703 1.3144600391387939 0
   vertex -0.63866895437240601 1.3572405576705933 1
  endloop
 endfacet
 facet normal -0.45399027944116216 0.89100663643596711 0
  outer loop
   vertex -0.63866895437240601 1.3572405576705933 1
   vertex -0.72263050079345703 1.3144600391387939 0
   vertex -0.72263050079345703 1.3144600391387939 1
  endloop
 endfacet
 facet normal -0.50904145343134266 0.86074200471947815 0
  outer loop
   vertex -0.72263050079345703 1.3144600391387939 0
   vertex -0.80374020338058472 1.2664918899536133 0
   vertex -0.72263050079345703 1.3144600391387939 1
  endloop
 endfacet
 facet normal -0.50904145343134266 0.86074200471947815 0
  outer loop
   vertex -0.72263050079345703 1.3144600391387939 1
   vertex -0.80374020338058472 1.2664918899536133 0
   vertex -0.80374020338058472 1.2664918899536133 1
  endloop
 endfacet
 facet normal -0.56208319976818177 0.8270806953002604 0
  outer loop
   vertex -0.80374020338058472 1.2664918899536133 0
   vertex -0.88167786598205566 1.2135255336761475 0
   vertex -0.80374020338058472 1.2664918899536133 1
  endloop
 endfacet
 facet normal -0.56208319976818177 0.8270806953002604 0
  outer loop
   vertex -0.80374020338058472 1.2664918899536133 1
   vertex -0.88167786598205566 1.2135255336761475 0
   vertex -0.88167786598205566 1.2135255336761475 1
  endloop
 endfacet
 facet normal -0.61290750970061536 0.79015465862867007 0
  outer loop
   vertex -0.88167786598205566 1.2135255336761475 0
   vertex -0.95613598823547363 1.1557698249816895 0
   vertex -0.88167786598205566 1.2135255336761475 1
  endloop
 endfacet
 facet normal -0.61290750970061536 0.79015465862867007 0
  outer loop
   vertex -0.88167786598205566 1.2135255336761475 1
   vertex -0.95613598823547363 1.1557698249816895 0
   vertex -0.95613598823547363 1.1557698249816895 1
  endloop
 endfacet
 facet normal -0.66131171024432178 0.75011120635125184 0
  outer loop
   vertex -0.95613598823547363 1.1557698249816895 0
   vertex -1.0268206596374512 1.0934529304504395 0
   vertex -0.95613598823547363 1.1557698249816895 1
  endloop
 endfacet
 facet normal -0.66131171024432178 0.75011120635125184 0
  outer loop
   vertex -0.95613598823547363 1.1557698249816895 1
   vertex -1.0268206596374512 1.0934529304504395 0
   vertex -1.0268206596374512 1.0934529304504395 1
  endloop
 endfacet
 facet normal -0.70710678118654746 0.70710678118654746 0
  outer loop
   vertex -1.0268206596374512 1.0934529304504395 0
   vertex -1.0934529304504395 1.0268206596374512 0
   vertex -1.0268206596374512 1.0934529304504395 1
  endloop
 endfacet
 facet normal -0.70710678118654746 0.70710678118654746 0
  outer loop
   vertex -1.0268206596374512 1.0934529304504395 1
   vertex -1.0934529304504395 1.0268206596374512 0
   vertex -1.0934529304504395 1.0268206596374512 1
  endloop
 endfacet
 facet normal -0.75011120635125184 0.66131171024432178 0
  outer loop
   vertex -1.0934529304504395 1.0268206596374512 0
   vertex -1.1557698249816895 0.95613598823547363 0
   vertex -1.0934529304504395 1.0268206596374512 1
  endloop
 endfacet
 facet normal -0.75011120635125184 0.66131171024432178 0
  outer loop
   vertex -1.0934529304504395 1.0268206596374512 1
   vertex -1.1557698249816895 0.95613598823547363 0
   vertex -1.1557698249816895 0.95613598823547363 1
  endloop
 endfacet
 facet normal -0.79015465862867007 0.61290750970061536 0
  outer loop
   vertex -1.1557698249816895 0.95613598823547363 0
   vertex -1.2135255336761475 0.88167786598205566 0
   vertex -1.1557698249816895 0.95613598823547363 1
  endloop
 endfacet
 facet normal -0.79015465862867007 0.61290750970061536 0
  outer loop
   vertex -1.1557698249816895 0.95613598823547363 1
   vertex -1.2135255336761475 0.88167786598205566 0
   vertex -1.2135255336761475 0.88167786598205566 1
  endloop
 endfacet
 facet normal -0.8270806953002604 0.56208319976818177 0
  outer loop
   vertex -1.2135255336761475 0.88167786598205566 0
   vertex -1.2664918899536133 0.80374020338058472 0
   vertex -1.2135255336761475 0.88167786598205566 1
  endloop
 endfacet
 facet normal -0.8270806953002604 0.56208319976818177 0
  outer loop
   vertex -1.2135255336761475 0.88167786598205566 1
   vertex -1.2664918899536133 0.80374020338058472 0
   vertex -1.2664918899536133 0.80374020338058472 1
  endloop
 endfacet
 facet normal -0.86074200471947815 0.50904145343134266 0
  outer loop
   vertex -1.2664918899536133 0.80374020338058472 0
   vertex -1.3144600391387939 0.72263050079345703 0
   vertex -1.2664918899536133 0.80374020338058472 1
  endloop
 endfacet
 facet normal -0.86074200471947815 0.50904145343134266 0
  outer loop
   vertex -1.2664918899536133 0.80374020338058472 1
   vertex -1.3144600391387939 0.72263050079345703 0
   vertex -1.3144600391387939 0.72263050079345703 1
  endloop
 endfacet
 facet normal -0.89100663643596711 0.45399027944116216 0
  outer loop
   vertex -1.3144600391387939 0.72263050079345703 0
   vertex -1.3572405576705933 0.63866895437240601 0
   vertex -1.3144600391387939 0.72263050079345703 1
  endloop
 endfacet
 facet normal -0.89100663643596711 0.45399027944116216 0
  outer loop
   vertex -1.3144600391387939 0.72263050079345703 1
   vertex -1.3572405576705933 0.63866895437240601 0
   vertex -1.3572405576705933 0.63866895437240601 1
  endloop
 endfacet
 facet normal -0.91775440561707122 0.39714839917901767 0
  outer loop
   vertex -1.3572405576705933 0.63866895437240601 0
   vertex -1.3946647644042969 0.55218684673309326 0
   vertex -1.3572405576705933 0.63866895437240601 1
  endloop
 endfacet
 facet normal -0.91775440561707122 0.39714839917901767 0
  outer loop
   vertex -1.3572405576705933 0.63866895437240601 1
   vertex -1.3946647644042969 0.55218684673309326 0
   vertex -1.3946647644042969 0.55218684673309326 1
  endloop
 endfacet
 facet normal -0.94088107790152031 0.33873706210993976 0
  outer loop
   vertex -1.3946647644042969 0.55218684673309326 0
   vertex -1.4265847206115723 0.46352550387382507 0
   vertex -1.3946647644042969 0.55218684673309326 1
  endloop
 endfacet
 facet normal -0.94088107790152031 0.33873706210993976 0
  outer loop
   vertex -1.3946647644042969 0.55218684673309326 1
   vertex -1.4265847206115723 0.46352550387382507 0
   vertex -1.4265847206115723 0.46352550387382507 1
  endloop
 endfacet
 facet normal -0.96029343133702127 0.27899198148149301 0
  outer loop
   vertex -1.4265847206115723 0.46352550387382507 0
   vertex -1.4528747797012329 0.37303483486175537 0
   vertex -1.4265847206115723 0.46352550387382507 1
  endloop
 endfacet
 facet normal -0.96029343133702127 0.27899198148149301 0
  outer loop
   vertex -1.4265847206115723 0.46352550387382507 1
   vertex -1.4528747797012329 0.37303483486175537 0
   vertex -1.4528747797012329 0.37303483486175537 1
  endloop
 endfacet
 facet normal -0.97591686474513506 0.21814278146669361 0
  outer loop
   vertex -1.4528747797012329 0.37303483486175537 0
   vertex -1.473430871963501 0.28107196092605591 0
   vertex -1.4528747797012329 0.37303483486175537 1
  endloop
 endfacet
 facet normal -0.97591686474513506 0.21814278146669361 0
  outer loop
   vertex -1.4528747797012329 0.37303483486175537 1
   vertex -1.473430871963501 0.28107196092605591 0
   vertex -1.473430871963501 0.28107196092605591 1
  endloop
 endfacet
 facet normal -0.98768832868237799 0.15643454025441772 0
  outer loop
   vertex -1.473430871963501 0.28107196092605591 0
   vertex -1.4881720542907715 0.18799984455108643 0
   vertex -1.473430871963501 0.28107196092605591 1
  endloop
 endfacet
 facet normal -0.98768832868237799 0.15643454025441772 0
  outer loop
   vertex -1.473430871963501 0.28107196092605591 1
   vertex -1.4881720542907715 0.18799984455108643 0
   vertex -1.4881720542907715 0.18799984455108643 1
  endloop
 endfacet
 facet normal -0.9955620255398262 0.094107668672848144 0
  outer loop
   vertex -1.4881720542907715 0.18799984455108643 0
   vertex -1.4970400333404541 0.094185777008533478 0
   vertex -1.4881720542907715 0.18799984455108643 1
  endloop
 endfacet
 facet normal -0.9955620255398262 0.094107668672848144 0
  outer loop
   vertex -1.4881720542907715 0.18799984455108643 1
   vertex -1.4970400333404541 0.094185777008533478 0
   vertex -1.4970400333404541 0.094185777008533478 1
  endloop
 endfacet
 facet normal -0.99950654058404043 0.031411388535434126 0
  outer loop
   vertex -1.4970400333404541 0.094185777008533478 0
   vertex -1.5 -4.8243677365242895e-16 0
   vertex -1.4970400333404541 0.094185777008533478 1
  endloop
 endfacet
 facet normal -0.99950654058404043 0.031411388535434126 0
  outer loop
   vertex -1.4970400333404541 0.094185777008533478 1
   vertex -1.5 -4.8243677365242895e-16 0
   vertex -1.5 -4.8243677365242895e-16 1
  endloop
 endfacet
 facet normal -0.99950654058404043 -0.031411388535434452 0
  outer loop
   vertex -1.5 -4.8243677365242895e-16 0
   vertex -1.4970400333404541 -0.094185777008533478 0
   vertex -1.5 -4.8243677365242895e-16 1
  endloop
 endfacet
 facet normal -0.99950654058404043 -0.031411388535434452 0
  outer loop
   vertex -1.5 -4.8243677365242895e-16 1
   vertex -1.4970400333404541 -0.094185777008533478 0
   vertex -1.4970400333404541 -0.094185777008533478 1
  endloop
 endfacet
 facet normal -0.9955620255398262 -0.094107668672848144 0
  outer loop
   vertex -1.4970400333404541 -0.094185777008533478 0
   vertex -1.4881720542907715 -0.18799984455108643 0
   vertex -1.4970400333404541 -0.094185777008533478 1
  endloop
 endfacet
 facet normal -0.9955620255398262 -0.094107668672848144 0
  outer loop
   vertex -1.4970400333404541 -0.094185777008533478 1
   vertex -1.4881720542907715 -0.18799984455108643 0
   vertex -1.4881720542907715 -0.18799984455108643 1
  endloop
 endfacet
 facet normal -0.98768832868237799 -0.15643454025441772 0
  outer loop
   vertex -1.4881720542907715 -0.18799984455108643 0
   vertex -1.473430871963501 -0.28107196092605591 0
   vertex -1.4881720542907715 -0.18799984455108643 1
  endloop
 endfacet
 facet normal -0.98768832868237799 -0.15643454025441772 0
  outer loop
   vertex -1.4881720542907715 -0.18799984455108643 1
   vertex -1.473430871963501 -0.28107196092605591 0
   vertex -1.473430871963501 -0.28107196092605591 1
  endloop
 endfacet
 facet normal -0.97591686474513506 -0.21814278146669361 0
  outer loop
   vertex -1.473430871963501 -0.28107196092605591 0
   vertex -1.4528747797012329 -0.37303483486175537 0
   vertex -1.473430871963501 -0.28107196092605591 1
  endloop
 endfacet
 facet normal -0.97591686474513506 -0.21814278146669361 0
  outer loop
   vertex -1.473430871963501 -0.28107196092605591 1
   vertex -1.4528747797012329 -0.37303483486175537 0
   vertex -1.4528747797012329 -0.37303483486175537 1
  endloop
 endfacet
 facet normal -0.96029343133702127 -0.27899198148149301 0
  outer loop
   vertex -1.4528747797012329 -0.37303483486175537 0
   vertex -1.4265847206115723 -0.46352550387382507 0
   vertex -1.4528747797012329 -0.37303483486175537 1
  endloop
 endfacet
 facet normal -0.96029343133702127 -0.27899198148149301 0
  outer loop
   vertex -1.4528747797012329 -0.37303483486175537 1
   vertex -1.4265847206115723 -0.46352550387382507 0
   vertex -1.4265847206115723 -0.46352550387382507 1
  endloop
 endfacet
 facet normal -0.94088107790152031 -0.33873706210993976 0
  outer loop
   vertex -1.4265847206115723 -0.46352550387382507 0
   vertex -1.3946647644042969 -0.55218684673309326 0
   vertex -1.4265847206115723 -0.46352550387382507 1
  endloop
 endfacet
 facet normal -0.94088107790152031 -0.33873706210993976 0
  outer loop
   vertex -1.4265847206115723 -0.46352550387382507 1
   vertex -1.3946647644042969 -0.55218684673309326 0
   vertex -1.3946647644042969 -0.55218684673309326 1
  endloop
 endfacet
 facet normal -0.91775440561707122 -0.39714839917901767 0
  outer loop
   vertex -1.3946647644042969 -0.55218684673309326 0
   vertex -1.3572405576705933 -0.63866895437240601 0
   vertex -1.3946647644042969 -0.55218684673309326 1
  endloop
 endfacet
 facet normal -0.91775440561707122 -0.39714839917901767 0
  outer loop
   vertex -1.3946647644042969 -0.55218684673309326 1
   vertex -1.3572405576705933 -0.63866895437240601 0
   vertex -1.3572405576705933 -0.63866895437240601 1
  endloop
 endfacet
 facet normal -0.89100663643596711 -0.45399027944116216 0
  outer loop
   vertex -1.3572405576705933 -0.63866895437240601 0
   vertex -1.3144600391387939 -0.72263050079345703 0
   vertex -1.3572405576705933 -0.63866895437240601 1
  endloop
 endfacet
 facet normal -0.89100663643596711 -0.45399027944116216 0
  outer loop
   vertex -1.3572405576705933 -0.63866895437240601 1
   vertex -1.3144600391387939 -0.72263050079345703 0
   vertex -1.3144600391387939 -0.72263050079345703 1
  endloop
 endfacet
 facet normal -0.86074200471947815 -0.50904145343134266 0
  outer loop
   vertex -1.3144600391387939 -0.72263050079345703 0
   vertex -1.2664918899536133 -0.80374020338058472 0
   vertex -1.3144600391387939 -0.72263050079345703 1
  endloop
 endfacet
 facet normal -0.86074200471947815 -0.50904145343134266 0
  outer loop
   vertex -1.3144600391387939 -0.72263050079345703 1
   vertex -1.2664918899536133 -0.80374020338058472 0
   vertex -1.2664918899536133 -0.80374020338058472 1
  endloop
 endfacet
 facet normal -0.8270806953002604 -0.56208319976818177 0
  outer loop
   vertex -1.2664918899536133 -0.80374020338058472 0
   vertex -1.2135255336761475 -0.88167786598205566 0
   vertex -1.2664918899536133 -0.80374020338058472 1
  endloop
 endfacet
 facet normal -0.8270806953002604 -0.56208319976818177 0
  outer loop
   vertex -1.2664918899536133 -0.80374020338058472 1
   vertex -1.2135255336761475 -0.88167786598205566 0
   vertex -1.2135255336761475 -0.88167786598205566 1
  endloop
 endfacet
 facet normal -0.79015465862867007 -0.61290750970061536 0
  outer loop
   vertex -1.2135255336761475 -0.88167786598205566 0
   vertex -1.1557698249816895 -0.95613598823547363 0
   vertex -1.2135255336761475 -0.88167786598205566 1
  endloop
 endfacet
 facet normal -0.79015465862867007 -0.61290750970061536 0
  outer loop
   vertex -1.2135255336761475 -0.88167786598205566 1
   vertex -1.1557698249816895 -0.95613598823547363 0
   vertex -1.1557698249816895 -0.95613598823547363 1
  endloop
 endfacet
 facet normal -0.75011120635125184 -0.66131171024432178 0
  outer loop
   vertex -1.1557698249816895 -0.95613598823547363 0
   vertex -1.0934529304504395 -1.0268206596374512 0
   vertex -1.1557698249816895 -0.95613598823547363 1
  endloop
 endfacet
 facet normal -0.75011120635125184 -0.66131171024432178 0
  outer loop
   vertex -1.1557698249816895 -0.95613598823547363 1
   vertex -1.0934529304504395 -1.0268206596374512 0
   vertex -1.0934529304504395 -1.0268206596374512 1
  endloop
 endfacet
 facet normal -0.70710678118654746 -0.70710678118654746 0
  outer loop
   vertex -1.0934529304504395 -1.0268206596374512 0
   vertex -1.0268206596374512 -1.0934529304504395 0
   vertex -1.0934529304504395 -1.0268206596374512 1
  endloop
 endfacet
 facet normal -0.70710678118654746 -0.70710678118654746 0
  outer loop
   vertex -1.0934529304504395 -1.0268206596374512 1
   vertex -1.0268206596374512 -1.0934529304504395 0
   vertex -1.0268206596374512 -1.0934529304504395 1
  endloop
 endfacet
 facet normal -0.66131171024432178 -0.75011120635125184 0
  outer loop
   vertex -1.0268206596374512 -1.0934529304504395 0
   vertex -0.95613598823547363 -1.1557698249816895 0
   vertex -1.0268206596374512 -1.0934529304504395 1
  endloop
 endfacet
 facet normal -0.66131171024432178 -0.75011120635125184 0
  outer loop
   vertex -1.0268206596374512 -1.0934529304504395 1
   vertex -0.95613598823547363 -1.1557698249816895 0
   vertex -0.95613598823547363 -1.1557698249816895 1
  endloop
 endfacet
 facet normal -0.61290750970061536 -0.79015465862867007 0
  outer loop
   vertex -0.95613598823547363 -1.1557698249816895 0
   vertex -0.88167786598205566 -1.2135255336761475 0
   vertex -0.95613598823547363 -1.1557698249816895 1
  endloop
 endfacet
 facet normal -0.61290750970061536 -0.79015465862867007 0
  outer loop
   vertex -0.95613598823547363 -1.1557698249816895 1
   vertex -0.88167786598205566 -1.2135255336761475 0
   vertex -0.88167786598205566 -1.2135255336761475 1
  endloop
 endfacet
 facet normal -0.56208319976818177 -0.8270806953002604 0
  outer loop
   vertex -0.88167786598205566 -1.2135255336761475 0
   vertex -0.80374020338058472 -1.2664918899536133 0
   vertex -0.88167786598205566 -1.2135255336761475 1
  endloop
 endfacet
 facet normal -0.56208319976818177 -0.8270806953002604 0
  outer loop
   vertex -0.88167786598205566 -1.2135255336761475 1
   vertex -0.80374020338058472 -1.2664918899536133 0
   vertex -0.80374020338058472 -1.2664918899536133 1
  endloop
 endfacet
 facet normal -0.50904145343134266 -0.86074200471947815 0
  outer loop
   vertex -0.80374020338058472 -1.2664918899536133 0
   vertex -0.72263050079345703 -1.3144600391387939 0
   vertex -0.80374020338058472 -1.2664918899536133 1
  endloop
 endfacet
 facet normal -0.50904145343134266 -0.86074200471947815 0
  outer loop
   vertex -0.80374020338058472 -1.2664918899536133 1
   vertex -0.72263050079345703 -1.3144600391387939 0
   vertex -0.72263050079345703 -1.3144600391387939 1
  endloop
 endfacet
 facet normal -0.45399027944116216 -0.89100663643596711 0
  outer loop
   vertex -0.72263050079345703 -1.3144600391387939 0
   vertex -0.63866895437240601 -1.3572405576705933 0
   vertex -0.72263050079345703 -1.3144600391387939 1
  endloop
 endfacet
 facet normal -0.45399027944116216 -0.89100663643596711 0
  outer loop
   vertex -0.72263050079345703 -1.3144600391387939 1
   vertex -0.63866895437240601 -1.3572405576705933 0
   vertex -0.63866895437240601 -1.3572405576705933 1
  endloop
 endfacet
 facet normal -0.39714839917901767 -0.91775440561707122 0
  outer loop
   vertex -0.63866895437240601 -1.3572405576705933 0
   vertex -0.55218684673309326 -1.3946647644042969 0
   vertex -0.63866895437240601 -1.3572405576705933 1
  endloop
 endfacet
 facet normal -0.39714839917901767 -0.91775440561707122 0
  outer loop
   vertex -0.63866895437240601 -1.3572405576705933 1
   vertex -0.55218684673309326 -1.3946647644042969 0
   vertex -0.55218684673309326 -1.3946647644042969 1
  endloop
 endfacet
 facet normal -0.33873706210993976 -0.94088107790152031 0
  outer loop
   vertex -0.55218684673309326 -1.3946647644042969 0
   vertex -0.46352550387382507 -1.4265847206115723 0
   vertex -0.55218684673309326 -1.3946647644042969 1
  endloop
 endfacet
 facet normal -0.33873706210993976 -0.94088107790152031 0
  outer loop
   vertex -0.55218684673309326 -1.3946647644042969 1
   vertex -0.46352550387382507 -1.4265847206115723 0
   vertex -0.46352550387382507 -1.4265847206115723 1
  endloop
 endfacet
 facet normal -0.27899198148149301 -0.96029343133702127 0
  outer loop
   vertex -0.46352550387382507 -1.4265847206115723 0
   vertex -0.37303483486175537 -1.4528747797012329 0
   vertex -0.46352550387382507 -1.4265847206115723 1
  endloop
 endfacet
 facet normal -0.27899198148149301 -0.96029343133702127 0
  outer loop
   vertex -0.46352550387382507 -1.4265847206115723 1
   vertex -0.37303483486175537 -1.4528747797012329 0
   vertex -0.37303483486175537 -1.4528747797012329 1
  endloop
 endfacet
 facet normal -0.21814278146669361 -0.97591686474513506 0
  outer loop
   vertex -0.37303483486175537 -1.4528747797012329 0
   vertex -0.28107196092605591 -1.473430871963501 0
   vertex -0.37303483486175537 -1.4528747797012329 1
  endloop
 endfacet
 facet normal -0.21814278146669361 -0.97591686474513506 0
  outer loop
   vertex -0.37303483486175537 -1.4528747797012329 1
   vertex -0.28107196092605591 -1.473430871963501 0
   vertex -0.28107196092605591 -1.473430871963501 1
  endloop
 endfacet
 facet normal -0.15643454025441772 -0.98768832868237799 0
  outer loop
   vertex -0.28107196092605591 -1.473430871963501 0
   vertex -0.18799984455108643 -1.4881720542907715 0
   vertex -0.28107196092605591 -1.473430871963501 1
  endloop
 endfacet
 facet normal -0.15643454025441772 -0.98768832868237799 0
  outer loop
   vertex -0.28107196092605591 -1.473430871963501 1
   vertex -0.18799984455108643 -1.4881720542907715 0
   vertex -0.18799984455108643 -1.4881720542907715 1
  endloop
 endfacet
 facet normal -0.094107668672848144 -0.9955620255398262 0
  outer loop
   vertex -0.18799984455108643 -1.4881720542907715 0
   vertex -0.094185777008533478 -1.4970400333404541 0
   vertex -0.18799984455108643 -1.4881720542907715 1
  endloop
 endfacet
 facet normal -0.094107668672848144 -0.9955620255398262 0
  outer loop
   vertex -0.18799984455108643 -1.4881720542907715 1
   vertex -0.094185777008533478 -1.4970400333404541 0
   vertex -0.094185777008533478 -1.4970400333404541 1
  endloop
 endfacet
 facet normal -0.031411388535434383 -0.99950654058404043 0
  outer loop
   vertex -0.094185777008533478 -1.4970400333404541 0
   vertex -2.7554553521421787e-16 -1.5 0
   vertex -0.094185777008533478 -1.4970400333404541 1
  endloop
 endfacet
 facet normal -0.031411388535434383 -0.99950654058404043 0
  outer loop
   vertex -0.094185777008533478 -1.4970400333404541 1
   vertex -2.7554553521421787e-16 -1.5 0
   vertex -2.7554553521421787e-16 -1.5 1
  endloop
 endfacet
 facet normal 0.031411388535434195 -0.99950654058404043 0
  outer loop
   vertex -2.7554553521421787e-16 -1.5 0
   vertex 0.094185777008533478 -1.4970400333404541 0
   vertex -2.7554553521421787e-16 -1.5 1
  endloop
 endfacet
 facet normal 0.031411388535434195 -0.99950654058404043 0
  outer loop
   vertex -2.7554553521421787e-16 -1.5 1
   vertex 0.094185777008533478 -1.4970400333404541 0
   vertex 0.094185777008533478 -1.4970400333404541 1
  endloop
 endfacet
 facet normal 0.094107668672848144 -0.9955620255398262 0
  outer loop
   vertex 0.094185777008533478 -1.4970400333404541 0
   vertex 0.18799984455108643 -1.4881720542907715 0
   vertex 0.094185777008533478 -1.4970400333404541 1
  endloop
 endfacet
 facet normal 0.094107668672848144 -0.9955620255398262 0
  outer loop
   vertex 0.094185777008533478 -1.4970400333404541 1
   vertex 0.18799984455108643 -1.4881720542907715 0
   vertex 0.18799984455108643 -1.4881720542907715 1
  endloop
 endfacet
 facet normal 0.15643454025441772 -0.98768832868237799 0
  outer loop
   vertex 0.18799984455108643 -1.4881720542907715 0
   vertex 0.28107196092605591 -1.473430871963501 0
   vertex 0.18799984455108643 -1.4881720542907715 1
  endloop
 endfacet
 facet normal 0.15643454025441772 -0.98768832868237799 0
  outer loop
   vertex 0.18799984455108643 -1.4881720542907715 1
   vertex 0.28107196092605591 -1.473430871963501 0
   vertex 0.28107196092605591 -1.473430871963501 1
  endloop
 endfacet
 facet normal 0.21814278146669361 -0.97591686474513506 0
  outer loop
   vertex 0.28107196092605591 -1.473430871963501 0
   vertex 0.37303483486175537 -1.4528747797012329 0
   vertex 0.28107196092605591 -1.473430871963501 1
  endloop
 endfacet
 facet normal 0.21814278146669361 -0.97591686474513506 0
  outer loop
   vertex 0.28107196092605591 -1.473430871963501 1
   vertex 0.37303483486175537 -1.4528747797012329 0
   vertex 0.37303483486175537 -1.4528747797012329 1
  endloop
 endfacet
 facet normal 0.27899198148149301 -0.96029343133702127 0
  outer loop
   vertex 0.37303483486175537 -1.4528747797012329 0
   vertex 0.46352550387382507 -1.4265847206115723 0
   vertex 0.37303483486175537 -1.4528747797012329 1
  endloop
 endfacet
 facet normal 0.27899198148149301 -0.96029343133702127 0
  outer loop
   vertex 0.37303483486175537 -1.4528747797012329 1
   vertex 0.46352550387382507 -1.4265847206115723 0
   vertex 0.46352550387382507 -1.4265847206115723 1
  endloop
 endfacet
 facet normal 0.33873706210993976 -0.94088107790152031 0
  outer loop
   vertex 0.46352550387382507 -1.4265847206115723 0
   vertex 0.55218684673309326 -1.3946647644042969 0
   vertex 0.46352550387382507 -1.4265847206115723 1
  endloop
 endfacet
 facet normal 0.33873706210993976 -0.94088107790152031 0
  outer loop
   vertex 0.46352550387382507 -1.4265847206115723 1
   vertex 0.55218684673309326 -1.3946647644042969 0
   vertex 0.55218684673309326 -1.3946647644042969 1
  endloop
 endfacet
 facet normal 0.39714839917901767 -0.91775440561707122 0
  outer loop
   vertex 0.55218684673309326 -1.3946647644042969 0
   vertex 0.63866895437240601 -1.3572405576705933 0
   vertex 0.55218684673309326 -1.3946647644042969 1
  endloop
 endfacet
 facet normal 0.39714839917901767 -0.91775440561707122 0
  outer loop
   vertex 0.55218684673309326 -1.3946647644042969 1
   vertex 0.63866895437240601 -1.3572405576705933 0
   vertex 0.63866895437240601 -1.3572405576705933 1
  endloop
 endfacet
 facet normal 0.45399027944116216 -0.89100663643596711 0
  outer loop
   vertex 0.63866895437240601 -1.3572405576705933 0
   vertex 0.72263050079345703 -1.3144600391387939 0
   vertex 0.63866895437240601 -1.3572405576705933 1
  endloop
 endfacet
 facet normal 0.45399027944116216 -0.89100663643596711 0
  outer loop
   vertex 0.63866895437240601 -1.3572405576705933 1
   vertex 0.72263050079345703 -1.3144600391387939 0
   vertex 0.72263050079345703 -1.3144600391387939 1
  endloop
 endfacet
 facet normal 0.50904145343134266 -0.86074200471947815 0
  outer loop
   vertex 0.72263050079345703 -1.3144600391387939 0
   vertex 0.80374020338058472 -1.2664918899536133 0
   vertex 0.72263050079345703 -1.3144600391387939 1
  endloop
 endfacet
 facet normal 0.50904145343134266 -0.86074200471947815 0
  outer loop
   vertex 0.72263050079345703 -1.3144600391387939 1
   vertex 0.80374020338058472 -1.2664918899536133 0
   vertex 0.80374020338058472 -1.2664918899536133 1
  endloop
 endfacet
 facet normal 0.56208319976818177 -0.8270806953002604 0
  outer loop
   vertex 0.80374020338058472 -1.2664918899536133 0
   vertex 0.88167786598205566 -1.2135255336761475 0
   vertex 0.80374020338058472 -1.2664918899536133 1
  endloop
 endfacet
 facet normal 0.56208319976818177 -0.8270806953002604 0
  outer loop
   vertex 0.80374020338058472 -1.2664918899536133 1
   vertex 0.88167786598205566 -1.2135255336761475 0
   vertex 0.88167786598205566 -1.2135255336761475 1
  endloop
 endfacet
 facet normal 0.61290750970061536 -0.79015465862867007 0
  outer loop
   vertex 0.88167786598205566 -1.2135255336761475 0
   vertex 0.95613598823547363 -1.1557698249816895 0
   vertex 0.88167786598205566 -1.2135255336761475 1
  endloop
 endfacet
 facet normal 0.61290750970061536 -0.79015465862867007 0
  outer loop
   vertex 0.88167786598205566 -1.2135255336761475 1
   vertex 0.95613598823547363 -1.1557698249816895 0
   vertex 0.95613598823547363 -1.1557698249816895 1
  endloop
 endfacet
 facet normal 0.66131171024432178 -0.75011120635125184 0
  outer loop
   vertex 0.95613598823547363 -1.1557698249816895 0
   vertex 1.0268206596374512 -1.0934529304504395 0
   vertex 0.95613598823547363 -1.1557698249816895 1
  endloop
 endfacet
 facet normal 0.66131171024432178 -0.75011120635125184 0
  outer loop
   vertex 0.95613598823547363 -1.1557698249816895 1
   vertex 1.0268206596374512 -1.0934529304504395 0
   vertex 1.0268206596374512 -1.0934529304504395 1
  endloop
 endfacet
 facet normal 0.70710678118654746 -0.70710678118654746 0
  outer loop
   vertex 1.0268206596374512 -1.0934529304504395 0
   vertex 1.0934529304504395 -1.0268206596374512 0
   vertex 1.0268206596374512 -1.0934529304504395 1
  endloop
 endfacet
 facet normal 0.70710678118654746 -0.70710678118654746 0
  outer loop
   vertex 1.0268206596374512 -1.0934529304504395 1
   vertex 1.0934529304504395 -1.0268206596374512 0
   vertex 1.0934529304504395 -1.0268206596374512 1
  endloop
 endfacet
 facet normal 0.75011120635125184 -0.66131171024432178 0
  outer loop
   vertex 1.0934529304504395 -1.0268206596374512 0
   vertex 1.1557698249816895 -0.95613598823547363 0
   vertex 1.0934529304504395 -1.0268206596374512 1
  endloop
 endfacet
 facet normal 0.75011120635125184 -0.66131171024432178 0
  outer loop
   vertex 1.0934529304504395 -1.0268206596374512 1
   vertex 1.1557698249816895 -0.95613598823547363 0
   vertex 1.1557698249816895 -0.95613598823547363 1
  endloop
 endfacet
 facet normal 0.79015465862867007 -0.61290750970061536 0
  outer loop
   vertex 1.1557698249816895 -0.95613598823547363 0
   vertex 1.2135255336761475 -0.88167786598205566 0
   vertex 1.1557698249816895 -0.95613598823547363 1
  endloop
 endfacet
 facet normal 0.79015465862867007 -0.61290750970061536 0
  outer loop
   vertex 1.1557698249816895 -0.95613598823547363 1
   vertex 1.2135255336761475 -0.88167786598205566 0
   vertex 1.2135255336761475 -0.88167786598205566 1
  endloop
 endfacet
 facet normal 0.8270806953002604 -0.56208319976818177 0
  outer loop
   vertex 1.2135255336761475 -0.88167786598205566 0
   vertex 1.2664918899536133 -0.80374020338058472 0
   vertex 1.2135255336761475 -0.88167786598205566 1
  endloop
 endfacet
 facet normal 0.8270806953002604 -0.56208319976818177 0
  outer loop
   vertex 1.2135255336761475 -0.88167786598205566 1
   vertex 1.2664918899536133 -0.80374020338058472 0
   vertex 1.2664918899536133 -0.80374020338058472 1
  endloop
 endfacet
 facet normal 0.86074200471947815 -0.50904145343134266 0
  outer loop
   vertex 1.2664918899536133 -0.80374020338058472 0
   vertex 1.3144600391387939 -0.72263050079345703 0
   vertex 1.2664918899536133 -0.80374020338058472 1
  endloop
 endfacet
 facet normal 0.86074200471947815 -0.50904145343134266 0
  outer loop
   vertex 1.2664918899536133 -0.80374020338058472 1
   vertex 1.3144600391387939 -0.72263050079345703 0
   vertex 1.3144600391387939 -0.72263050079345703 1
  endloop
 endfacet
 facet normal 0.89100663643596711 -0.45399027944116216 0
  outer loop
   vertex 1.3144600391387939 -0.72263050079345703 0
   vertex 1.3572405576705933 -0.63866895437240601 0
   vertex 1.3144600391387939 -0.72263050079345703 1
  endloop
 endfacet
 facet normal 0.89100663643596711 -0.45399027944116216 0
  outer loop
   vertex 1.3144600391387939 -0.72263050079345703 1
   vertex 1.3572405576705933 -0.63866895437240601 0
   vertex 1.3572405576705933 -0.63866895437240601 1
  endloop
 endfacet
 facet normal 0.91775440561707122 -0.39714839917901767 0
  outer loop
   vertex 1.3572405576705933 -0.63866895437240601 0
   vertex 1.3946647644042969 -0.55218684673309326 0
   vertex 1.3572405576705933 -0.63866895437240601 1
  endloop
 endfacet
 facet normal 0.91775440561707122 -0.39714839917901767 0
  outer loop
   vertex 1.3572405576705933 -0.63866895437240601 1
   vertex 1.3946647644042969 -0.55218684673309326 0
   vertex 1.3946647644042969 -0.55218684673309326 1
  endloop
 endfacet
 facet normal 0.94088107790152031 -0.33873706210993976 0
  outer loop
   vertex 1.3946647644042969 -0.55218684673309326 0
   vertex 1.4265847206115723 -0.46352550387382507 0
   vertex 1.3946647644042969 -0.55218684673309326 1
  endloop
 endfacet
 facet normal 0.94088107790152031 -0.33873706210993976 0
  outer loop
   vertex 1.3946647644042969 -0.55218684673309326 1
   vertex 1.4265847206115723 -0.46352550387382507 0
   vertex 1.4265847206115723 -0.46352550387382507 1
  endloop
 endfacet
 facet normal 0.96029343133702127 -0.27899198148149301 0
  outer loop
   vertex 1.4265847206115723 -0.46352550387382507 0
   vertex 1.4528747797012329 -0.37303483486175537 0
   vertex 1.4265847206115723 -0.46352550387382507 1
  endloop
 endfacet
 facet normal 0.96029343133702127 -0.27899198148149301 0
  outer loop
   vertex 1.4265847206115723 -0.46352550387382507 1
   vertex 1.4528747797012329 -0.37303483486175537 0
   vertex 1.4528747797012329 -0.37303483486175537 1
  endloop
 endfacet
 facet normal 0.97591686474513506 -0.21814278146669361 0
  outer loop
   vertex 1.4528747797012329 -0.37303483486175537 0
   vertex 1.473430871963501 -0.28107196092605591 0
   vertex 1.4528747797012329 -0.37303483486175537 1
  endloop
 endfacet
 facet normal 0.97591686474513506 -0.21814278146669361 0
  outer loop
   vertex 1.4528747797012329 -0.37303483486175537 1
   vertex 1.473430871963501 -0.28107196092605591 0
   vertex 1.473430871963501 -0.28107196092605591 1
  endloop
 endfacet
 facet normal 0.98768832868237799 -0.15643454025441772 0
  outer loop
   vertex 1.473430871963501 -0.28107196092605591 0
   vertex 1.4881720542907715 -0.18799984455108643 0
   vertex 1.473430871963501 -0.28107196092605591 1
  endloop
 endfacet
 facet normal 0.98768832868237799 -0.15643454025441772 0
  outer loop
   vertex 1.473430871963501 -0.28107196092605591 1
   vertex 1.4881720542907715 -0.18799984455108643 0
   vertex 1.4881720542907715 -0.18799984455108643 1
  endloop
 endfacet
 facet normal 0.9955620255398262 -0.094107668672848144 0
  outer loop
   vertex 1.4881720542907715 -0.18799984455108643 0
   vertex 1.4970400333404541 -0.094185777008533478 0
   vertex 1.4881720542907715 -0.18799984455108643 1
  endloop
 endfacet
 facet normal 0.9955620255398262 -0.094107668672848144 0
  outer loop
   vertex 1.4881720542907715 -0.18799984455108643 1
   vertex 1.4970400333404541 -0.094185777008533478 0
   vertex 1.4970400333404541 -0.094185777008533478 1
  endloop
 endfacet
 facet normal 0.99950654058404043 -0.031411388535434293 0
  outer loop
   vertex 1.4970400333404541 -0.094185777008533478 0
   vertex 1.5 0 0
   vertex 1.4970400333404541 -0.094185777008533478 1
  endloop
 endfacet
 facet normal 0.99950654058404043 -0.031411388535434293 0
  outer loop
   vertex 1.4970400333404541 -0.094185777008533478 1
   vertex 1.5 0 0
   vertex 1.5 0 1
  endloop
 endfacet
endsolid Rotor_zone_stationary 
